<?xml version="1.0" encoding="utf-8"?>
<!-- Generator: Adobe Illustrator 18.0.0, SVG Export Plug-In . SVG Version: 6.00 Build 0)  -->
<!DOCTYPE svg PUBLIC "-//W3C//DTD SVG 1.1//EN" "http://www.w3.org/Graphics/SVG/1.1/DTD/svg11.dtd">
<svg version="1.1" xmlns="http://www.w3.org/2000/svg" xmlns:xlink="http://www.w3.org/1999/xlink" x="0px" y="0px"
	 viewBox="0 0 300 300" enable-background="new 0 0 300 300" xml:space="preserve">
<g id="Layer_1" display="none">
</g>
<g id="Layer_2">
	<circle fill="#A1FCFF" stroke="#000000" stroke-width="8" stroke-miterlimit="10" cx="150" cy="151.4" r="140"/>
	<rect x="22" y="211.5" fill="#E89865" stroke="#000000" stroke-width="8" stroke-miterlimit="10" width="256" height="56"/>
	<text transform="matrix(1 0 0 1 94.0249 250.3459)" font-family="'Asap-Bold'" font-size="32" letter-spacing="3">INTRO</text>
	<g>
		<path d="M173.3,130.9l-4.4,4.4h0.1L173.3,130.9L173.3,130.9z M182.5,130.9l-4.4,4.4h0.1L182.5,130.9L182.5,130.9z M186.8,132.8
			l-2.5,2.5h0.1l2.9-2.9C187.1,132.5,186.9,132.6,186.8,132.8z M180.9,130.9l-4.4,4.4h0.1L180.9,130.9L180.9,130.9z M174.8,130.9
			l-4.4,4.4h0.1L174.8,130.9L174.8,130.9z M189.7,130.9c-0.1,0.3-0.3,0.6-0.5,0.9c1.2,0.1,2.2,0.8,2.7,1.8c0.3,0.5,0.4,1.1,0.3,1.7
			h33.3l-40.5,40.5H76.2l32.6-32.6c0-0.1,0.1-0.3,0.1-0.4c0.4-1,1.2-1.7,2.2-1.9l0.4-0.4c0,0,0,0,0-0.1c-0.6-0.9-0.7-2.1-0.3-3.1
			c0.5-1.2,1.6-2,2.9-2c-0.1-0.1-0.2-0.2-0.3-0.4c-0.5-0.7-0.7-1.6-0.5-2.4L70,175.8v13.1h116.9l43.1-43.1v-14.9H189.7z
			 M182.6,184.6H74.4v-4.4h108.2V184.6z M188.9,180.8l-2,2v-2.6l2-2V180.8z M192.3,177.4l-2.3,2.3v-2.6l2.3-2.3V177.4z M195.7,174
			l-2.3,2.3v-2.6l2.3-2.3V174z M199,170.7l-2.3,2.3v-2.6l2.3-2.3V170.7z M202.4,167.3l-2.3,2.3V167l2.3-2.3V167.3z M205.8,163.9
			l-2.3,2.3v-2.6l2.3-2.3V163.9z M209.1,160.5l-2.3,2.3v-2.6l2.3-2.3V160.5z M212.5,157.2l-2.3,2.3v-2.6l2.3-2.3V157.2z
			 M215.9,153.8l-2.3,2.3v-2.6l2.3-2.3V153.8z M219.3,150.4l-2.3,2.3v-2.6l2.3-2.3V150.4z M222.6,147.1l-2.3,2.3v-2.6l2.3-2.3V147.1
			z M225.6,144.1l-1.9,1.9v-2.6l1.9-1.9V144.1z M187.5,133.5l-1.8,1.8h0.1l2.1-2.1C187.8,133.3,187.6,133.4,187.5,133.5z
			 M148.5,130.9c-0.3,1.8-1.4,3.4-2.8,4.4h11.7c2.7-0.2,5.1-1.3,7-3.2l1.2-1.2H148.5z"/>
		<path d="M147.5,127.2v2.7c0,0.4,0,0.7-0.1,1.1c-0.5,2.3-2.4,4.2-4.9,4.4h-25.8l0,0h-0.2c-1.6,0-2.6-1.6-2-3c0.2-0.4,0.5-0.7,0.8-1
			c0.4-0.2,0.8-0.4,1.2-0.4H142c0.1,0,0.1,0,0.2,0c0.5-0.1,0.9-0.5,0.9-1.1l0-2.7H147.5z"/>
		<path d="M142.5,135.3c-0.2,0-0.3,0-0.5,0h-25.4l0,0H142.5z"/>
		<g>
			<g>
				<path d="M183.3,121l-0.9,0.9c0,0,0,0,0,0c-0.2,0.1-0.3,0.2-0.5,0.4l-8.6,8.6l-4.4,4.4l-2.3,2.3c-0.1,0.1-0.3,0.3-0.4,0.4
					c0,0,0,0-0.1,0c0,0,0,0,0,0c0,0,0,0,0,0c0,0,0,0,0,0c-0.1,0.1-0.3,0.2-0.4,0.3c-0.2,0.1-0.3,0.2-0.5,0.3
					c-0.1,0.1-0.2,0.1-0.3,0.2c-0.1,0.1-0.2,0.1-0.3,0.2c0,0,0,0,0,0c0,0-0.1,0.1-0.1,0.1c-0.2,0.1-0.3,0.2-0.5,0.3
					c-0.2,0.1-0.3,0.2-0.5,0.2c-0.1,0.1-0.2,0.1-0.4,0.2c-0.2,0.1-0.4,0.1-0.6,0.2c-0.2,0.1-0.4,0.1-0.6,0.2c0,0,0,0,0,0
					c-0.2,0.1-0.4,0.1-0.6,0.2c-0.2,0-0.3,0.1-0.5,0.1c0,0-0.1,0-0.1,0c0,0,0,0,0,0c-0.2,0-0.3,0.1-0.5,0.1c-0.1,0-0.2,0-0.3,0
					c0,0,0,0,0,0h0c-0.2,0-0.3,0-0.5,0.1c-0.2,0-0.4,0-0.6,0c-0.2,0-0.4,0-0.6,0h-44.1c-0.1,0-0.1,0-0.2,0c0,0,0,0,0,0
					c0,0-0.1,0-0.1,0c-0.1,0-0.2,0-0.2,0c0,0-0.1,0-0.1,0c-0.1,0-0.2,0-0.2-0.1c-0.1,0-0.2-0.1-0.2-0.1c0,0,0,0-0.1,0
					c0,0-0.1-0.1-0.1-0.1c0,0-0.1-0.1-0.1-0.1c-0.1,0-0.1-0.1-0.2-0.1c0,0-0.1-0.1-0.1-0.1c0,0-0.1-0.1-0.1-0.1
					c0-0.1-0.1-0.1-0.1-0.2c0,0,0,0,0,0c0,0,0,0,0,0v0c0,0,0-0.1-0.1-0.1c0,0,0-0.1-0.1-0.1c0,0,0,0,0,0c0-0.1-0.1-0.2-0.1-0.2
					c0,0,0,0,0-0.1c0-0.1,0-0.1,0-0.2c0,0,0,0,0,0c0,0,0-0.1,0-0.1c0,0,0-0.1,0-0.2c0-0.3,0-0.6,0.2-0.8c0.2-0.4,0.5-0.7,0.8-1
					c0.4-0.2,0.8-0.4,1.2-0.4h42.6c0.2,0,0.4,0,0.6,0c0.2,0,0.4,0,0.6,0c0.2,0,0.4,0,0.6-0.1c0,0,0,0,0,0c0.1,0,0.3,0,0.4-0.1
					c0.1,0,0.2,0,0.3-0.1c0.1,0,0.2,0,0.3-0.1c0,0,0,0,0,0c0,0,0,0,0,0c0.1,0,0.1,0,0.2-0.1c0.1,0,0.2-0.1,0.3-0.1
					c0.1,0,0.2-0.1,0.3-0.1c0.1,0,0.2-0.1,0.4-0.1c0.4-0.1,0.7-0.3,1-0.4c0.4-0.2,0.8-0.4,1.2-0.6c0.1-0.1,0.3-0.2,0.4-0.3
					c0.1-0.1,0.3-0.2,0.4-0.3c0,0,0.1-0.1,0.1-0.1c0.1-0.1,0.2-0.2,0.3-0.2c0.1,0,0.1-0.1,0.2-0.1c0.1-0.1,0.3-0.2,0.4-0.3
					c0.1-0.1,0.3-0.3,0.4-0.4l2-2l13-13c0.4-0.4,1-0.6,1.5-0.6c0.8,0,1.6,0.4,2,1.2v0C184.1,119.4,183.9,120.4,183.3,121z"/>
				<path d="M182.3,122L169,135.3l-1.8,1.8c-0.1,0.1-0.2,0.2-0.3,0.3c-0.1,0.1-0.2,0.1-0.2,0.2c-0.1,0.1-0.2,0.2-0.3,0.2l0,0
					c0,0-0.1,0.1-0.1,0.1c0.1-0.1,0.3-0.2,0.4-0.4l2.3-2.3l4.4-4.4l8.6-8.6C182,122.2,182.2,122.1,182.3,122z"/>
				<path fill="#FFFFFF" d="M115.6,136.3l-0.1,0.1h0.9C116.2,136.4,115.9,136.4,115.6,136.3z M182.6,123.1l-7.8,7.8l-4.4,4.4
					l-3.1,3.1c-0.1,0.1-0.2,0.2-0.3,0.3c0.3-0.2,0.6-0.5,0.9-0.8l6.9-6.9l8.1-8.1C182.9,122.9,182.7,123,182.6,123.1z M166.1,138.1
					c-0.1,0.1-0.3,0.2-0.4,0.3c-0.2,0.1-0.3,0.2-0.5,0.3c-0.1,0.1-0.2,0.1-0.3,0.2c-0.1,0.1-0.2,0.1-0.3,0.2c0,0,0,0,0,0
					c0,0-0.1,0.1-0.1,0.1c-0.2,0.1-0.3,0.2-0.5,0.3c-0.2,0.1-0.3,0.2-0.5,0.2c-0.1,0.1-0.2,0.1-0.4,0.2c-0.2,0.1-0.4,0.1-0.6,0.2
					c-0.2,0.1-0.4,0.1-0.6,0.2c0,0,0,0,0,0c-0.2,0.1-0.4,0.1-0.6,0.2c-0.2,0-0.3,0.1-0.5,0.1c0,0-0.1,0-0.1,0c0,0,0,0,0,0
					c-0.2,0-0.3,0.1-0.5,0.1c-0.1,0-0.2,0-0.3,0c0,0,0,0,0,0h0c-0.2,0-0.3,0-0.5,0.1c-0.2,0-0.4,0-0.6,0c-0.2,0-0.4,0-0.6,0h0.6
					C161.6,140.8,164.1,139.8,166.1,138.1C166.1,138.1,166.1,138.1,166.1,138.1z"/>
			</g>
			<g>
				<path d="M186.4,124.7c0,0.6-0.2,1.1-0.6,1.5l-0.9,0.9c-0.2,0.1-0.3,0.2-0.5,0.4l-3.4,3.4l-4.4,4.4l-7.7,7.7
					c-0.1,0.1-0.3,0.3-0.4,0.4c0,0,0,0-0.1,0c0,0,0,0,0,0c0,0,0,0,0,0c0,0,0,0,0,0c0,0,0,0,0,0c0,0-0.1,0.1-0.1,0.1
					c-0.1,0.1-0.2,0.1-0.3,0.2c-0.2,0.1-0.3,0.2-0.5,0.3c-0.1,0.1-0.2,0.1-0.3,0.2c-0.1,0.1-0.2,0.1-0.3,0.2c0,0,0,0,0,0
					c0,0,0,0,0,0c0,0-0.1,0.1-0.1,0.1c-0.2,0.1-0.3,0.2-0.5,0.3c-0.2,0.1-0.3,0.2-0.5,0.2c-0.1,0.1-0.2,0.1-0.4,0.2
					c-0.2,0.1-0.4,0.1-0.6,0.2c-0.2,0.1-0.4,0.1-0.6,0.2c0,0,0,0,0,0c-0.2,0.1-0.4,0.1-0.6,0.2c-0.2,0-0.3,0.1-0.5,0.1
					c0,0-0.1,0-0.1,0c0,0,0,0,0,0c-0.2,0-0.3,0.1-0.5,0.1c-0.1,0-0.2,0-0.3,0c0,0,0,0,0,0h0c-0.2,0-0.3,0-0.5,0.1
					c-0.2,0-0.4,0-0.6,0c-0.2,0-0.4,0-0.6,0h-48.6c-1.6,0-2.6-1.6-2-3c0.3-0.8,1.1-1.3,2-1.3h47c0.2,0,0.4,0,0.6,0
					c0.2,0,0.4,0,0.6,0c0.2,0,0.4,0,0.6-0.1c0.2,0,0.3,0,0.5-0.1c0.1,0,0.2,0,0.2,0c0.1,0,0.2,0,0.4-0.1c0.1,0,0.3-0.1,0.4-0.1
					c0.1,0,0.2-0.1,0.3-0.1c0,0,0,0,0,0c0.1,0,0.3-0.1,0.4-0.1c0,0,0,0,0.1,0c0.1,0,0.3-0.1,0.4-0.1c0.1,0,0.2-0.1,0.3-0.1l0,0
					c0,0,0,0,0.1,0c0,0,0,0,0.1,0c0,0,0,0,0,0c0.1,0,0.2-0.1,0.3-0.2c0.2-0.1,0.3-0.2,0.5-0.2c0.6-0.3,1.2-0.8,1.8-1.2
					c0.1-0.1,0.2-0.2,0.3-0.3c0,0,0,0,0,0l0,0c0,0,0,0,0,0c0,0,0,0,0,0c0,0,0,0,0,0c0,0,0.1-0.1,0.1-0.1c0,0,0,0,0,0c0,0,0,0,0,0
					c0,0,0,0,0.1-0.1c0.3-0.2,0.6-0.5,0.9-0.8l6.9-6.9l8.1-8.1c0.1,0,0.1-0.1,0.2-0.1c0.1,0,0.1-0.1,0.2-0.1c0.1,0,0.1,0,0.2-0.1
					c0,0,0.1,0,0.1,0c0,0,0.1,0,0.1,0c0,0,0.1,0,0.1,0c0,0,0,0,0,0c0,0,0.1,0,0.1,0c0.1,0,0.1,0,0.2,0c0.8,0,1.6,0.4,2,1.3
					C186.3,124,186.4,124.4,186.4,124.7z"/>
				<path d="M168,137.9c-0.3,0.3-0.6,0.6-0.9,0.8c0.1-0.1,0.2-0.2,0.3-0.3l3.1-3.1l4.4-4.4l7.8-7.8c0.1-0.1,0.2-0.2,0.4-0.3
					l-8.1,8.1L168,137.9z"/>
				<path d="M184.8,127.2l-3.8,3.8l-4.4,4.4l-7.3,7.3c-0.1,0.1-0.2,0.2-0.3,0.3c-0.1,0.1-0.2,0.1-0.2,0.2c-0.1,0.1-0.2,0.2-0.3,0.2
					l0,0c0,0-0.1,0.1-0.1,0.1c0.1-0.1,0.3-0.2,0.4-0.4l7.7-7.7l4.4-4.4l3.4-3.4C184.5,127.4,184.6,127.3,184.8,127.2z"/>
				<path fill="#FFFFFF" d="M158.3,141.9h0.6c0.2,0,0.4,0,0.6,0c0.2,0,0.4,0,0.6,0c0.2,0,0.4,0,0.6-0.1c0.2,0,0.3,0,0.5-0.1
					c0.1,0,0.2,0,0.2,0c0.1,0,0.2,0,0.4-0.1c0.1,0,0.3-0.1,0.4-0.1c0.1,0,0.2-0.1,0.3-0.1c0,0,0,0,0,0c0.1,0,0.3-0.1,0.4-0.1
					c0,0,0,0,0.1,0c0.1,0,0.3-0.1,0.4-0.1c0.1,0,0.2-0.1,0.3-0.1l0,0c0,0,0,0,0.1,0c0,0,0,0,0.1,0c0,0,0,0,0,0
					c0.1,0,0.2-0.1,0.3-0.2c0.2-0.1,0.3-0.2,0.5-0.2c0.6-0.3,1.2-0.8,1.8-1.2c0.1-0.1,0.2-0.2,0.3-0.3
					C164.4,140.8,161.4,141.9,158.3,141.9z M181.9,122.4l-8.6,8.6l-4.4,4.4l-2.3,2.3c-0.1,0.1-0.3,0.3-0.4,0.4c0,0,0.1-0.1,0.1-0.1
					l0,0c0.1-0.1,0.2-0.1,0.3-0.2c0.1-0.1,0.2-0.1,0.2-0.2c0.1-0.1,0.2-0.2,0.3-0.3l1.8-1.8l13.3-13.3
					C182.2,122.1,182,122.2,181.9,122.4z M185.4,128.1c0,0-0.1,0-0.1,0.1c-0.1,0-0.1,0.1-0.2,0.2l-7,7l-8.5,8.5
					c-0.1,0.1-0.2,0.2-0.3,0.3c0.3-0.2,0.6-0.5,0.9-0.8l8-8l4.4-4.4l2.9-2.9C185.4,128,185.4,128.1,185.4,128.1z M167.9,143.9
					c-0.2,0.1-0.3,0.2-0.5,0.3c-0.1,0.1-0.2,0.1-0.3,0.2c-0.1,0.1-0.2,0.1-0.3,0.2c0,0,0,0,0,0c0,0,0,0,0,0c0,0-0.1,0.1-0.1,0.1
					c-0.2,0.1-0.3,0.2-0.5,0.3c-0.2,0.1-0.3,0.2-0.5,0.2c-0.1,0.1-0.2,0.1-0.4,0.2c-0.2,0.1-0.4,0.1-0.6,0.2
					c-0.2,0.1-0.4,0.1-0.6,0.2c0,0,0,0,0,0c-0.2,0.1-0.4,0.1-0.6,0.2c-0.2,0-0.3,0.1-0.5,0.1c0,0-0.1,0-0.1,0c0,0,0,0,0,0
					c-0.2,0-0.3,0.1-0.5,0.1c-0.1,0-0.2,0-0.3,0c0,0,0,0,0,0h0c-0.2,0-0.3,0-0.5,0.1c-0.2,0-0.4,0-0.6,0c-0.2,0-0.4,0-0.6,0h0.6
					c2.6,0,5.1-0.9,7.1-2.6C168.1,143.7,168,143.8,167.9,143.9z"/>
			</g>
			<g>
				<path d="M188.8,129.9c0,0.1,0,0.2,0,0.2c0,0,0,0.1,0,0.2c0,0.1,0,0.1,0,0.2c0,0,0,0,0,0c0,0.1-0.1,0.2-0.1,0.2c0,0,0,0,0,0
					c0,0.1-0.1,0.2-0.1,0.2c0,0.1-0.1,0.1-0.1,0.2c0,0,0,0,0,0c0,0,0,0,0,0c-0.1,0.1-0.1,0.1-0.2,0.2l-0.9,0.9c0,0,0,0,0,0
					c-0.2,0.1-0.3,0.3-0.5,0.4l-2.5,2.5L171,148.5c-0.1,0.1-0.3,0.3-0.4,0.4c0,0,0,0-0.1,0c0,0,0,0,0,0c0,0,0,0,0,0c0,0,0,0,0,0
					c0,0,0,0,0,0c0,0-0.1,0.1-0.1,0.1c-0.1,0.1-0.2,0.1-0.3,0.2c-0.2,0.1-0.3,0.2-0.5,0.3c-0.1,0.1-0.2,0.1-0.3,0.2
					c-0.1,0.1-0.2,0.1-0.3,0.2c0,0,0,0,0,0c0,0,0,0,0,0c0,0-0.1,0.1-0.1,0.1c-0.2,0.1-0.3,0.2-0.5,0.3c-0.2,0.1-0.3,0.2-0.5,0.2
					c-0.1,0.1-0.2,0.1-0.4,0.2c-0.2,0.1-0.4,0.1-0.6,0.2c-0.2,0.1-0.4,0.1-0.6,0.2c0,0,0,0,0,0c-0.2,0.1-0.4,0.1-0.6,0.2
					c-0.2,0-0.3,0.1-0.5,0.1c0,0-0.1,0-0.1,0c0,0,0,0,0,0c-0.2,0-0.3,0.1-0.5,0.1c-0.1,0-0.2,0-0.3,0c0,0,0,0,0,0h0
					c-0.2,0-0.3,0-0.5,0.1c-0.2,0-0.4,0-0.6,0c-0.2,0-0.4,0-0.6,0h-53.1c-1.6,0-2.6-1.6-2-3c0.2-0.4,0.5-0.7,0.8-1
					c0.3-0.2,0.8-0.4,1.2-0.4h51.5c0.2,0,0.4,0,0.6,0c0.2,0,0.4,0,0.6,0c0.2,0,0.4,0,0.6-0.1c0.2,0,0.3,0,0.5-0.1c0.1,0,0.2,0,0.2,0
					c0.1,0,0.2,0,0.4-0.1c0.1,0,0.3-0.1,0.4-0.1c0.1,0,0.2-0.1,0.3-0.1c0,0,0,0,0,0c0.1,0,0.3-0.1,0.4-0.1c0,0,0,0,0.1,0
					c0.1,0,0.3-0.1,0.4-0.1c0.1,0,0.2-0.1,0.3-0.1l0,0c0,0,0,0,0.1,0c0,0,0,0,0.1,0c0,0,0,0,0,0c0.1,0,0.2-0.1,0.3-0.2
					c0.2-0.1,0.3-0.2,0.5-0.2c0.6-0.3,1.2-0.8,1.8-1.2c0.1-0.1,0.2-0.2,0.3-0.3c0,0,0,0,0,0l0,0c0,0,0,0,0,0c0,0,0,0,0,0
					c0,0,0,0,0,0c0,0,0.1-0.1,0.1-0.1c0,0,0,0,0,0c0,0,0,0,0,0c0,0,0,0,0.1-0.1c0.3-0.2,0.6-0.5,0.9-0.8l8-8l4.4-4.4l2.9-2.9
					c0,0,0,0,0,0c0,0,0,0,0,0c0.1,0,0.2-0.1,0.2-0.1c0.1,0,0.2-0.1,0.3-0.1c0,0,0.1,0,0.1,0c0.1,0,0.1,0,0.2,0h0c0.1,0,0.2,0,0.3,0
					c0.4,0,0.8,0.1,1.1,0.3c0.2,0.1,0.3,0.2,0.5,0.4c0.1,0.2,0.3,0.3,0.4,0.5C188.7,129.2,188.8,129.6,188.8,129.9z"/>
				<path d="M178.2,135.3l-8,8c-0.3,0.3-0.6,0.6-0.9,0.8c0.1-0.1,0.2-0.2,0.3-0.3L178.2,135.3l6.9-7c0.1-0.1,0.1-0.1,0.2-0.2
					c0,0,0.1-0.1,0.1-0.1c0,0,0.1-0.1,0.1-0.1l-2.9,2.9L178.2,135.3z"/>
				<path d="M187.2,132.4l-2.9,2.9L171.6,148c-0.1,0.1-0.2,0.2-0.3,0.3c-0.1,0.1-0.2,0.1-0.2,0.2c-0.1,0.1-0.2,0.2-0.3,0.2l0,0
					c0,0-0.1,0.1-0.1,0.1c0.1-0.1,0.3-0.2,0.4-0.4l13.2-13.2l2.5-2.5C186.9,132.6,187.1,132.5,187.2,132.4z"/>
				<path fill="#FFFFFF" d="M160.5,147.3h0.6c0.2,0,0.4,0,0.6,0c0.2,0,0.4,0,0.6,0c0.2,0,0.4,0,0.6-0.1c0.2,0,0.3,0,0.5-0.1
					c0.1,0,0.2,0,0.2,0c0.1,0,0.2,0,0.4-0.1c0.1,0,0.3-0.1,0.4-0.1c0.1,0,0.2-0.1,0.3-0.1c0,0,0,0,0,0c0.1,0,0.3-0.1,0.4-0.1
					c0,0,0,0,0.1,0c0.1,0,0.3-0.1,0.4-0.1c0.1,0,0.2-0.1,0.3-0.1l0,0c0,0,0,0,0.1,0c0,0,0,0,0.1,0c0,0,0,0,0,0
					c0.1,0,0.2-0.1,0.3-0.2c0.2-0.1,0.3-0.2,0.5-0.2c0.6-0.3,1.2-0.8,1.8-1.2c0.1-0.1,0.2-0.2,0.3-0.3
					C166.6,146.3,163.6,147.3,160.5,147.3z M170.1,149.3c-0.2,0.1-0.3,0.2-0.5,0.3c-0.1,0.1-0.2,0.1-0.3,0.2
					c-0.1,0.1-0.2,0.1-0.3,0.2c0,0,0,0,0,0c0,0,0,0,0,0c0,0-0.1,0.1-0.1,0.1c-0.2,0.1-0.3,0.2-0.5,0.3c-0.2,0.1-0.3,0.2-0.5,0.2
					c-0.1,0.1-0.2,0.1-0.4,0.2c-0.2,0.1-0.4,0.1-0.6,0.2c-0.2,0.1-0.4,0.1-0.6,0.2c0,0,0,0,0,0c-0.2,0.1-0.4,0.1-0.6,0.2
					c-0.2,0-0.3,0.1-0.5,0.1c0,0-0.1,0-0.1,0c0,0,0,0,0,0c-0.2,0-0.3,0.1-0.5,0.1c-0.1,0-0.2,0-0.3,0c0,0,0,0,0,0h0
					c-0.2,0-0.3,0-0.5,0.1c-0.2,0-0.4,0-0.6,0c-0.2,0-0.4,0-0.6,0h0.6c2.6,0,5.1-0.9,7.1-2.6C170.2,149.2,170.2,149.3,170.1,149.3z
					 M187.5,133.5l-1.8,1.8l-14,14c-0.1,0.1-0.2,0.2-0.3,0.3c0.3-0.2,0.6-0.5,0.9-0.8l15.6-15.6
					C187.8,133.3,187.6,133.4,187.5,133.5z M184.3,127.6l-3.4,3.4l-4.4,4.4l-7.7,7.7c-0.1,0.1-0.3,0.3-0.4,0.4c0,0,0.1-0.1,0.1-0.1
					l0,0c0.1-0.1,0.2-0.1,0.3-0.2c0.1-0.1,0.2-0.1,0.2-0.2c0.1-0.1,0.2-0.2,0.3-0.3l7.3-7.3l4.4-4.4l3.8-3.8
					C184.6,127.3,184.5,127.4,184.3,127.6z"/>
			</g>
			<g>
				<path d="M191.3,135.1c0,0.1,0,0.1,0,0.2c0,0.1,0,0.1,0,0.2c0,0.1,0,0.1,0,0.2c0,0.1-0.1,0.3-0.2,0.4c0,0.1-0.1,0.1-0.1,0.2
					c0,0.1-0.1,0.1-0.1,0.2c0,0.1-0.1,0.1-0.1,0.2l-0.9,0.9c-0.2,0.1-0.3,0.2-0.5,0.4L173.2,154c-0.1,0.1-0.3,0.3-0.4,0.4
					c0,0,0,0-0.1,0c0,0,0,0,0,0c0,0,0,0,0,0c0,0,0,0,0,0c0,0,0,0,0,0c0,0-0.1,0.1-0.1,0.1c-0.1,0.1-0.2,0.1-0.3,0.2
					c-0.2,0.1-0.3,0.2-0.5,0.3c-0.1,0.1-0.2,0.1-0.3,0.2c-0.1,0.1-0.2,0.1-0.3,0.2c0,0,0,0,0,0c0,0,0,0,0,0c0,0-0.1,0.1-0.1,0.1
					c-0.2,0.1-0.3,0.2-0.5,0.3c-0.2,0.1-0.3,0.2-0.5,0.2c-0.1,0.1-0.2,0.1-0.4,0.2c-0.2,0.1-0.4,0.1-0.6,0.2
					c-0.2,0.1-0.4,0.1-0.6,0.2c0,0,0,0,0,0c-0.2,0.1-0.4,0.1-0.6,0.2c-0.2,0-0.3,0.1-0.5,0.1c0,0-0.1,0-0.1,0c0,0,0,0,0,0
					c-0.2,0-0.3,0.1-0.5,0.1c-0.1,0-0.2,0-0.3,0c0,0,0,0,0,0h0c-0.2,0-0.3,0-0.5,0.1c-0.2,0-0.4,0-0.6,0c-0.2,0-0.4,0-0.6,0h-57.6
					c-1.5,0-2.6-1.6-2-3c0.3-0.8,1.1-1.4,2-1.4h56c0.2,0,0.4,0,0.6,0c0.2,0,0.4,0,0.6,0c0.2,0,0.4,0,0.6-0.1c0.2,0,0.3,0,0.5-0.1
					c0.1,0,0.2,0,0.2,0c0.1,0,0.2,0,0.4-0.1c0.1,0,0.3-0.1,0.4-0.1c0.1,0,0.2-0.1,0.3-0.1c0,0,0,0,0,0c0.1,0,0.3-0.1,0.4-0.1
					c0,0,0,0,0.1,0c0.1,0,0.3-0.1,0.4-0.1c0.1,0,0.2-0.1,0.3-0.1l0,0c0,0,0,0,0.1,0c0,0,0,0,0.1,0c0,0,0,0,0,0
					c0.1,0,0.2-0.1,0.3-0.2c0.2-0.1,0.3-0.2,0.5-0.2c0.6-0.3,1.2-0.8,1.8-1.2c0.1-0.1,0.2-0.2,0.3-0.3c0,0,0,0,0,0l0,0c0,0,0,0,0,0
					c0,0,0,0,0,0c0,0,0,0,0,0c0,0,0.1-0.1,0.1-0.1c0,0,0,0,0,0c0,0,0,0,0,0c0,0,0,0,0.1-0.1c0.3-0.2,0.6-0.5,0.9-0.8l15.6-15.6
					c0,0,0,0,0,0c0,0,0,0,0.1,0c0,0,0.1-0.1,0.2-0.1c0,0,0.1,0,0.1,0c0,0,0.1,0,0.1,0c0,0,0.1,0,0.1,0c0,0,0.1,0,0.1,0
					c0,0,0.1,0,0.1,0c0,0,0,0,0,0c0,0,0.1,0,0.1,0c0.1,0,0.1,0,0.2,0c0.8,0,1.6,0.4,2,1.2C191.2,134.4,191.3,134.8,191.3,135.1z"/>
				<path d="M172.3,148.8c-0.3,0.3-0.6,0.6-0.9,0.8c0.1-0.1,0.2-0.2,0.3-0.3l14-14l1.8-1.8c0.1-0.1,0.2-0.2,0.4-0.3L172.3,148.8z"/>
				<path d="M189.7,137.5l-16,16c-0.1,0.1-0.2,0.2-0.3,0.3c-0.1,0.1-0.2,0.1-0.2,0.2c-0.1,0.1-0.2,0.2-0.3,0.2l0,0
					c0,0-0.1,0.1-0.1,0.1c0.1-0.1,0.3-0.2,0.4-0.4l16.1-16.1C189.4,137.8,189.5,137.7,189.7,137.5z"/>
				<path fill="#FFFFFF" d="M186.8,132.8l-2.5,2.5L171,148.5c-0.1,0.1-0.3,0.3-0.4,0.4c0,0,0.1-0.1,0.1-0.1l0,0
					c0.1-0.1,0.2-0.1,0.3-0.2c0.1-0.1,0.2-0.1,0.2-0.2c0.1-0.1,0.2-0.2,0.3-0.3l12.7-12.7l2.9-2.9
					C187.1,132.5,186.9,132.6,186.8,132.8z M190.3,138.4c0,0-0.1,0.1-0.1,0.1c0,0,0,0,0,0c-0.1,0-0.1,0.1-0.2,0.2L174,154.8
					c-0.1,0.1-0.2,0.2-0.3,0.3c0.3-0.2,0.6-0.5,0.9-0.8L190.3,138.4C190.4,138.4,190.4,138.4,190.3,138.4z M172.2,154.8
					c-0.2,0.1-0.3,0.2-0.5,0.3c-0.1,0.1-0.2,0.1-0.3,0.2c-0.1,0.1-0.2,0.1-0.3,0.2c0,0,0,0,0,0c0,0,0,0,0,0c0,0-0.1,0.1-0.1,0.1
					c-0.2,0.1-0.3,0.2-0.5,0.3c-0.2,0.1-0.3,0.2-0.5,0.2c-0.1,0.1-0.2,0.1-0.4,0.2c-0.2,0.1-0.4,0.1-0.6,0.2
					c-0.2,0.1-0.4,0.1-0.6,0.2c0,0,0,0,0,0c-0.2,0.1-0.4,0.1-0.6,0.2c-0.2,0-0.3,0.1-0.5,0.1c0,0-0.1,0-0.1,0c0,0,0,0,0,0
					c-0.2,0-0.3,0.1-0.5,0.1c-0.1,0-0.2,0-0.3,0c0,0,0,0,0,0h0c-0.2,0-0.3,0-0.5,0.1c-0.2,0-0.4,0-0.6,0c-0.2,0-0.4,0-0.6,0h0.6
					c2.6,0,5.1-0.9,7.1-2.6C172.4,154.6,172.3,154.7,172.2,154.8z M162.7,152.8h0.6c0.2,0,0.4,0,0.6,0c0.2,0,0.4,0,0.6,0
					c0.2,0,0.4,0,0.6-0.1c0.2,0,0.3,0,0.5-0.1c0.1,0,0.2,0,0.2,0c0.1,0,0.2,0,0.4-0.1c0.1,0,0.3-0.1,0.4-0.1c0.1,0,0.2-0.1,0.3-0.1
					c0,0,0,0,0,0c0.1,0,0.3-0.1,0.4-0.1c0,0,0,0,0.1,0c0.1,0,0.3-0.1,0.4-0.1c0.1,0,0.2-0.1,0.3-0.1l0,0c0,0,0,0,0.1,0
					c0,0,0,0,0.1,0c0,0,0,0,0,0c0.1,0,0.2-0.1,0.3-0.2c0.2-0.1,0.3-0.2,0.5-0.2c0.6-0.3,1.2-0.8,1.8-1.2c0.1-0.1,0.2-0.2,0.3-0.3
					C168.7,151.8,165.8,152.8,162.7,152.8z"/>
			</g>
			<g>
				<path d="M193.7,140.2c0,0.6-0.2,1.1-0.6,1.5L175.9,159c-2.4,2.4-5.6,3.7-8.9,3.7h-62.1c-1.5,0-2.6-1.5-2-3
					c0.2-0.4,0.4-0.8,0.8-1c0.4-0.2,0.8-0.4,1.2-0.4h60.5c0.2,0,0.4,0,0.6,0c0.2,0,0.4,0,0.6,0c0.2,0,0.4,0,0.6-0.1
					c0.2,0,0.3,0,0.5-0.1c0.1,0,0.2,0,0.2,0c0.1,0,0.2,0,0.4-0.1c0.1,0,0.3-0.1,0.4-0.1c0.1,0,0.2-0.1,0.3-0.1c0,0,0,0,0,0
					c0.1,0,0.3-0.1,0.4-0.1c0,0,0,0,0.1,0c0.1,0,0.3-0.1,0.4-0.1c0.1,0,0.2-0.1,0.3-0.1l0,0c0,0,0,0,0.1,0c0,0,0,0,0.1,0
					c0,0,0,0,0,0c0.1,0,0.2-0.1,0.3-0.2c0.2-0.1,0.3-0.2,0.5-0.2c0.6-0.3,1.2-0.8,1.8-1.2c0.1-0.1,0.2-0.2,0.3-0.3c0,0,0,0,0,0l0,0
					c0,0,0,0,0,0c0,0,0,0,0,0c0,0,0,0,0,0c0,0,0.1-0.1,0.1-0.1c0,0,0,0,0,0c0,0,0,0,0,0c0,0,0,0,0.1-0.1c0.1-0.1,0.2-0.2,0.3-0.3
					l16.1-16.1c0.1-0.1,0.1-0.1,0.2-0.2c0,0,0,0,0,0c0,0,0.1-0.1,0.1-0.1c0,0,0,0,0.1,0c0,0,0.1,0,0.1-0.1c0,0,0.1,0,0.1,0
					c0,0,0,0,0,0c0,0,0,0,0,0c0,0,0.1,0,0.1,0c0.1,0,0.2-0.1,0.2-0.1c0,0,0.1,0,0.1,0c0,0,0.1,0,0.1,0c0,0,0,0,0,0h0
					c0.1,0,0.2,0,0.3,0h0c0.1,0,0.2,0,0.3,0c0.1,0,0.2,0,0.3,0c0,0,0,0,0,0c0,0,0,0,0,0c0,0,0,0,0,0c0.1,0,0.2,0.1,0.2,0.1
					c0.1,0,0.2,0.1,0.3,0.1c0.1,0.1,0.2,0.1,0.3,0.2c0.1,0.1,0.2,0.1,0.2,0.2c0.1,0.1,0.1,0.2,0.2,0.3c0.1,0.1,0.1,0.2,0.2,0.3
					C193.7,139.6,193.7,139.9,193.7,140.2z"/>
				<path fill="#FFFFFF" d="M164.9,158.3h0.6c0.2,0,0.4,0,0.6,0c0.2,0,0.4,0,0.6,0c0.2,0,0.4,0,0.6-0.1c0.2,0,0.3,0,0.5-0.1
					c0.1,0,0.2,0,0.2,0c0.1,0,0.2,0,0.4-0.1c0.1,0,0.3-0.1,0.4-0.1c0.1,0,0.2-0.1,0.3-0.1c0,0,0,0,0,0c0.1,0,0.3-0.1,0.4-0.1
					c0,0,0,0,0.1,0c0.1,0,0.3-0.1,0.4-0.1c0.1,0,0.2-0.1,0.3-0.1l0,0c0,0,0,0,0.1,0c0,0,0,0,0.1,0c0,0,0,0,0,0
					c0.1,0,0.2-0.1,0.3-0.2c0.2-0.1,0.3-0.2,0.5-0.2c0.6-0.3,1.2-0.8,1.8-1.2c0.1-0.1,0.2-0.2,0.3-0.3
					C170.9,157.2,168,158.3,164.9,158.3z M189.2,137.9L173.2,154c-0.1,0.1-0.3,0.3-0.4,0.4c0,0,0.1-0.1,0.1-0.1l0,0
					c0.1-0.1,0.2-0.1,0.3-0.2c0.1-0.1,0.2-0.1,0.2-0.2c0.1-0.1,0.2-0.2,0.3-0.3l16-16C189.5,137.7,189.4,137.8,189.2,137.9z"/>
			</g>
		</g>
		<path d="M170.3,44.7v-0.5h-35.8l-13.2,13.1l0.1,0.1v54h12.4l-0.1,0l5.6,13.1c2.5,1.6,9.4,1.6,11.8,0l5.6-13l-0.2-0.1h3l10.9-10.9
			v-56L170.3,44.7z M166.2,90.7l-6.6,6.6v-5.7l6.6-6.6V90.7z M166.2,61.6l-6.6,6.6v-6.5l6.6-6.6V61.6z M166.2,83.5l-6.6,6.6v-5.7
			l6.6-6.6V83.5z M166.2,76.2l-6.6,6.6V77l6.6-6.6V76.2z M166.2,68.9l-6.6,6.6v-5.7l6.6-6.6V68.9z M143.2,57.3l8.7-8.7h5.9l-8.7,8.7
			H143.2z M135.7,57.3l8.7-8.7h5.9l-8.7,8.7H135.7z M136.3,48.5h6.7l-8.7,8.7h-6.7L136.3,48.5z M147.8,121.1
			c-0.7,0.1-1.7,0.2-2.6,0.2c-0.9,0-1.9-0.1-2.6-0.2l-4.2-9.7h13.7L147.8,121.1z M155.2,107h-29.5V61.6h29.5V107z M150.6,57.3
			l8.7-8.7h7.1l-8.6,8.7H150.6z M159.6,105.2v-6.3l6.6-6.6v6.3L159.6,105.2z"/>
	</g>
</g>
</svg>
