<?xml version="1.0" encoding="utf-8"?>
<!-- Generator: Adobe Illustrator 18.0.0, SVG Export Plug-In . SVG Version: 6.00 Build 0)  -->
<!DOCTYPE svg PUBLIC "-//W3C//DTD SVG 1.1//EN" "http://www.w3.org/Graphics/SVG/1.1/DTD/svg11.dtd">
<svg version="1.1" xmlns="http://www.w3.org/2000/svg" xmlns:xlink="http://www.w3.org/1999/xlink" x="0px" y="0px"
	 viewBox="0 0 300 300" enable-background="new 0 0 300 300" xml:space="preserve">
<g id="Layer_1" display="none">
</g>
<g id="Layer_2">
	<circle fill="#5BFDD1" stroke="#000000" stroke-width="8" stroke-miterlimit="10" cx="150" cy="151.4" r="140"/>
	<rect x="22" y="211.5" fill="#D9D7D7" stroke="#000000" stroke-width="8" stroke-miterlimit="10" width="256" height="56"/>
	<text transform="matrix(1 0 0 1 42.6616 249.3457)" font-family="'Asap-Bold'" font-size="26" letter-spacing="3">INTERMEDIATE</text>
	<g>
		<g>
			<g>
				<line fill="none" stroke="#000000" stroke-width="0.7542" stroke-miterlimit="10" x1="108.3" y1="119.6" x2="150" y2="95.6"/>
				<line fill="none" stroke="#000000" stroke-width="0.7542" stroke-miterlimit="10" x1="108.3" y1="122.6" x2="150" y2="98.5"/>
				<line fill="none" stroke="#000000" stroke-width="0.7542" stroke-miterlimit="10" x1="108.3" y1="125.5" x2="150" y2="101.4"/>
				<line fill="none" stroke="#000000" stroke-width="0.7542" stroke-miterlimit="10" x1="108.3" y1="128.4" x2="150" y2="104.3"/>
				<line fill="none" stroke="#000000" stroke-width="0.7542" stroke-miterlimit="10" x1="108.3" y1="131.3" x2="150" y2="107.3"/>
				<line fill="none" stroke="#000000" stroke-width="0.7542" stroke-miterlimit="10" x1="108.3" y1="134.2" x2="150" y2="110.2"/>
				<line fill="none" stroke="#000000" stroke-width="0.7542" stroke-miterlimit="10" x1="108.3" y1="137.2" x2="150" y2="113.1"/>
				<line fill="none" stroke="#000000" stroke-width="0.7542" stroke-miterlimit="10" x1="108.3" y1="140.1" x2="150" y2="116"/>
				<line fill="none" stroke="#000000" stroke-width="0.7542" stroke-miterlimit="10" x1="108.3" y1="143" x2="150" y2="119"/>
				<line fill="none" stroke="#000000" stroke-width="0.7542" stroke-miterlimit="10" x1="108.3" y1="145.9" x2="150" y2="121.9"/>
				<line fill="none" stroke="#000000" stroke-width="0.7542" stroke-miterlimit="10" x1="108.3" y1="148.9" x2="150" y2="124.8"/>
				<line fill="none" stroke="#000000" stroke-width="0.7542" stroke-miterlimit="10" x1="108.3" y1="151.8" x2="150" y2="127.7"/>
				<line fill="none" stroke="#000000" stroke-width="0.7542" stroke-miterlimit="10" x1="108.3" y1="154.7" x2="150" y2="130.6"/>
				<line fill="none" stroke="#000000" stroke-width="0.7542" stroke-miterlimit="10" x1="108.3" y1="157.6" x2="150" y2="133.6"/>
				<line fill="none" stroke="#000000" stroke-width="0.7542" stroke-miterlimit="10" x1="108.3" y1="160.5" x2="150" y2="136.5"/>
				<line fill="none" stroke="#000000" stroke-width="0.7542" stroke-miterlimit="10" x1="108.3" y1="163.5" x2="150" y2="139.4"/>
				<line fill="none" stroke="#000000" stroke-width="0.7542" stroke-miterlimit="10" x1="108.3" y1="166.4" x2="150" y2="142.3"/>
			</g>
			<g>
				<line fill="none" stroke="#000000" stroke-width="0.7542" stroke-miterlimit="10" x1="108.3" y1="119.6" x2="66.7" y2="95.6"/>
				<line fill="none" stroke="#000000" stroke-width="0.7542" stroke-miterlimit="10" x1="108.3" y1="122.6" x2="66.7" y2="98.5"/>
				<line fill="none" stroke="#000000" stroke-width="0.7542" stroke-miterlimit="10" x1="108.3" y1="125.5" x2="66.7" y2="101.4"/>
				<line fill="none" stroke="#000000" stroke-width="0.7542" stroke-miterlimit="10" x1="108.3" y1="128.4" x2="66.7" y2="104.3"/>
				<line fill="none" stroke="#000000" stroke-width="0.7542" stroke-miterlimit="10" x1="108.3" y1="131.3" x2="66.7" y2="107.3"/>
				<line fill="none" stroke="#000000" stroke-width="0.7542" stroke-miterlimit="10" x1="108.3" y1="134.2" x2="66.7" y2="110.2"/>
				<line fill="none" stroke="#000000" stroke-width="0.7542" stroke-miterlimit="10" x1="108.3" y1="137.2" x2="66.7" y2="113.1"/>
				<line fill="none" stroke="#000000" stroke-width="0.7542" stroke-miterlimit="10" x1="108.3" y1="140.1" x2="66.7" y2="116"/>
				<line fill="none" stroke="#000000" stroke-width="0.7542" stroke-miterlimit="10" x1="108.3" y1="143" x2="66.7" y2="119"/>
				<line fill="none" stroke="#000000" stroke-width="0.7542" stroke-miterlimit="10" x1="108.3" y1="145.9" x2="66.7" y2="121.9"/>
				<line fill="none" stroke="#000000" stroke-width="0.7542" stroke-miterlimit="10" x1="108.3" y1="148.9" x2="66.7" y2="124.8"/>
				<line fill="none" stroke="#000000" stroke-width="0.7542" stroke-miterlimit="10" x1="108.3" y1="151.8" x2="66.7" y2="127.7"/>
				<line fill="none" stroke="#000000" stroke-width="0.7542" stroke-miterlimit="10" x1="108.3" y1="154.7" x2="66.7" y2="130.6"/>
				<line fill="none" stroke="#000000" stroke-width="0.7542" stroke-miterlimit="10" x1="108.3" y1="157.6" x2="66.7" y2="133.6"/>
				<line fill="none" stroke="#000000" stroke-width="0.7542" stroke-miterlimit="10" x1="108.3" y1="160.5" x2="66.7" y2="136.5"/>
				<line fill="none" stroke="#000000" stroke-width="0.7542" stroke-miterlimit="10" x1="108.3" y1="163.5" x2="66.7" y2="139.4"/>
				<line fill="none" stroke="#000000" stroke-width="0.7542" stroke-miterlimit="10" x1="108.3" y1="166.4" x2="66.7" y2="142.3"/>
			</g>
			<path fill="none" stroke="#000000" stroke-width="3.7711" stroke-miterlimit="10" d="M150,95.4c0-0.6-0.3-1.1-0.8-1.4l-40.1-23.1
				c-0.5-0.3-1.1-0.3-1.6,0L67.5,94c-0.5,0.3-0.8,0.8-0.8,1.4v47.3c0,0.6,0.3,1.1,0.8,1.4l40.1,23.1c0.5,0.3,1.1,0.3,1.6,0"/>
			<line fill="none" stroke="#000000" stroke-width="3.7711" stroke-miterlimit="10" x1="108.3" y1="167.7" x2="108.3" y2="118.5"/>
			<path fill="none" stroke="#000000" stroke-width="3.7711" stroke-miterlimit="10" d="M66.7,94.5l40.9,23.6c0.5,0.3,1.1,0.3,1.6,0
				L150,94.5"/>
			<g>
				<line fill="none" stroke="#000000" stroke-width="0.7542" stroke-miterlimit="10" x1="107.5" y1="71" x2="149.1" y2="95.1"/>
				<line fill="none" stroke="#000000" stroke-width="0.7542" stroke-miterlimit="10" x1="105" y1="72.5" x2="146.6" y2="96.5"/>
				<line fill="none" stroke="#000000" stroke-width="0.7542" stroke-miterlimit="10" x1="102.5" y1="73.9" x2="144.2" y2="98"/>
				<line fill="none" stroke="#000000" stroke-width="0.7542" stroke-miterlimit="10" x1="100.1" y1="75.4" x2="141.7" y2="99.4"/>
				<line fill="none" stroke="#000000" stroke-width="0.7542" stroke-miterlimit="10" x1="97.6" y1="76.8" x2="139.2" y2="100.9"/>
				<line fill="none" stroke="#000000" stroke-width="0.7542" stroke-miterlimit="10" x1="95.1" y1="78.3" x2="136.8" y2="102.3"/>
				<line fill="none" stroke="#000000" stroke-width="0.7542" stroke-miterlimit="10" x1="92.6" y1="79.7" x2="134.3" y2="103.8"/>
				<line fill="none" stroke="#000000" stroke-width="0.7542" stroke-miterlimit="10" x1="90.2" y1="81.2" x2="131.8" y2="105.2"/>
				<line fill="none" stroke="#000000" stroke-width="0.7542" stroke-miterlimit="10" x1="87.7" y1="82.6" x2="129.4" y2="106.7"/>
				<line fill="none" stroke="#000000" stroke-width="0.7542" stroke-miterlimit="10" x1="85.2" y1="84.1" x2="126.9" y2="108.1"/>
				<line fill="none" stroke="#000000" stroke-width="0.7542" stroke-miterlimit="10" x1="82.8" y1="85.5" x2="124.4" y2="109.6"/>
				<line fill="none" stroke="#000000" stroke-width="0.7542" stroke-miterlimit="10" x1="80.3" y1="87" x2="122" y2="111"/>
				<line fill="none" stroke="#000000" stroke-width="0.7542" stroke-miterlimit="10" x1="77.8" y1="88.4" x2="119.5" y2="112.5"/>
				<line fill="none" stroke="#000000" stroke-width="0.7542" stroke-miterlimit="10" x1="75.4" y1="89.9" x2="117" y2="113.9"/>
				<line fill="none" stroke="#000000" stroke-width="0.7542" stroke-miterlimit="10" x1="72.9" y1="91.3" x2="114.6" y2="115.4"/>
				<line fill="none" stroke="#000000" stroke-width="0.7542" stroke-miterlimit="10" x1="70.4" y1="92.8" x2="112.1" y2="116.9"/>
				<line fill="none" stroke="#000000" stroke-width="0.7542" stroke-miterlimit="10" x1="68" y1="94.2" x2="109.6" y2="118.3"/>
			</g>
		</g>
		<g>
			<g>
				<line fill="none" stroke="#000000" stroke-width="0.7542" stroke-miterlimit="10" x1="150" y1="143.6" x2="191.7" y2="119.5"/>
				<line fill="none" stroke="#000000" stroke-width="0.7542" stroke-miterlimit="10" x1="150" y1="146.5" x2="191.7" y2="122.4"/>
				<line fill="none" stroke="#000000" stroke-width="0.7542" stroke-miterlimit="10" x1="150" y1="149.4" x2="191.7" y2="125.4"/>
				<line fill="none" stroke="#000000" stroke-width="0.7542" stroke-miterlimit="10" x1="150" y1="152.3" x2="191.7" y2="128.3"/>
				<line fill="none" stroke="#000000" stroke-width="0.7542" stroke-miterlimit="10" x1="150" y1="155.3" x2="191.7" y2="131.2"/>
				<line fill="none" stroke="#000000" stroke-width="0.7542" stroke-miterlimit="10" x1="150" y1="158.2" x2="191.7" y2="134.1"/>
				<line fill="none" stroke="#000000" stroke-width="0.7542" stroke-miterlimit="10" x1="150" y1="161.1" x2="191.7" y2="137"/>
				<line fill="none" stroke="#000000" stroke-width="0.7542" stroke-miterlimit="10" x1="150" y1="164" x2="191.7" y2="140"/>
				<line fill="none" stroke="#000000" stroke-width="0.7542" stroke-miterlimit="10" x1="150" y1="166.9" x2="191.7" y2="142.9"/>
				<line fill="none" stroke="#000000" stroke-width="0.7542" stroke-miterlimit="10" x1="150" y1="169.9" x2="191.7" y2="145.8"/>
				<line fill="none" stroke="#000000" stroke-width="0.7542" stroke-miterlimit="10" x1="150" y1="172.8" x2="191.7" y2="148.7"/>
				<line fill="none" stroke="#000000" stroke-width="0.7542" stroke-miterlimit="10" x1="150" y1="175.7" x2="191.7" y2="151.7"/>
				<line fill="none" stroke="#000000" stroke-width="0.7542" stroke-miterlimit="10" x1="150" y1="178.6" x2="191.7" y2="154.6"/>
				<line fill="none" stroke="#000000" stroke-width="0.7542" stroke-miterlimit="10" x1="150" y1="181.6" x2="191.7" y2="157.5"/>
				<line fill="none" stroke="#000000" stroke-width="0.7542" stroke-miterlimit="10" x1="150" y1="184.5" x2="191.7" y2="160.4"/>
				<line fill="none" stroke="#000000" stroke-width="0.7542" stroke-miterlimit="10" x1="150" y1="187.4" x2="191.7" y2="163.3"/>
				<line fill="none" stroke="#000000" stroke-width="0.7542" stroke-miterlimit="10" x1="150" y1="190.3" x2="191.7" y2="166.3"/>
			</g>
			<g>
				<line fill="none" stroke="#000000" stroke-width="0.7542" stroke-miterlimit="10" x1="150" y1="143.6" x2="108.3" y2="119.5"/>
				<line fill="none" stroke="#000000" stroke-width="0.7542" stroke-miterlimit="10" x1="150" y1="146.5" x2="108.3" y2="122.4"/>
				<line fill="none" stroke="#000000" stroke-width="0.7542" stroke-miterlimit="10" x1="150" y1="149.4" x2="108.3" y2="125.4"/>
				<line fill="none" stroke="#000000" stroke-width="0.7542" stroke-miterlimit="10" x1="150" y1="152.3" x2="108.3" y2="128.3"/>
				<line fill="none" stroke="#000000" stroke-width="0.7542" stroke-miterlimit="10" x1="150" y1="155.3" x2="108.3" y2="131.2"/>
				<line fill="none" stroke="#000000" stroke-width="0.7542" stroke-miterlimit="10" x1="150" y1="158.2" x2="108.3" y2="134.1"/>
				<line fill="none" stroke="#000000" stroke-width="0.7542" stroke-miterlimit="10" x1="150" y1="161.1" x2="108.3" y2="137"/>
				<line fill="none" stroke="#000000" stroke-width="0.7542" stroke-miterlimit="10" x1="150" y1="164" x2="108.3" y2="140"/>
				<line fill="none" stroke="#000000" stroke-width="0.7542" stroke-miterlimit="10" x1="150" y1="166.9" x2="108.3" y2="142.9"/>
				<line fill="none" stroke="#000000" stroke-width="0.7542" stroke-miterlimit="10" x1="150" y1="169.9" x2="108.3" y2="145.8"/>
				<line fill="none" stroke="#000000" stroke-width="0.7542" stroke-miterlimit="10" x1="150" y1="172.8" x2="108.3" y2="148.7"/>
				<line fill="none" stroke="#000000" stroke-width="0.7542" stroke-miterlimit="10" x1="150" y1="175.7" x2="108.3" y2="151.7"/>
				<line fill="none" stroke="#000000" stroke-width="0.7542" stroke-miterlimit="10" x1="150" y1="178.6" x2="108.3" y2="154.6"/>
				<line fill="none" stroke="#000000" stroke-width="0.7542" stroke-miterlimit="10" x1="150" y1="181.6" x2="108.3" y2="157.5"/>
				<line fill="none" stroke="#000000" stroke-width="0.7542" stroke-miterlimit="10" x1="150" y1="184.5" x2="108.3" y2="160.4"/>
				<line fill="none" stroke="#000000" stroke-width="0.7542" stroke-miterlimit="10" x1="150" y1="187.4" x2="108.3" y2="163.3"/>
				<line fill="none" stroke="#000000" stroke-width="0.7542" stroke-miterlimit="10" x1="150" y1="190.3" x2="108.3" y2="166.3"/>
			</g>
			<path fill="none" stroke="#000000" stroke-width="3.7711" stroke-miterlimit="10" d="M191.7,166.7v-47.3c0-0.6-0.3-1.1-0.8-1.4
				l-40.1-23.1c-0.5-0.3-1.1-0.3-1.6,0L109.1,118c-0.5,0.3-0.8,0.8-0.8,1.4v47.3c0,0.6,0.3,1.1,0.8,1.4l40.1,23.1
				c0.5,0.3,1.1,0.3,1.6,0l40.1-23.1C191.4,167.7,191.7,167.2,191.7,166.7z"/>
			<line fill="none" stroke="#000000" stroke-width="3.7711" stroke-miterlimit="10" x1="150" y1="191.6" x2="150" y2="142.5"/>
			<path fill="none" stroke="#000000" stroke-width="3.7711" stroke-miterlimit="10" d="M108.3,118.4l40.9,23.6
				c0.5,0.3,1.1,0.3,1.6,0l40.9-23.6"/>
			<g>
				<line fill="none" stroke="#000000" stroke-width="0.7542" stroke-miterlimit="10" x1="149.1" y1="95" x2="190.8" y2="119"/>
				<line fill="none" stroke="#000000" stroke-width="0.7542" stroke-miterlimit="10" x1="146.7" y1="96.4" x2="188.3" y2="120.5"/>
				<line fill="none" stroke="#000000" stroke-width="0.7542" stroke-miterlimit="10" x1="144.2" y1="97.9" x2="185.8" y2="121.9"/>
				<line fill="none" stroke="#000000" stroke-width="0.7542" stroke-miterlimit="10" x1="141.7" y1="99.3" x2="183.4" y2="123.4"/>
				
					<line fill="none" stroke="#000000" stroke-width="0.7542" stroke-miterlimit="10" x1="139.2" y1="100.8" x2="180.9" y2="124.8"/>
				
					<line fill="none" stroke="#000000" stroke-width="0.7542" stroke-miterlimit="10" x1="136.8" y1="102.2" x2="178.4" y2="126.3"/>
				<line fill="none" stroke="#000000" stroke-width="0.7542" stroke-miterlimit="10" x1="134.3" y1="103.7" x2="176" y2="127.7"/>
				
					<line fill="none" stroke="#000000" stroke-width="0.7542" stroke-miterlimit="10" x1="131.8" y1="105.1" x2="173.5" y2="129.2"/>
				<line fill="none" stroke="#000000" stroke-width="0.7542" stroke-miterlimit="10" x1="129.4" y1="106.6" x2="171" y2="130.6"/>
				<line fill="none" stroke="#000000" stroke-width="0.7542" stroke-miterlimit="10" x1="126.9" y1="108" x2="168.6" y2="132.1"/>
				
					<line fill="none" stroke="#000000" stroke-width="0.7542" stroke-miterlimit="10" x1="124.4" y1="109.5" x2="166.1" y2="133.5"/>
				<line fill="none" stroke="#000000" stroke-width="0.7542" stroke-miterlimit="10" x1="122" y1="110.9" x2="163.6" y2="135"/>
				
					<line fill="none" stroke="#000000" stroke-width="0.7542" stroke-miterlimit="10" x1="119.5" y1="112.4" x2="161.2" y2="136.4"/>
				<line fill="none" stroke="#000000" stroke-width="0.7542" stroke-miterlimit="10" x1="117" y1="113.8" x2="158.7" y2="137.9"/>
				
					<line fill="none" stroke="#000000" stroke-width="0.7542" stroke-miterlimit="10" x1="114.6" y1="115.3" x2="156.2" y2="139.3"/>
				
					<line fill="none" stroke="#000000" stroke-width="0.7542" stroke-miterlimit="10" x1="112.1" y1="116.7" x2="153.8" y2="140.8"/>
				
					<line fill="none" stroke="#000000" stroke-width="0.7542" stroke-miterlimit="10" x1="109.6" y1="118.2" x2="151.3" y2="142.2"/>
			</g>
		</g>
		<g>
			<g>
				<line fill="none" stroke="#000000" stroke-width="0.7542" stroke-miterlimit="10" x1="191.7" y1="119.5" x2="233.3" y2="95.4"/>
				<line fill="none" stroke="#000000" stroke-width="0.7542" stroke-miterlimit="10" x1="191.7" y1="122.4" x2="233.3" y2="98.3"/>
				
					<line fill="none" stroke="#000000" stroke-width="0.7542" stroke-miterlimit="10" x1="191.7" y1="125.3" x2="233.3" y2="101.2"/>
				
					<line fill="none" stroke="#000000" stroke-width="0.7542" stroke-miterlimit="10" x1="191.7" y1="128.2" x2="233.3" y2="104.2"/>
				
					<line fill="none" stroke="#000000" stroke-width="0.7542" stroke-miterlimit="10" x1="191.7" y1="131.1" x2="233.3" y2="107.1"/>
				<line fill="none" stroke="#000000" stroke-width="0.7542" stroke-miterlimit="10" x1="191.7" y1="134.1" x2="233.3" y2="110"/>
				<line fill="none" stroke="#000000" stroke-width="0.7542" stroke-miterlimit="10" x1="191.7" y1="137" x2="233.3" y2="112.9"/>
				
					<line fill="none" stroke="#000000" stroke-width="0.7542" stroke-miterlimit="10" x1="191.7" y1="139.9" x2="233.3" y2="115.9"/>
				
					<line fill="none" stroke="#000000" stroke-width="0.7542" stroke-miterlimit="10" x1="191.7" y1="142.8" x2="233.3" y2="118.8"/>
				
					<line fill="none" stroke="#000000" stroke-width="0.7542" stroke-miterlimit="10" x1="191.7" y1="145.8" x2="233.3" y2="121.7"/>
				
					<line fill="none" stroke="#000000" stroke-width="0.7542" stroke-miterlimit="10" x1="191.7" y1="148.7" x2="233.3" y2="124.6"/>
				
					<line fill="none" stroke="#000000" stroke-width="0.7542" stroke-miterlimit="10" x1="191.7" y1="151.6" x2="233.3" y2="127.5"/>
				
					<line fill="none" stroke="#000000" stroke-width="0.7542" stroke-miterlimit="10" x1="191.7" y1="154.5" x2="233.3" y2="130.5"/>
				
					<line fill="none" stroke="#000000" stroke-width="0.7542" stroke-miterlimit="10" x1="191.7" y1="157.4" x2="233.3" y2="133.4"/>
				
					<line fill="none" stroke="#000000" stroke-width="0.7542" stroke-miterlimit="10" x1="191.7" y1="160.4" x2="233.3" y2="136.3"/>
				
					<line fill="none" stroke="#000000" stroke-width="0.7542" stroke-miterlimit="10" x1="191.7" y1="163.3" x2="233.3" y2="139.2"/>
				
					<line fill="none" stroke="#000000" stroke-width="0.7542" stroke-miterlimit="10" x1="191.7" y1="166.2" x2="233.3" y2="142.2"/>
			</g>
			<g>
				<line fill="none" stroke="#000000" stroke-width="0.7542" stroke-miterlimit="10" x1="191.7" y1="119.5" x2="150" y2="95.4"/>
				<line fill="none" stroke="#000000" stroke-width="0.7542" stroke-miterlimit="10" x1="191.7" y1="122.4" x2="150" y2="98.3"/>
				<line fill="none" stroke="#000000" stroke-width="0.7542" stroke-miterlimit="10" x1="191.7" y1="125.3" x2="150" y2="101.2"/>
				<line fill="none" stroke="#000000" stroke-width="0.7542" stroke-miterlimit="10" x1="191.7" y1="128.2" x2="150" y2="104.2"/>
				<line fill="none" stroke="#000000" stroke-width="0.7542" stroke-miterlimit="10" x1="191.7" y1="131.1" x2="150" y2="107.1"/>
				<line fill="none" stroke="#000000" stroke-width="0.7542" stroke-miterlimit="10" x1="191.7" y1="134.1" x2="150" y2="110"/>
				<line fill="none" stroke="#000000" stroke-width="0.7542" stroke-miterlimit="10" x1="191.7" y1="137" x2="150" y2="112.9"/>
				<line fill="none" stroke="#000000" stroke-width="0.7542" stroke-miterlimit="10" x1="191.7" y1="139.9" x2="150" y2="115.9"/>
				<line fill="none" stroke="#000000" stroke-width="0.7542" stroke-miterlimit="10" x1="191.7" y1="142.8" x2="150" y2="118.8"/>
				<line fill="none" stroke="#000000" stroke-width="0.7542" stroke-miterlimit="10" x1="191.7" y1="145.8" x2="150" y2="121.7"/>
				<line fill="none" stroke="#000000" stroke-width="0.7542" stroke-miterlimit="10" x1="191.7" y1="148.7" x2="150" y2="124.6"/>
				<line fill="none" stroke="#000000" stroke-width="0.7542" stroke-miterlimit="10" x1="191.7" y1="151.6" x2="150" y2="127.5"/>
				<line fill="none" stroke="#000000" stroke-width="0.7542" stroke-miterlimit="10" x1="191.7" y1="154.5" x2="150" y2="130.5"/>
				<line fill="none" stroke="#000000" stroke-width="0.7542" stroke-miterlimit="10" x1="191.7" y1="157.4" x2="150" y2="133.4"/>
				<line fill="none" stroke="#000000" stroke-width="0.7542" stroke-miterlimit="10" x1="191.7" y1="160.4" x2="150" y2="136.3"/>
				<line fill="none" stroke="#000000" stroke-width="0.7542" stroke-miterlimit="10" x1="191.7" y1="163.3" x2="150" y2="139.2"/>
				<line fill="none" stroke="#000000" stroke-width="0.7542" stroke-miterlimit="10" x1="191.7" y1="166.2" x2="150" y2="142.2"/>
			</g>
			<path fill="none" stroke="#000000" stroke-width="3.7711" stroke-miterlimit="10" d="M190.9,167.1c0.5,0.3,1.1,0.3,1.6,0
				l40.1-23.1c0.5-0.3,0.8-0.8,0.8-1.4V95.2c0-0.6-0.3-1.1-0.8-1.4l-40.1-23.1c-0.5-0.3-1.1-0.3-1.6,0l-40.1,23.1
				c-0.5,0.3-0.8,0.8-0.8,1.4"/>
			<line fill="none" stroke="#000000" stroke-width="3.7711" stroke-miterlimit="10" x1="191.7" y1="167.5" x2="191.7" y2="118.4"/>
			<path fill="none" stroke="#000000" stroke-width="3.7711" stroke-miterlimit="10" d="M150,94.3l40.9,23.6c0.5,0.3,1.1,0.3,1.6,0
				l40.9-23.6"/>
			<g>
				<line fill="none" stroke="#000000" stroke-width="0.7542" stroke-miterlimit="10" x1="190.8" y1="70.8" x2="232.4" y2="94.9"/>
				<line fill="none" stroke="#000000" stroke-width="0.7542" stroke-miterlimit="10" x1="188.3" y1="72.3" x2="230" y2="96.3"/>
				<line fill="none" stroke="#000000" stroke-width="0.7542" stroke-miterlimit="10" x1="185.9" y1="73.7" x2="227.5" y2="97.8"/>
				<line fill="none" stroke="#000000" stroke-width="0.7542" stroke-miterlimit="10" x1="183.4" y1="75.2" x2="225" y2="99.3"/>
				<line fill="none" stroke="#000000" stroke-width="0.7542" stroke-miterlimit="10" x1="180.9" y1="76.7" x2="222.6" y2="100.7"/>
				<line fill="none" stroke="#000000" stroke-width="0.7542" stroke-miterlimit="10" x1="178.4" y1="78.1" x2="220.1" y2="102.2"/>
				<line fill="none" stroke="#000000" stroke-width="0.7542" stroke-miterlimit="10" x1="176" y1="79.6" x2="217.6" y2="103.6"/>
				<line fill="none" stroke="#000000" stroke-width="0.7542" stroke-miterlimit="10" x1="173.5" y1="81" x2="215.2" y2="105.1"/>
				<line fill="none" stroke="#000000" stroke-width="0.7542" stroke-miterlimit="10" x1="171" y1="82.5" x2="212.7" y2="106.5"/>
				<line fill="none" stroke="#000000" stroke-width="0.7542" stroke-miterlimit="10" x1="168.6" y1="83.9" x2="210.2" y2="108"/>
				<line fill="none" stroke="#000000" stroke-width="0.7542" stroke-miterlimit="10" x1="166.1" y1="85.4" x2="207.8" y2="109.4"/>
				<line fill="none" stroke="#000000" stroke-width="0.7542" stroke-miterlimit="10" x1="163.6" y1="86.8" x2="205.3" y2="110.9"/>
				<line fill="none" stroke="#000000" stroke-width="0.7542" stroke-miterlimit="10" x1="161.2" y1="88.3" x2="202.8" y2="112.3"/>
				<line fill="none" stroke="#000000" stroke-width="0.7542" stroke-miterlimit="10" x1="158.7" y1="89.7" x2="200.4" y2="113.8"/>
				<line fill="none" stroke="#000000" stroke-width="0.7542" stroke-miterlimit="10" x1="156.2" y1="91.2" x2="197.9" y2="115.2"/>
				<line fill="none" stroke="#000000" stroke-width="0.7542" stroke-miterlimit="10" x1="153.8" y1="92.6" x2="195.4" y2="116.7"/>
				<line fill="none" stroke="#000000" stroke-width="0.7542" stroke-miterlimit="10" x1="151.3" y1="94.1" x2="193" y2="118.1"/>
			</g>
		</g>
	</g>
</g>
<g id="Layer_3">
</g>
</svg>
