<?xml version="1.0" encoding="utf-8"?>
<!-- Generator: Adobe Illustrator 18.0.0, SVG Export Plug-In . SVG Version: 6.00 Build 0)  -->
<!DOCTYPE svg PUBLIC "-//W3C//DTD SVG 1.1//EN" "http://www.w3.org/Graphics/SVG/1.1/DTD/svg11.dtd">
<svg version="1.1" xmlns="http://www.w3.org/2000/svg" xmlns:xlink="http://www.w3.org/1999/xlink" x="0px" y="0px"
	 viewBox="0 0 300 300" enable-background="new 0 0 300 300" xml:space="preserve">
<g id="Layer_1" display="none">
</g>
<g id="Layer_2">
	<circle fill="#FF9A9A" stroke="#000000" stroke-width="8" stroke-miterlimit="10" cx="150" cy="151.4" r="140"/>
	<g>
		<g>
			<line fill="none" stroke="#000000" stroke-width="0.7542" stroke-miterlimit="10" x1="150" y1="129.5" x2="210" y2="94.9"/>
			<line fill="none" stroke="#000000" stroke-width="0.7542" stroke-miterlimit="10" x1="150" y1="133.7" x2="210" y2="99.1"/>
			<line fill="none" stroke="#000000" stroke-width="0.7542" stroke-miterlimit="10" x1="150" y1="137.9" x2="210" y2="103.3"/>
			<line fill="none" stroke="#000000" stroke-width="0.7542" stroke-miterlimit="10" x1="150" y1="142.1" x2="210" y2="107.5"/>
			<line fill="none" stroke="#000000" stroke-width="0.7542" stroke-miterlimit="10" x1="150" y1="146.3" x2="210" y2="111.7"/>
			<line fill="none" stroke="#000000" stroke-width="0.7542" stroke-miterlimit="10" x1="150" y1="150.5" x2="210" y2="115.9"/>
			<line fill="none" stroke="#000000" stroke-width="0.7542" stroke-miterlimit="10" x1="150" y1="154.8" x2="210" y2="120.1"/>
			<line fill="none" stroke="#000000" stroke-width="0.7542" stroke-miterlimit="10" x1="150" y1="159" x2="210" y2="124.3"/>
			<line fill="none" stroke="#000000" stroke-width="0.7542" stroke-miterlimit="10" x1="150" y1="163.2" x2="210" y2="128.5"/>
			<line fill="none" stroke="#000000" stroke-width="0.7542" stroke-miterlimit="10" x1="150" y1="167.4" x2="210" y2="132.7"/>
			<line fill="none" stroke="#000000" stroke-width="0.7542" stroke-miterlimit="10" x1="150" y1="171.6" x2="210" y2="136.9"/>
			<line fill="none" stroke="#000000" stroke-width="0.7542" stroke-miterlimit="10" x1="150" y1="175.8" x2="210" y2="141.2"/>
			<line fill="none" stroke="#000000" stroke-width="0.7542" stroke-miterlimit="10" x1="150" y1="180" x2="210" y2="145.4"/>
			<line fill="none" stroke="#000000" stroke-width="0.7542" stroke-miterlimit="10" x1="150" y1="184.2" x2="210" y2="149.6"/>
			<line fill="none" stroke="#000000" stroke-width="0.7542" stroke-miterlimit="10" x1="150" y1="188.4" x2="210" y2="153.8"/>
			<line fill="none" stroke="#000000" stroke-width="0.7542" stroke-miterlimit="10" x1="150" y1="192.6" x2="210" y2="158"/>
			<line fill="none" stroke="#000000" stroke-width="0.7542" stroke-miterlimit="10" x1="150" y1="196.8" x2="210" y2="162.2"/>
		</g>
		<g>
			<line fill="none" stroke="#000000" stroke-width="0.7542" stroke-miterlimit="10" x1="150" y1="129.5" x2="90" y2="94.9"/>
			<line fill="none" stroke="#000000" stroke-width="0.7542" stroke-miterlimit="10" x1="150" y1="133.7" x2="90" y2="99.1"/>
			<line fill="none" stroke="#000000" stroke-width="0.7542" stroke-miterlimit="10" x1="150" y1="137.9" x2="90" y2="103.3"/>
			<line fill="none" stroke="#000000" stroke-width="0.7542" stroke-miterlimit="10" x1="150" y1="142.1" x2="90" y2="107.5"/>
			<line fill="none" stroke="#000000" stroke-width="0.7542" stroke-miterlimit="10" x1="150" y1="146.3" x2="90" y2="111.7"/>
			<line fill="none" stroke="#000000" stroke-width="0.7542" stroke-miterlimit="10" x1="150" y1="150.5" x2="90" y2="115.9"/>
			<line fill="none" stroke="#000000" stroke-width="0.7542" stroke-miterlimit="10" x1="150" y1="154.8" x2="90" y2="120.1"/>
			<line fill="none" stroke="#000000" stroke-width="0.7542" stroke-miterlimit="10" x1="150" y1="159" x2="90" y2="124.3"/>
			<line fill="none" stroke="#000000" stroke-width="0.7542" stroke-miterlimit="10" x1="150" y1="163.2" x2="90" y2="128.5"/>
			<line fill="none" stroke="#000000" stroke-width="0.7542" stroke-miterlimit="10" x1="150" y1="167.4" x2="90" y2="132.7"/>
			<line fill="none" stroke="#000000" stroke-width="0.7542" stroke-miterlimit="10" x1="150" y1="171.6" x2="90" y2="136.9"/>
			<line fill="none" stroke="#000000" stroke-width="0.7542" stroke-miterlimit="10" x1="150" y1="175.8" x2="90" y2="141.2"/>
			<line fill="none" stroke="#000000" stroke-width="0.7542" stroke-miterlimit="10" x1="150" y1="180" x2="90" y2="145.4"/>
			<line fill="none" stroke="#000000" stroke-width="0.7542" stroke-miterlimit="10" x1="150" y1="184.2" x2="90" y2="149.6"/>
			<line fill="none" stroke="#000000" stroke-width="0.7542" stroke-miterlimit="10" x1="150" y1="188.4" x2="90" y2="153.8"/>
			<line fill="none" stroke="#000000" stroke-width="0.7542" stroke-miterlimit="10" x1="150" y1="192.6" x2="90" y2="158"/>
			<line fill="none" stroke="#000000" stroke-width="0.7542" stroke-miterlimit="10" x1="150" y1="196.8" x2="90" y2="162.2"/>
		</g>
		<path fill="none" stroke="#000000" stroke-width="3.7711" stroke-miterlimit="10" d="M210,162.8V94.6c0-0.8-0.4-1.6-1.1-2
			l-57.7-33.3c-0.7-0.4-1.6-0.4-2.3,0L91.1,92.7c-0.7,0.4-1.1,1.2-1.1,2v68.2c0,0.8,0.4,1.6,1.1,2l57.7,33.3c0.7,0.4,1.6,0.4,2.3,0
			l57.7-33.3C209.6,164.3,210,163.6,210,162.8z"/>
		<line fill="none" stroke="#000000" stroke-width="3.7711" stroke-miterlimit="10" x1="150" y1="198.7" x2="150" y2="127.9"/>
		<path fill="none" stroke="#000000" stroke-width="3.7711" stroke-miterlimit="10" d="M90,93.3l58.9,34c0.7,0.4,1.6,0.4,2.3,0
			l58.9-34"/>
		<g>
			<line fill="none" stroke="#000000" stroke-width="0.7542" stroke-miterlimit="10" x1="148.7" y1="59.5" x2="208.7" y2="94.1"/>
			<line fill="none" stroke="#000000" stroke-width="0.7542" stroke-miterlimit="10" x1="145.2" y1="61.6" x2="205.2" y2="96.2"/>
			<line fill="none" stroke="#000000" stroke-width="0.7542" stroke-miterlimit="10" x1="141.6" y1="63.7" x2="201.6" y2="98.3"/>
			<line fill="none" stroke="#000000" stroke-width="0.7542" stroke-miterlimit="10" x1="138.1" y1="65.8" x2="198.1" y2="100.4"/>
			<line fill="none" stroke="#000000" stroke-width="0.7542" stroke-miterlimit="10" x1="134.5" y1="67.9" x2="194.5" y2="102.5"/>
			<line fill="none" stroke="#000000" stroke-width="0.7542" stroke-miterlimit="10" x1="131" y1="70" x2="191" y2="104.6"/>
			<line fill="none" stroke="#000000" stroke-width="0.7542" stroke-miterlimit="10" x1="127.4" y1="72" x2="187.4" y2="106.7"/>
			<line fill="none" stroke="#000000" stroke-width="0.7542" stroke-miterlimit="10" x1="123.9" y1="74.1" x2="183.9" y2="108.8"/>
			<line fill="none" stroke="#000000" stroke-width="0.7542" stroke-miterlimit="10" x1="120.3" y1="76.2" x2="180.3" y2="110.9"/>
			<line fill="none" stroke="#000000" stroke-width="0.7542" stroke-miterlimit="10" x1="116.8" y1="78.3" x2="176.7" y2="113"/>
			<line fill="none" stroke="#000000" stroke-width="0.7542" stroke-miterlimit="10" x1="113.2" y1="80.4" x2="173.2" y2="115"/>
			<line fill="none" stroke="#000000" stroke-width="0.7542" stroke-miterlimit="10" x1="109.6" y1="82.5" x2="169.6" y2="117.1"/>
			<line fill="none" stroke="#000000" stroke-width="0.7542" stroke-miterlimit="10" x1="106.1" y1="84.6" x2="166.1" y2="119.2"/>
			<line fill="none" stroke="#000000" stroke-width="0.7542" stroke-miterlimit="10" x1="102.5" y1="86.7" x2="162.5" y2="121.3"/>
			<line fill="none" stroke="#000000" stroke-width="0.7542" stroke-miterlimit="10" x1="99" y1="88.8" x2="159" y2="123.4"/>
			<line fill="none" stroke="#000000" stroke-width="0.7542" stroke-miterlimit="10" x1="95.4" y1="90.9" x2="155.4" y2="125.5"/>
			<line fill="none" stroke="#000000" stroke-width="0.7542" stroke-miterlimit="10" x1="91.9" y1="93" x2="151.9" y2="127.6"/>
		</g>
	</g>
	<rect x="22" y="211.5" fill="#E89865" stroke="#000000" stroke-width="8" stroke-miterlimit="10" width="256" height="56"/>
	<text transform="matrix(1 0 0 1 94.0249 250.3459)" font-family="'Asap-Bold'" font-size="32" letter-spacing="3">INTRO</text>
</g>
<g id="Layer_3">
</g>
</svg>
