<?xml version="1.0" encoding="utf-8"?>
<!-- Generator: Adobe Illustrator 18.0.0, SVG Export Plug-In . SVG Version: 6.00 Build 0)  -->
<!DOCTYPE svg PUBLIC "-//W3C//DTD SVG 1.1//EN" "http://www.w3.org/Graphics/SVG/1.1/DTD/svg11.dtd">
<svg version="1.1" xmlns="http://www.w3.org/2000/svg" xmlns:xlink="http://www.w3.org/1999/xlink" x="0px" y="0px"
	 viewBox="0 0 300 300" enable-background="new 0 0 300 300" xml:space="preserve">
<g id="Layer_1" display="none">
</g>
<g id="Layer_2">
	<circle fill="#FFF683" stroke="#000000" stroke-width="8" stroke-miterlimit="10" cx="150" cy="151.4" r="140"/>
	<rect x="22" y="211.5" fill="#D9D7D7" stroke="#000000" stroke-width="8" stroke-miterlimit="10" width="256" height="56"/>
	<text transform="matrix(1 0 0 1 42.6616 249.3458)" font-family="'Asap-Bold'" font-size="26" letter-spacing="3">INTERMEDIATE</text>
	<g>
		<path d="M146.5,97l-8,14l-4.6,8h9.2h6.9l-21.2,20.2l4.7-8.6l4.3-7.9h-9h-4.4L139,97H146.5 M155.7,91.6h-19.9L115.3,128h13.6
			l-13.6,25l3.6,3.1l44.7-42.6h-20.3L155.7,91.6L155.7,91.6z"/>
		<path d="M159.5,53.5l-20.1-14.8l-74,133.8l20.1,14.8h149.9L159.5,53.5z M99.7,172.5l12.8,9.4H101l-12.8-9.4H99.7z M102,172.5h11.5
			l12.8,9.4h-11.5L102,172.5z M115.8,172.5h11.5l12.8,9.4h-11.5L115.8,172.5z M129.5,172.5h11.5l12.8,9.4h-11.5L129.5,172.5z
			 M143.3,172.5h11.5l12.8,9.4h-11.5L143.3,172.5z M157.1,172.5h11.5l12.8,9.4h-11.5L157.1,172.5z M170.9,172.5h11.5l12.8,9.4h-11.5
			L170.9,172.5z M184.7,172.5h11.5l12.8,9.4h-11.5L184.7,172.5z M198.5,172.5h11.3l12.8,9.4h-11.3L198.5,172.5z M212.7,168l-5.3-9.3
			l9.6,7l5.3,9.3L212.7,168z M167.5,78.4l-9.6-7l-5.2-9.2l9.6,7L167.5,78.4z M169.1,81.3l5.2,9.2l-9.6-7l-5.2-9.2L169.1,81.3z
			 M175.9,93.3l5.2,9.2l-9.6-7l-5.2-9.2L175.9,93.3z M182.8,105.4l5.2,9.2l-9.6-7l-5.2-9.2L182.8,105.4z M189.6,117.4l5.2,9.2
			l-9.6-7l-5.2-9.2L189.6,117.4z M196.5,129.5l5.2,9.2l-9.6-7l-5.2-9.2L196.5,129.5z M203.3,141.6l5.2,9.2l-9.6-7l-5.2-9.2
			L203.3,141.6z M210.2,153.6l5.2,9.2l-9.6-7l-5.2-9.2L210.2,153.6z M155.4,57.1l5.2,9.2l-9.6-7l-5.2-9.2L155.4,57.1z M139.5,49.7
			l66.6,117.4H74.5L139.5,49.7z M74.5,172.5h11.4l12.8,9.4H87.3L74.5,172.5z"/>
	</g>
</g>
<g id="Layer_3">
</g>
</svg>
