<?xml version="1.0" encoding="utf-8"?>
<!-- Generator: Adobe Illustrator 18.0.0, SVG Export Plug-In . SVG Version: 6.00 Build 0)  -->
<!DOCTYPE svg PUBLIC "-//W3C//DTD SVG 1.1//EN" "http://www.w3.org/Graphics/SVG/1.1/DTD/svg11.dtd">
<svg version="1.1" xmlns="http://www.w3.org/2000/svg" xmlns:xlink="http://www.w3.org/1999/xlink" x="0px" y="0px"
	 viewBox="0 0 352 280" enable-background="new 0 0 352 280" xml:space="preserve">
<g id="Layer_2" display="none">
</g>
<g id="Layer_1" display="none">
</g>
<g id="Layer_3">
	<g>
		<polyline fill="none" stroke="#000000" stroke-miterlimit="10" points="176.1,272.5 7.1,272.5 7.4,55.8 18.1,30.1 57.5,6.5 
			71.5,6.5 176.1,6.5 		"/>
		<polyline fill="none" stroke="#000000" stroke-miterlimit="10" points="26.6,81 26.6,55.5 33.6,38 68.7,6.5 33.1,30.5 23.6,55.7 
			23.6,80.5 37.6,80.5 37.6,268.5 176.1,268.5 		"/>
		<line fill="none" stroke="#000000" stroke-miterlimit="10" x1="18.1" y1="30.5" x2="33.1" y2="30.5"/>
		<line fill="none" stroke="#000000" stroke-miterlimit="10" x1="7.1" y1="55.5" x2="23.6" y2="55.7"/>
		<line fill="none" stroke="#000000" stroke-miterlimit="10" x1="7.1" y1="207.5" x2="37.1" y2="207.5"/>
		<line fill="none" stroke="#000000" stroke-miterlimit="10" x1="37.1" y1="80.5" x2="176.1" y2="80.5"/>
		<line fill="none" stroke="#000000" stroke-miterlimit="10" x1="26.1" y1="55.5" x2="176.1" y2="55.5"/>
		<line fill="none" stroke="#000000" stroke-miterlimit="10" x1="33.1" y1="38.5" x2="176.1" y2="38.5"/>
		<polyline fill="none" stroke="#000000" stroke-miterlimit="10" points="176.1,36.5 53.7,36.5 77.9,12.5 176.1,12.5 		"/>
		<polyline fill="none" stroke="#000000" stroke-miterlimit="10" points="176.1,74.5 137.6,74.5 137.6,55.5 140.4,40.5 176.1,40.5 
					"/>
		<polyline fill="none" stroke="#000000" stroke-miterlimit="10" points="176.1,53.5 153.4,53.5 154.6,43.5 176.1,43.5 		"/>
		<polyline fill="none" stroke="#000000" stroke-miterlimit="10" points="176.1,63.5 157.6,63.5 157.6,70.5 176.1,70.5 		"/>
		<line fill="none" stroke="#000000" stroke-miterlimit="10" x1="37.1" y1="205.5" x2="176.1" y2="205.5"/>
		<path fill="none" stroke="#000000" stroke-miterlimit="10" d="M301.9,179.5H50.4c-1.1,0-2-0.9-2-2V91.3c0-1.1,0.9-2,2-2h251.5
			c1.1,0,2,0.9,2,2v86.3C303.9,178.6,303,179.5,301.9,179.5z"/>
		<polyline fill="none" stroke="#000000" stroke-miterlimit="10" points="325.6,81 325.6,55.5 318.6,38 283.6,6.5 319.1,30.5 
			328.6,55.7 328.6,80.5 314.6,80.5 314.6,268.5 176.1,268.5 		"/>
		<line fill="none" stroke="#000000" stroke-miterlimit="10" x1="334.1" y1="30.5" x2="319.1" y2="30.5"/>
		<line fill="none" stroke="#000000" stroke-miterlimit="10" x1="345.1" y1="55.5" x2="328.6" y2="55.7"/>
		<line fill="none" stroke="#000000" stroke-miterlimit="10" x1="345.1" y1="207.5" x2="315.1" y2="207.5"/>
		<line fill="none" stroke="#000000" stroke-miterlimit="10" x1="315.1" y1="80.5" x2="176.1" y2="80.5"/>
		<line fill="none" stroke="#000000" stroke-miterlimit="10" x1="326.1" y1="55.5" x2="176.1" y2="55.5"/>
		<line fill="none" stroke="#000000" stroke-miterlimit="10" x1="319.1" y1="38.5" x2="176.1" y2="38.5"/>
		<polyline fill="none" stroke="#000000" stroke-miterlimit="10" points="176.1,36.5 298.5,36.5 274.4,12.5 176.1,12.5 		"/>
		<polyline fill="none" stroke="#000000" stroke-miterlimit="10" points="176.1,74.5 214.6,74.5 214.6,55.5 211.9,40.5 176.1,40.5 
					"/>
		<polyline fill="none" stroke="#000000" stroke-miterlimit="10" points="176.1,53.5 198.9,53.5 197.6,43.5 176.1,43.5 		"/>
		<polyline fill="none" stroke="#000000" stroke-miterlimit="10" points="176.1,63.5 194.6,63.5 194.6,70.5 176.1,70.5 		"/>
		<line fill="none" stroke="#000000" stroke-miterlimit="10" x1="315.1" y1="205.5" x2="176.1" y2="205.5"/>
		<polyline fill="none" stroke="#000000" stroke-miterlimit="10" points="176.1,272.5 345.1,272.5 344.9,55.8 334.2,30.1 294.8,6.5 
			280.8,6.5 176.1,6.5 		"/>
		<path fill="none" stroke="#000000" stroke-miterlimit="10" d="M164.6,34.5h-2V30c0-2.8,2.4-4.5,5.1-4.5h16.8
			c2.8,0,5.1,1.7,5.1,4.5v4.5h-2V30c0-1.7-1.5-2.5-3.1-2.5h-16.8c-1.7,0-3.1,0.8-3.1,2.5V34.5z"/>
		<circle fill="none" stroke="#000000" stroke-miterlimit="10" cx="50.8" cy="99" r="1"/>
		<circle fill="none" stroke="#000000" stroke-miterlimit="10" cx="50.8" cy="169" r="1"/>
		<circle fill="none" stroke="#000000" stroke-miterlimit="10" cx="129.8" cy="92" r="1"/>
		<circle fill="none" stroke="#000000" stroke-miterlimit="10" cx="223.8" cy="92" r="1"/>
		<circle fill="none" stroke="#000000" stroke-miterlimit="10" cx="129.8" cy="177" r="1"/>
		<circle fill="none" stroke="#000000" stroke-miterlimit="10" cx="223.8" cy="177" r="1"/>
		<circle fill="none" stroke="#000000" stroke-miterlimit="10" cx="300.8" cy="99" r="1"/>
		<circle fill="none" stroke="#000000" stroke-miterlimit="10" cx="300.8" cy="169" r="1"/>
		<line fill="none" stroke="#000000" stroke-miterlimit="10" x1="37.6" y1="268.5" x2="68.1" y2="205.5"/>
		<line fill="none" stroke="#000000" stroke-miterlimit="10" x1="314.1" y1="268.5" x2="283.6" y2="205.5"/>
	</g>
</g>
</svg>
