<?xml version="1.0" encoding="utf-8"?>
<!-- Generator: Adobe Illustrator 18.0.0, SVG Export Plug-In . SVG Version: 6.00 Build 0)  -->
<!DOCTYPE svg PUBLIC "-//W3C//DTD SVG 1.1//EN" "http://www.w3.org/Graphics/SVG/1.1/DTD/svg11.dtd">
<svg version="1.1" xmlns="http://www.w3.org/2000/svg" xmlns:xlink="http://www.w3.org/1999/xlink" x="0px" y="0px"
	 viewBox="0 0 355.1 526.9" enable-background="new 0 0 355.1 526.9" xml:space="preserve">
<g id="Layer_1" display="none">
	
		<image display="inline" overflow="visible" width="1727" height="2500" xlink:href="A3C7BBA81F6176DA.jpg"  transform="matrix(0.2004 0 0 0.2004 -8.4518 17.4555)">
	</image>
</g>
<g id="Layer_3">
	<g id="o0QMAp.tif">
		<g>
			<path d="M59.4,468.9c0.2,0,0.3,0,0.5,0c0.4,0,0.8,0.1,1.2,0.2c0.1,0,0.2,0.1,0.1,0.2c0,0.3-0.1,0.6-0.1,0.8
				c0,0.1-0.1,0.1-0.2,0.1c-0.2,0-0.4-0.1-0.6-0.1c-0.2,0-0.4,0-0.6,0.1c-0.1,0.1-0.2,0.1-0.2,0.3c0,0.3,0,0.5,0,0.8
				c0,0,0.1,0,0.1,0c0.4,0,0.8,0,1.1,0c0.2,0,0.2,0,0.2,0.2c0,0.3,0,0.6,0,0.9c0,0.2,0,0.2-0.2,0.2c-0.4,0-0.8,0-1.1,0
				c0,0-0.1,0-0.1,0c0,0,0,0.1,0,0.1c0,1.3,0,2.6,0,3.9c0,0.3,0,0.3-0.3,0.3c-0.4,0-0.9,0-1.3,0c-0.1,0-0.1,0-0.2,0
				c0,0-0.1-0.1-0.1-0.1c0-1.3,0-2.7,0-4c0,0,0-0.1,0-0.1c-0.1,0-0.1,0-0.2,0c-0.2,0-0.4,0-0.6,0c-0.1,0-0.2,0-0.2-0.1
				c0-0.4,0-0.7,0-1.1c0-0.1,0.1-0.1,0.2-0.1c0.2,0,0.5,0,0.7,0c0,0,0.1,0,0.1,0c0-0.1,0-0.1,0-0.2c0-0.2,0-0.5,0-0.7
				c0-0.4,0.1-0.7,0.3-1c0.2-0.2,0.4-0.4,0.7-0.5C58.9,469,59.2,469,59.4,468.9z"/>
			<path d="M105.4,477.2c-0.3-0.1-0.5-0.4-0.8-0.6c-0.5-0.4-0.9-0.8-1.4-1.2c-0.1-0.1-0.3-0.2-0.3-0.4c0-0.2,0.1-0.4,0.3-0.5
				c0.2-0.1,0.4-0.2,0.5-0.4c0,0,0,0,0.1,0c-0.1-0.2-0.3-0.4-0.4-0.6c-0.6-0.9-1.2-1.8-1.9-2.7c-0.3-0.4-0.2-1,0.3-1.2
				c0.2-0.1,0.4-0.2,0.6-0.4c0.3-0.2,0.6-0.2,0.9,0c1.3,0.8,2.6,1.6,3.9,2.4c0.1,0.1,0.2,0.1,0.3,0c1.3-0.8,2.6-1.6,3.9-2.3
				c0.3-0.2,0.6-0.2,0.9,0c0.2,0.1,0.4,0.2,0.6,0.4c0.2,0.1,0.4,0.3,0.4,0.6c0,0,0,0,0,0c0,0.1,0,0.1,0,0.2c0,0,0,0,0,0
				c-0.1,0.2-0.2,0.4-0.3,0.6c-0.6,0.9-1.2,1.8-1.7,2.6c-0.1,0.2-0.2,0.3-0.3,0.5c0,0,0.1,0,0.1,0.1c0.2,0.1,0.4,0.2,0.5,0.4
				c0.1,0.1,0.1,0.2,0.2,0.3c0.1,0.2,0,0.4-0.2,0.5c-0.6,0.5-1.3,1.1-1.9,1.6c-0.3,0.3-0.7,0.2-0.9-0.3c-0.4-1.3-0.9-2.6-1.3-3.9
				c0-0.1-0.1-0.2-0.1-0.3c0,0.1,0,0.1-0.1,0.2c-0.5,1.4-0.9,2.7-1.4,4.1c0,0.1-0.1,0.3-0.3,0.3c-0.1,0-0.1,0-0.2,0.1
				C105.5,477.2,105.4,477.2,105.4,477.2z M108,472.1c0.9,0.6,1.8,1.2,2.7,1.8c0.7-1.1,1.4-2.1,2.1-3.2c0,0,0,0,0,0
				C111.1,471.1,109.6,471.6,108,472.1z M102.2,470.7c0.7,1.1,1.4,2.1,2.1,3.1c0.9-0.6,1.7-1.2,2.6-1.8
				C105.3,471.6,103.7,471.1,102.2,470.7z M105.5,476.6c0.3-1,0.7-2,1-3c0,0-0.1,0-0.1,0.1c-0.2,0.2-0.3,0.5-0.5,0.7
				c-0.2,0.3-0.4,0.5-0.6,0.8c-0.2,0.3-0.6,0.3-0.8,0c-0.1-0.1-0.1-0.2-0.2-0.3c-0.1-0.1-0.1-0.2-0.2-0.3c-0.2,0.1-0.4,0.3-0.6,0.4
				C104.2,475.5,104.8,476,105.5,476.6z M102.1,470.1c1.1,0.3,2.2,0.7,3.3,1c0,0,0,0,0,0c0,0-0.1,0-0.1-0.1
				c-0.2-0.1-0.5-0.3-0.7-0.4c-0.5-0.3-1-0.6-1.5-0.9c-0.1-0.1-0.2-0.1-0.3,0C102.6,469.8,102.3,469.9,102.1,470.1z M106,473.3
				C106,473.3,106,473.3,106,473.3c-0.5,0.3-0.9,0.6-1.4,0.9c0.1,0.2,0.2,0.3,0.4,0.5C105.3,474.3,105.6,473.8,106,473.3z"/>
			<path d="M63.7,477.2c-0.1,0-0.2,0-0.4-0.1c-0.3,0-0.6-0.1-0.9-0.3c-0.5-0.3-0.8-0.8-0.9-1.3c-0.1-0.6-0.1-1.3-0.1-1.9
				c0-0.3,0.1-0.6,0.2-0.9c0.2-0.7,0.7-1.1,1.4-1.3c0.5-0.1,1.1-0.2,1.6-0.1c0.3,0,0.6,0.1,0.9,0.1c0.8,0.2,1.2,0.7,1.4,1.4
				c0.1,0.5,0.1,1.1,0.1,1.6c0,0.4,0,0.8-0.1,1.2c-0.2,0.8-0.7,1.3-1.6,1.5c-0.2,0.1-0.5,0.1-0.8,0.1c-0.2,0-0.4,0-0.6,0
				c0,0,0,0-0.1,0C63.8,477.2,63.8,477.2,63.7,477.2z M63.3,474.2C63.3,474.2,63.3,474.2,63.3,474.2c0,0.2,0,0.3,0,0.5
				c0,0.3,0,0.6,0.1,0.8c0.1,0.2,0.2,0.4,0.4,0.4c0.2,0,0.3,0,0.5,0c0.3,0,0.5-0.2,0.6-0.5c0-0.1,0-0.2,0-0.2c0-0.5,0-0.9,0-1.4
				c0-0.2,0-0.4-0.1-0.7c-0.1-0.4-0.2-0.6-0.6-0.6c-0.1,0-0.2,0-0.3,0c-0.4,0-0.7,0.2-0.7,0.6C63.3,473.5,63.3,473.8,63.3,474.2z"/>
			<path d="M90.4,468.9c0,0,0.1,0.1,0.1,0.1c0,0.7,0,1.3,0,2c0,0.2,0,0.3,0,0.5c0.2,0,0.4-0.1,0.6-0.1c0.3-0.1,0.6-0.1,0.9-0.1
				c0.4-0.1,0.8,0,1.2,0.1c0.3,0.1,0.5,0.2,0.7,0.4c0.2,0.2,0.4,0.5,0.4,0.8c0.1,0.2,0.1,0.4,0.1,0.6c0.1,0.5,0.1,0.9,0.1,1.4
				c0,0.4-0.1,0.9-0.2,1.3c-0.2,0.7-0.7,1-1.4,1.2c-0.2,0-0.4,0.1-0.6,0.1c0,0,0,0-0.1,0c0,0-0.1,0-0.1,0c-0.1,0-0.1,0-0.2,0
				c-0.1,0-0.2,0-0.3,0c0,0-0.1,0-0.1,0c-0.1,0-0.2,0-0.4,0c-0.5-0.1-0.9-0.1-1.3-0.3c-0.2-0.1-0.3-0.2-0.3-0.5c0-0.1,0-0.2,0-0.3
				c0-2.2,0-4.5,0-6.7c0-0.2,0-0.2,0.2-0.2C90,469,90.1,469,90.4,468.9C90.3,468.9,90.4,468.9,90.4,468.9z M90.5,474.2
				c0,0.7,0,1.3,0,2c0,0.1,0,0.1,0.1,0.1c0.4,0.1,0.7,0.1,1.1,0.2c0.3,0,0.6,0,0.9-0.1c0.4-0.1,0.7-0.3,0.8-0.7
				c0.2-0.4,0.2-0.8,0.2-1.2c0-0.3,0-0.6,0-1c0-0.3-0.1-0.5-0.1-0.8c-0.1-0.4-0.3-0.6-0.7-0.8c-0.3-0.1-0.7-0.1-1.1-0.1
				c-0.4,0.1-0.8,0.1-1.2,0.2c-0.1,0-0.1,0-0.1,0.1C90.5,472.9,90.5,473.6,90.5,474.2z"/>
			<path d="M85.8,477.2c-0.1,0-0.3,0-0.4-0.1c-0.2-0.1-0.4-0.1-0.6-0.2c-0.4-0.2-0.7-0.5-0.8-1c-0.1-0.4-0.1-0.8,0-1.3
				c0.1-0.4,0.3-0.7,0.7-0.8c0.3-0.1,0.7-0.2,1-0.2c0.7-0.1,1.3-0.2,2-0.3c0,0,0,0,0.1,0c0-0.3,0-0.6,0-0.8c0-0.2-0.1-0.3-0.3-0.4
				c-0.3-0.1-0.6-0.1-0.9-0.1c-0.7,0-1.4,0.1-2,0.3c-0.2,0.1-0.2,0.1-0.3-0.2c0-0.1,0-0.2-0.1-0.3c0-0.1,0-0.2,0.1-0.2
				c0.3-0.1,0.6-0.2,0.8-0.2c0.6-0.1,1.1-0.1,1.7-0.1c0.4,0,0.7,0.1,1.1,0.2c0.4,0.2,0.7,0.5,0.7,1c0,0.1,0,0.3,0,0.4
				c0,1,0,2.1,0,3.1c0,0.2,0,0.3,0,0.5c0,0.3-0.3,0.5-0.6,0.5c-0.4,0.1-0.8,0.2-1.3,0.2c0,0,0,0-0.1,0c-0.1,0-0.1,0-0.2,0
				c0,0-0.1,0-0.1,0c-0.1,0-0.3,0-0.4,0c0,0-0.1,0-0.1,0C85.9,477.2,85.8,477.2,85.8,477.2z M87.7,474c-0.1,0-0.1,0-0.1,0
				c-0.3,0.1-0.6,0.1-0.9,0.2c-0.4,0.1-0.9,0.1-1.3,0.2c-0.3,0.1-0.5,0.2-0.6,0.5c-0.1,0.3-0.1,0.7,0,1c0.1,0.3,0.4,0.5,0.8,0.5
				c0.7,0.1,1.4,0.1,2.1-0.1c0.1,0,0.1-0.1,0.1-0.1c0-0.7,0-1.4,0-2C87.7,474.1,87.7,474.1,87.7,474z"/>
			<path d="M96.7,477.2c-0.1,0-0.2,0-0.2,0c-0.4,0-0.9-0.1-1.3-0.3c-0.1,0-0.1-0.1-0.1-0.2c0-0.1,0.1-0.3,0.1-0.4
				c0-0.1,0.1-0.1,0.2-0.1c0.2,0.1,0.4,0.1,0.6,0.2c0.2,0,0.5,0.1,0.7,0.1c0.1,0,0.2,0,0.3,0c0.3,0,0.7,0,1-0.2
				c0.4-0.2,0.6-0.5,0.5-1c0-0.1-0.1-0.3-0.1-0.4c-0.1-0.1-0.3-0.2-0.4-0.3c-0.2-0.1-0.4-0.1-0.7-0.1c-0.4-0.1-0.8-0.1-1.2-0.2
				c-0.5-0.2-0.9-0.5-0.9-1.1c-0.1-0.5,0-0.9,0.3-1.3c0.3-0.3,0.6-0.5,1-0.6c0.4-0.1,0.7-0.1,1.1-0.1c0.5,0,1,0.1,1.5,0.2
				c0.1,0,0.1,0,0.1,0.2c0,0.1,0,0.3-0.1,0.4c0,0.1-0.1,0.1-0.1,0.1c-0.2,0-0.4-0.1-0.6-0.1c-0.3,0-0.5-0.1-0.8-0.1
				c-0.3,0-0.5,0-0.8,0.1c-0.2,0.1-0.4,0.1-0.6,0.3c-0.3,0.4-0.2,1,0.4,1.2c0.3,0.1,0.5,0.1,0.8,0.2c0.4,0.1,0.8,0.1,1.2,0.2
				c0.5,0.2,0.8,0.5,0.9,1c0.1,0.4,0.1,0.8-0.1,1.2c-0.2,0.5-0.5,0.7-1,0.9c-0.3,0.1-0.5,0.1-0.8,0.2c0,0,0,0-0.1,0
				c-0.1,0-0.1,0-0.2,0c-0.1,0-0.3,0-0.4,0C96.8,477.2,96.8,477.2,96.7,477.2z"/>
			<path d="M71.7,474.4c0-0.8,0-1.5,0-2.3c0-0.3,0.1-0.4,0.3-0.5c0.2-0.1,0.5-0.2,0.8-0.2c0.7-0.1,1.4-0.2,2.1-0.2
				c0.4,0,0.9,0.1,1.3,0.3c0,0,0.1,0,0.1,0c0.7-0.2,1.5-0.4,2.3-0.3c0.3,0,0.7,0.1,1,0.2c0.5,0.2,0.8,0.6,0.9,1.2c0,0.1,0,0.3,0,0.4
				c0,1.3,0,2.5,0,3.8c0,0.2,0,0.2-0.2,0.2c-0.5,0-1,0-1.4,0c-0.2,0-0.2,0-0.2-0.2c0-1.2,0-2.4,0-3.6c0-0.1,0-0.2,0-0.3
				c-0.1-0.3-0.3-0.5-0.5-0.5c-0.3,0-0.6,0-0.9,0.1c0,0,0,0-0.1,0.1c0,0,0,0,0,0.1c0,1.4,0,2.7,0,4.1c0,0.2,0,0.2-0.2,0.2
				c-0.5,0-1,0-1.4,0c-0.2,0-0.2,0-0.2-0.2c0-1.2,0-2.4,0-3.6c0-0.1,0-0.2,0-0.3c-0.1-0.3-0.2-0.4-0.5-0.4c-0.3,0-0.7,0-1,0.1
				c0,0,0,0-0.1,0.1c0,0,0,0,0,0.1c0,1.4,0,2.8,0,4.1c0,0.2,0,0.2-0.2,0.2c-0.5,0-1,0-1.4,0c-0.2,0-0.2,0-0.2-0.2
				C71.7,476,71.7,475.2,71.7,474.4z"/>
			<path d="M69.6,472.7c0,0,0,0.1,0,0.1c0,1.3,0,2.7,0,4c0,0.2,0,0.2-0.2,0.2c-0.5,0-1,0-1.4,0c-0.2,0-0.2,0-0.2-0.2
				c0-1.6,0-3.1,0-4.7c0-0.2,0.1-0.4,0.3-0.5c0.3-0.1,0.5-0.2,0.8-0.2c0.6-0.1,1.3-0.2,2-0.2c0.2,0,0.3,0.1,0.3,0.3
				c0,0.3,0,0.6,0,0.9c0,0.2,0,0.2-0.3,0.2C70.4,472.6,70,472.7,69.6,472.7C69.6,472.7,69.6,472.7,69.6,472.7z"/>
			<path d="M82.4,472.5c0,1.1,0,2.3,0,3.4c0,0.3,0.1,0.5,0.4,0.5c0.1,0,0.3,0,0.4,0c0.1,0,0.1,0,0.1,0.1c0,0.1,0,0.2,0.1,0.3
				c0,0.1,0,0.2-0.1,0.2c-0.4,0.1-0.8,0.2-1.2,0.1c-0.4-0.1-0.5-0.4-0.6-0.7c0-0.1,0-0.2,0-0.3c0-2.2,0-4.5,0-6.7
				c0-0.2,0-0.2,0.2-0.2c0.1,0,0.3-0.1,0.4-0.1c0.2,0,0.2,0,0.2,0.2C82.4,470.3,82.4,471.4,82.4,472.5z"/>
		</g>
	</g>
</g>
<g id="Layer_2">
	<path fill="none" stroke="#000000" stroke-miterlimit="10" d="M309.3,501.4H45.8c-8.2,0-15-6.8-15-15V336.9c0-8.2,6.8-15,15-15
		h263.5c8.2,0,15,6.8,15,15v149.5C324.3,494.6,317.5,501.4,309.3,501.4z"/>
	<path fill="none" stroke="#000000" stroke-miterlimit="10" d="M321,486.6c0,6.6-5.4,12-12,12H46c-6.6,0-12-5.4-12-12v-150
		c0-6.6,5.4-12,12-12h263c6.6,0,12,5.4,12,12V486.6z"/>
	<path fill="none" stroke="#000000" stroke-miterlimit="10" d="M46,497.6c-6.1,0-11-4.9-11-11v-150c0-6.1,4.9-11,11-11h263
		c6.1,0,11,4.9,11,11v150c0,6.1-4.9,11-11,11H46z"/>
	<line fill="none" stroke="#000000" stroke-miterlimit="10" x1="34" y1="410.9" x2="30.8" y2="410.9"/>
	<line fill="none" stroke="#000000" stroke-miterlimit="10" x1="34" y1="412.9" x2="30.8" y2="412.9"/>
	<line fill="none" stroke="#000000" stroke-miterlimit="10" x1="324.3" y1="410.9" x2="321" y2="410.9"/>
	<line fill="none" stroke="#000000" stroke-miterlimit="10" x1="324.3" y1="412.9" x2="321" y2="412.9"/>
	<path fill="none" stroke="#000000" stroke-miterlimit="10" d="M279,382.5h-87.4c-7.7,0-14-6.3-14-14v-0.3c0-7.7,6.3-14,14-14H279
		c7.7,0,14,6.3,14,14v0.3C293,376.2,286.7,382.5,279,382.5z"/>
	<circle fill="none" stroke="#000000" stroke-miterlimit="10" cx="279" cy="368.4" r="14.2"/>
	<path fill="none" stroke="#000000" stroke-miterlimit="10" d="M279,378.5c-5.6,0-10.2-4.6-10.2-10.2c0-5.6,4.6-10.2,10.2-10.2
		s10.2,4.6,10.2,10.2C289.1,374,284.6,378.5,279,378.5z"/>
	<path fill="none" stroke="#000000" stroke-miterlimit="10" d="M309.3,322H45.8c-8.2,0-15-6.8-15-15V42.2c0-8.2,6.8-15,15-15h263.5
		c8.2,0,15,6.8,15,15V307C324.3,315.3,317.5,322,309.3,322z"/>
</g>
</svg>
