<?xml version="1.0" encoding="utf-8"?>
<!-- Generator: Adobe Illustrator 18.0.0, SVG Export Plug-In . SVG Version: 6.00 Build 0)  -->
<!DOCTYPE svg PUBLIC "-//W3C//DTD SVG 1.1//EN" "http://www.w3.org/Graphics/SVG/1.1/DTD/svg11.dtd">
<svg version="1.1" xmlns="http://www.w3.org/2000/svg" xmlns:xlink="http://www.w3.org/1999/xlink" x="0px" y="0px"
	 viewBox="0 0 300 300" enable-background="new 0 0 300 300" xml:space="preserve">
<g id="Layer_1" display="none">
</g>
<g id="Layer_2">
	<circle fill="#FF9A9A" stroke="#000000" stroke-width="8" stroke-miterlimit="10" cx="150" cy="151.4" r="140"/>
	<rect x="22" y="211.5" fill="#E89865" stroke="#000000" stroke-width="8" stroke-miterlimit="10" width="256" height="56"/>
	<text transform="matrix(1 0 0 1 94.0249 250.3459)" font-family="'Asap-Bold'" font-size="32" letter-spacing="3">INTRO</text>
	<g>
		<g>
			<path d="M130.5,42.4c0,0,0.3,0,0.8,0c6.2,0.4,48.2,2.9,60.9,7c4,1.7,7.1,14.2,8,23.6c0,0-2.3,2.8-9.1,2.8c-1.1,0-2.2-0.1-3.5-0.2
				c-4.1-0.5-7.9-0.7-11.5-0.7c-17,0-28.2,5.5-30.4,15.1c-3.8,16.8,42.9,18.7,42.9,18.7l8.5,22.4c-11.4,0.2-20.3,0.9-27.2,2
				c-2.3,0.4-4.4,0.9-6.3,1.4c-1.4,0.4-2.7,0.8-3.9,1.3c-0.8,0.3-1.6,0.6-2.3,1c-1.1,0.5-2,1.1-2.9,1.7c-0.6,0.4-1.1,0.8-1.7,1.3
				c-0.3,0.2-0.5,0.5-0.7,0.7c-1.9,1.9-3.2,4.1-4.2,6.6c-0.2,0.6-0.4,1.3-0.6,2c-0.2,0.7-0.3,1.4-0.5,2.1c-0.1,0.4-0.1,0.7-0.2,1.1
				c-0.5,3-0.6,6.4-0.6,10.3c0,0.5,0,1,0,1.5c0,2,0.1,4.1,0.2,6.3c0.1,2.2,0.2,4.5,0.3,6.9c0.1,3,0.2,6.3,0.3,9.7c0,1.4,0,2.8,0,4.2
				c0,0.4,0,0.7,0,1.1c0,0,0,0,0,0v0l0,0c0,0-0.3,0-0.8,0c-4.5-0.1-26.8-1-39.1-3.8c-3.8-50.6-3.8-136.5-3.8-136.5
				c8.3-4,22.5-8.3,26.4-9.4C130.2,42.5,130.5,42.4,130.5,42.4 M129.9,36.3l-1,0.3c0,0-0.4,0.1-1.1,0.3c-4.2,1.2-18.7,5.5-27.3,9.8
				l-3.4,1.6v3.7c0,0.9,0,86.8,3.8,137l0.3,4.4l4.3,1c12.5,2.8,33.9,3.7,40.2,3.9l0.6,0l6.4,0.6l0-6.6l0-0.8l0-0.4
				c0-1.5,0-2.9,0-4.3c-0.1-3.7-0.2-7.2-0.3-9.8c0-1.1-0.1-2.2-0.1-3.2c0-1.3-0.1-2.5-0.1-3.7c-0.1-2.6-0.1-4.5-0.2-6.1
				c0-0.5,0-0.9,0-1.4c0-3.9,0.1-6.9,0.5-9.3c0-0.3,0.1-0.6,0.2-0.9c0.1-0.6,0.2-1.2,0.4-1.7c0.1-0.5,0.3-1,0.5-1.5
				c0.6-1.8,1.5-3.2,2.7-4.3c0.2-0.2,0.3-0.3,0.5-0.4c0.3-0.3,0.7-0.6,1.1-0.9c0.6-0.4,1.4-0.9,2.2-1.3c0.6-0.3,1.2-0.5,1.8-0.8
				c1-0.4,2.1-0.8,3.4-1.1c1.7-0.5,3.6-0.9,5.7-1.2c6.4-1.1,15-1.7,26.3-2l8.5-0.2l-3-8l-8.5-22.4l-1.4-3.7l-4-0.2
				c-12.3-0.5-32.6-3.9-36.9-9.5c-0.5-0.7-0.6-1.2-0.4-1.8c0.7-2.9,2.8-5.3,6.5-7.1c4.4-2.2,10.6-3.3,18.1-3.3c3.4,0,7,0.2,10.8,0.7
				c1.5,0.2,2.9,0.3,4.3,0.3c9.2,0,13.1-4.2,13.8-5l1.6-1.9l-0.2-2.4c-0.5-5.4-1.7-11.2-3.1-15.9c-2.2-7.1-4.9-11.2-8.6-12.7
				l-0.2-0.1l-0.2-0.1c-13.2-4.3-54.3-6.9-62.4-7.3l-0.8,0L129.9,36.3L129.9,36.3z"/>
		</g>
	</g>
	<g>
		<polygon fill="#DC8331" points="146.8,192.4 146.8,192.4 146.8,192.4 		"/>
		<g>
			<path fill="#E89865" d="M112.1,91.8c0.8-18.6,6.7-35.1,17.4-49.1c-3.9,1.1-18.1,5.3-26.4,9.4c0,0,0,86,3.8,136.5
				c12.3,2.8,34.6,3.6,39.1,3.8c-2.2-3.1-16.7-24.3-26-51.6C114.1,123.3,111.5,106.9,112.1,91.8z"/>
			<path fill="#E89865" d="M187.6,75.7c9.6,1.2,12.6-2.6,12.6-2.6c-0.9-9.4-4-22-8-23.6c-12.7-4.2-54.6-6.7-60.9-7
				c-10.9,14-17.1,30.8-17.9,49.4c-0.6,14.9,2,31.2,7.8,48.4c8.9,26.4,22.8,46.9,25.6,51c-0.2-45.9-10.4-58.9,50.3-60.1l-8.5-22.4
				c0,0-46.8-1.9-42.9-18.7C148.4,78.4,164.2,72.8,187.6,75.7z"/>
		</g>
		<path fill="#FFC2A4" d="M187.6,75.7c9.6,1.2,12.6-2.6,12.6-2.6c-124-28.7-71,85.6-56.6,113.4c-5.4-8.4-15.4-25.5-22.4-46.2
			c-5.8-17.2-8.5-33.5-7.8-48.4c0.8-18.6,7-35.5,17.9-49.4c-0.5,0-0.8,0-0.8,0s-0.4,0.1-1,0.3c-10.7,14-16.6,30.5-17.4,49.1
			c-0.7,15.1,2,31.5,7.9,48.9c9.3,27.4,23.8,48.5,26,51.6c0.5,0,0.8,0,0.8,0l0,0l0,0c0,0,0,0,0,0l0,0c0-0.4,0-0.8,0-1.1l0,0
			c-0.2-45.9-10.4-58.9,50.3-60.1c-16.8-3.3-33-2-43.9-3.5c-3.5-0.5-9.7-2.6-9.7-10.3c0-5.8,4.9-8.3,7.8-8.6c9.3-1.1,37.3,0,37.3,0
			s-46.8-1.9-42.9-18.7C148.4,78.4,164.2,72.8,187.6,75.7z"/>
	</g>
</g>
</svg>
