<?xml version="1.0" encoding="utf-8"?>
<!-- Generator: Adobe Illustrator 18.0.0, SVG Export Plug-In . SVG Version: 6.00 Build 0)  -->
<!DOCTYPE svg PUBLIC "-//W3C//DTD SVG 1.1//EN" "http://www.w3.org/Graphics/SVG/1.1/DTD/svg11.dtd">
<svg version="1.1" xmlns="http://www.w3.org/2000/svg" xmlns:xlink="http://www.w3.org/1999/xlink" x="0px" y="0px"
	 viewBox="0 0 300 300" enable-background="new 0 0 300 300" xml:space="preserve">
<g id="Layer_1" display="none">
</g>
<g id="Layer_2">
	<circle fill="#5BFDD1" stroke="#000000" stroke-width="8" stroke-miterlimit="10" cx="150" cy="151.4" r="140"/>
	<rect x="22" y="211.5" fill="#E89865" stroke="#000000" stroke-width="8" stroke-miterlimit="10" width="256" height="56"/>
	<text transform="matrix(1 0 0 1 94.0249 250.3459)" font-family="'Asap-Bold'" font-size="32" letter-spacing="3">INTRO</text>
	<g>
		<path d="M114.9,130.9L70,175.8v13.1h116.9l43.1-43.1v-14.9H114.9z M182.6,184.6H74.4v-4.4h108.2V184.6z M188.9,180.8l-2,2v-2.6
			l2-2V180.8z M192.3,177.4l-2.3,2.3v-2.6l2.3-2.3V177.4z M195.7,174l-2.3,2.3v-2.6l2.3-2.3V174z M199,170.7l-2.3,2.3v-2.6l2.3-2.3
			V170.7z M202.4,167.3l-2.3,2.3V167l2.3-2.3V167.3z M205.8,163.9l-2.3,2.3v-2.6l2.3-2.3V163.9z M209.1,160.5l-2.3,2.3v-2.6l2.3-2.3
			V160.5z M212.5,157.2l-2.3,2.3v-2.6l2.3-2.3V157.2z M215.9,153.8l-2.3,2.3v-2.6l2.3-2.3V153.8z M219.3,150.4l-2.3,2.3v-2.6
			l2.3-2.3V150.4z M222.6,147.1l-2.3,2.3v-2.6l2.3-2.3V147.1z M225.6,144.1l-1.9,1.9v-2.6l1.9-1.9V144.1z M185.1,175.8H76.2
			l40.5-40.5h109L185.1,175.8z"/>
		<polyline fill="none" stroke="#000000" stroke-width="4" stroke-miterlimit="10" points="131.6,184.6 131.6,175.8 149.5,158 		"/>
		<line fill="none" stroke="#000000" stroke-width="4" stroke-miterlimit="10" x1="151.7" y1="123.7" x2="151.7" y2="147.7"/>
		<line fill="none" stroke="#000000" stroke-width="4" stroke-miterlimit="10" x1="166.8" y1="155.9" x2="175.4" y2="155.9"/>
		<line fill="none" stroke="#000000" stroke-width="4" stroke-miterlimit="10" x1="164.8" y1="148.3" x2="172.2" y2="144"/>
		<line fill="none" stroke="#000000" stroke-width="4" stroke-miterlimit="10" x1="159.4" y1="142.7" x2="163.7" y2="135.3"/>
		<line fill="none" stroke="#000000" stroke-width="4" stroke-miterlimit="10" x1="134.9" y1="155.9" x2="126.3" y2="155.9"/>
		<line fill="none" stroke="#000000" stroke-width="4" stroke-miterlimit="10" x1="136.9" y1="148.3" x2="129.5" y2="144"/>
		<line fill="none" stroke="#000000" stroke-width="4" stroke-miterlimit="10" x1="142.3" y1="142.7" x2="138" y2="135.3"/>
		<path fill="none" stroke="#000000" stroke-width="4" stroke-miterlimit="10" d="M160.2,155.9c0-4.5-4.1-8.2-9.1-8.2
			c-5,0-9.1,3.7-9.1,8.2c0,1.6,4.1,2.6,9.1,2.6C156.2,158.5,160.2,157,160.2,155.9z"/>
		<path d="M174.4,50.8V51C174.4,50.9,174.4,50.9,174.4,50.8L174.4,50.8z"/>
		<path d="M174.4,50.8c0,0,0-0.1,0-0.1c-0.2-3.7-5.5-8.1-19.9-8.1c-1.1,0-2.2,0-3.3,0.1c-5.7,0.3-11.1,1.4-15.1,3
			c-6,2.4-7.2,5.3-7.1,7.3h0v53.3c0,3.1,4.4,5.3,9.9,6.6l6.4,11.6c2.5,1.6,9.4,1.6,11.8,0l6.3-11.4c5.8-1.3,10.9-3.5,10.9-6.8V51
			C174.4,50.9,174.4,50.9,174.4,50.8z M170,51L170,51c0,0.6-1.2,1.7-3.6,2.8l-6.4-6.4C166.8,48.1,170,50.1,170,51z M158.3,47.2l7,7
			c-1.4,0.5-3.1,1-5.1,1.5l-8.6-8.6c0.9,0,1.9-0.1,2.8-0.1C155.8,47,157.1,47.1,158.3,47.2z M145,56.7l-7-7c1.4-0.5,3.1-1,5.1-1.5
			l8.6,8.6c-0.9,0-1.9,0.1-2.8,0.1C147.5,56.8,146.2,56.8,145,56.7z M153.1,56.7l-8.7-8.7c1.7-0.3,3.7-0.6,5.8-0.7l8.7,8.7
			C157.2,56.2,155.3,56.5,153.1,56.7z M136.9,50.1l6.4,6.4c-6.8-0.8-10-2.8-10-3.6C133.3,52.3,134.5,51.2,136.9,50.1z M154,121.1
			c-0.7,0.2-1.8,0.3-2.8,0.3c-1,0-2-0.1-2.8-0.3l-4-7.2c2.6,0.3,5.3,0.5,7.6,0.5c1.7,0,3.8-0.1,5.9-0.4L154,121.1z M152.1,110
			c-10.3,0-17.6-2.7-18.7-4V58.4c3.1,1.6,8.2,2.8,15.6,2.8c1.1,0,2.2,0,3.3-0.1c5.7-0.3,11.1-1.4,15.1-3c1.1-0.4,2-0.9,2.8-1.3v0
			l-7.4,7.4l0.8,0.8l6.6-6.6v4.7l-7.4,7.4l0.8,0.8l6.6-6.6v4.7l-7.4,7.4l0.8,0.8L170,71v4.7l-7.4,7.4l0.8,0.8l6.6-6.6V82l-7.4,7.4
			l0.8,0.8l6.6-6.6v4.7l-7.4,7.4l0.8,0.8l6.6-6.6v4.7l-7.4,7.4l0.8,0.8l6.6-6.6v9.7C168.7,107.2,161.5,110,152.1,110z"/>
	</g>
</g>
</svg>
