<?xml version="1.0" encoding="utf-8"?>
<!-- Generator: Adobe Illustrator 18.0.0, SVG Export Plug-In . SVG Version: 6.00 Build 0)  -->
<!DOCTYPE svg PUBLIC "-//W3C//DTD SVG 1.1//EN" "http://www.w3.org/Graphics/SVG/1.1/DTD/svg11.dtd">
<svg version="1.1" xmlns="http://www.w3.org/2000/svg" xmlns:xlink="http://www.w3.org/1999/xlink" x="0px" y="0px"
	 viewBox="0 0 300 300" enable-background="new 0 0 300 300" xml:space="preserve">
<g id="Layer_1" display="none">
</g>
<g id="Layer_2">
	<g>
		<path d="M192.6,176.3l-8,8h0.2l8-8H192.6z M209.4,176.3l-8,8h0.1l8-8H209.4z M217.3,179.7l-4.7,4.7h0.1l5.4-5.4
			C217.8,179.1,217.6,179.4,217.3,179.7z M206.6,176.3l-8,8h0.2l8-8H206.6z M195.4,176.3l-8,8h0.1l8-8H195.4z M222.7,176.3
			c-0.2,0.6-0.5,1.1-0.8,1.6c2.2,0.1,4,1.4,5,3.3c0.5,1,0.7,2,0.6,3.1h60.9l-74.2,74.2H14.9l59.6-59.7c0.1-0.3,0.2-0.5,0.3-0.8
			c0.7-1.8,2.2-3,4-3.5l0.8-0.8c0,0-0.1-0.1-0.1-0.1c-1.1-1.7-1.3-3.8-0.6-5.6c0.9-2.2,3-3.6,5.3-3.7c-0.2-0.2-0.4-0.4-0.5-0.7
			c-0.9-1.3-1.2-2.9-0.9-4.5L3.6,258.5v24h214l78.8-78.8v-27.3H222.7z M209.6,274.5h-198v-8h198V274.5z M221.2,267.5l-3.7,3.7v-4.7
			l3.7-3.7V267.5z M227.4,261.4l-4.2,4.2v-4.7l4.2-4.2V261.4z M233.6,255.2l-4.2,4.2v-4.7l4.2-4.2V255.2z M239.8,249l-4.2,4.2v-4.7
			l4.2-4.2V249z M245.9,242.9l-4.2,4.2v-4.7l4.2-4.2V242.9z M252.1,236.7l-4.2,4.2v-4.7l4.2-4.2V236.7z M258.2,230.5l-4.2,4.2V230
			l4.2-4.2V230.5z M264.4,224.3l-4.2,4.2v-4.7l4.2-4.2V224.3z M270.6,218.2l-4.2,4.2v-4.7l4.2-4.2V218.2z M276.8,212l-4.2,4.2v-4.7
			l4.2-4.2V212z M282.9,205.8l-4.2,4.2v-4.7l4.2-4.2V205.8z M288.4,200.3l-3.5,3.5v-4.7l3.5-3.5V200.3z M218.7,181.1l-3.2,3.2h0.1
			l3.8-3.8C219.1,180.7,218.9,180.9,218.7,181.1z M147.2,176.3c-0.5,3.3-2.5,6.2-5.2,8h21.5c4.9-0.3,9.4-2.3,12.9-5.8l2.2-2.2H147.2
			z"/>
		<path d="M145.4,169.5v4.9c0,0.7-0.1,1.3-0.2,1.9c-0.8,4.3-4.5,7.6-8.9,8H89l0,0h-0.3c-2.9,0-4.8-2.9-3.7-5.5
			c0.3-0.7,0.8-1.4,1.5-1.8c0.7-0.4,1.4-0.7,2.2-0.7h46.7c0.1,0,0.3,0,0.4,0c0.9-0.2,1.6-1,1.6-1.9l0-4.9H145.4z"/>
		<path d="M136.2,184.3c-0.3,0-0.6,0-0.9,0H88.9l0,0H136.2z"/>
		<g>
			<g>
				<path d="M210.9,158.2l-1.7,1.7c0,0,0,0,0,0c-0.3,0.2-0.6,0.5-0.9,0.7l-15.7,15.7l-8,8l-4.2,4.2c-0.2,0.2-0.5,0.5-0.7,0.7
					c0,0-0.1,0.1-0.1,0.1c0,0,0,0-0.1,0.1c0,0,0,0,0,0c0,0-0.1,0-0.1,0c-0.2,0.2-0.5,0.4-0.7,0.6c-0.3,0.2-0.6,0.4-0.9,0.6
					c-0.2,0.1-0.3,0.2-0.5,0.3c-0.2,0.1-0.4,0.2-0.6,0.4c0,0,0,0,0,0c-0.1,0-0.2,0.1-0.3,0.2c-0.3,0.2-0.6,0.3-0.9,0.5
					c-0.3,0.2-0.6,0.3-0.9,0.4c-0.2,0.1-0.4,0.2-0.7,0.3c-0.3,0.1-0.7,0.3-1,0.4c-0.3,0.1-0.7,0.2-1,0.3c0,0,0,0,0,0
					c-0.4,0.1-0.7,0.2-1.1,0.3c-0.3,0.1-0.6,0.2-0.9,0.2c-0.1,0-0.1,0-0.2,0c0,0,0,0-0.1,0c-0.3,0.1-0.6,0.1-0.9,0.1
					c-0.2,0-0.3,0.1-0.5,0.1c0,0,0,0-0.1,0h0c-0.3,0-0.6,0.1-0.9,0.1c-0.3,0-0.7,0.1-1,0.1c-0.4,0-0.8,0-1.1,0H84.4
					c-0.1,0-0.2,0-0.3,0c0,0,0,0,0,0c-0.1,0-0.1,0-0.2,0c-0.2,0-0.3,0-0.4-0.1c-0.1,0-0.1,0-0.2-0.1c-0.2,0-0.3-0.1-0.4-0.2
					c-0.2-0.1-0.3-0.1-0.4-0.2c0,0-0.1,0-0.1-0.1c-0.1-0.1-0.2-0.1-0.2-0.2c-0.1-0.1-0.2-0.1-0.2-0.2c-0.1-0.1-0.2-0.2-0.3-0.3
					c-0.1-0.1-0.1-0.1-0.2-0.2c-0.1-0.1-0.1-0.1-0.2-0.2c-0.1-0.1-0.2-0.2-0.2-0.3c0,0,0,0,0-0.1c0,0,0,0,0,0v0
					c0-0.1-0.1-0.1-0.1-0.2c0-0.1-0.1-0.1-0.1-0.2c0,0,0,0,0,0c-0.1-0.1-0.1-0.3-0.1-0.5c0,0,0-0.1,0-0.1c0-0.1-0.1-0.3-0.1-0.4
					c0,0,0,0,0-0.1c0-0.1,0-0.1,0-0.2c0-0.1,0-0.2,0-0.3c0-0.5,0.1-1,0.3-1.5c0.3-0.8,0.8-1.4,1.5-1.8c0.7-0.4,1.4-0.7,2.2-0.7h77.9
					c0.4,0,0.7,0,1.1,0c0.4,0,0.7,0,1.1-0.1c0.3,0,0.7-0.1,1-0.1c0,0,0.1,0,0.1,0c0.3,0,0.5-0.1,0.8-0.1c0.2,0,0.3-0.1,0.5-0.1
					c0.2,0,0.3-0.1,0.5-0.1c0,0,0,0,0,0c0,0,0,0,0.1,0c0.1,0,0.3-0.1,0.4-0.1c0.2,0,0.4-0.1,0.6-0.2c0.2,0,0.4-0.1,0.5-0.2
					c0.2-0.1,0.4-0.1,0.7-0.2c0.7-0.2,1.3-0.5,1.9-0.8c0.7-0.3,1.4-0.7,2.1-1.1c0.3-0.2,0.5-0.3,0.8-0.5c0.2-0.2,0.5-0.3,0.7-0.5
					c0.1-0.1,0.2-0.1,0.2-0.2c0.2-0.1,0.4-0.3,0.6-0.4c0.1-0.1,0.2-0.2,0.3-0.2c0.2-0.2,0.5-0.4,0.7-0.6c0.3-0.2,0.5-0.5,0.8-0.8
					l3.6-3.6l23.8-23.8c0.8-0.8,1.8-1.2,2.8-1.2c1.5,0,2.9,0.8,3.6,2.3v0C212.4,155.2,212.1,157,210.9,158.2z"/>
				<path d="M209.2,159.9l-24.4,24.4l-3.3,3.3c-0.2,0.2-0.4,0.4-0.6,0.5c-0.1,0.1-0.3,0.3-0.4,0.4c-0.2,0.1-0.3,0.3-0.5,0.4l0,0
					c-0.1,0.1-0.2,0.1-0.2,0.2c0.2-0.2,0.5-0.5,0.7-0.7l4.2-4.2l8-8l15.7-15.7C208.6,160.4,208.9,160.1,209.2,159.9z"/>
				<path fill="#FFFFFF" d="M87.1,186.2l-0.2,0.2h1.7C88.1,186.4,87.6,186.3,87.1,186.2z M209.7,162.1l-14.3,14.3l-8,8l-5.6,5.6
					c-0.2,0.2-0.4,0.4-0.6,0.6c0.6-0.4,1.1-0.9,1.6-1.5l12.7-12.7l14.8-14.8C210.2,161.7,209.9,161.8,209.7,162.1z M179.4,189.4
					c-0.2,0.2-0.5,0.4-0.7,0.6c-0.3,0.2-0.6,0.4-0.9,0.6c-0.2,0.1-0.3,0.2-0.5,0.3c-0.2,0.1-0.4,0.2-0.6,0.4c0,0,0,0,0,0
					c-0.1,0-0.2,0.1-0.3,0.2c-0.3,0.2-0.6,0.3-0.9,0.5c-0.3,0.2-0.6,0.3-0.9,0.4c-0.2,0.1-0.4,0.2-0.7,0.3c-0.3,0.1-0.7,0.3-1,0.4
					c-0.3,0.1-0.7,0.2-1,0.3c0,0,0,0,0,0c-0.4,0.1-0.7,0.2-1.1,0.3c-0.3,0.1-0.6,0.2-0.9,0.2c-0.1,0-0.1,0-0.2,0c0,0,0,0-0.1,0
					c-0.3,0.1-0.6,0.1-0.9,0.1c-0.2,0-0.3,0.1-0.5,0.1c0,0,0,0-0.1,0h0c-0.3,0-0.6,0.1-0.9,0.1c-0.3,0-0.7,0.1-1,0.1
					c-0.4,0-0.8,0-1.1,0h1.1C171.2,194.4,175.8,192.6,179.4,189.4C179.5,189.4,179.4,189.4,179.4,189.4z"/>
			</g>
			<g>
				<path d="M216.5,164.9c0,1-0.4,2.1-1.2,2.8l-1.7,1.7c-0.3,0.2-0.6,0.4-0.8,0.7l-6.2,6.2l-8,8l-14.2,14.2
					c-0.2,0.2-0.5,0.5-0.7,0.7c0,0-0.1,0.1-0.1,0.1c0,0,0,0-0.1,0.1c0,0,0,0,0,0s0,0,0,0c0,0,0,0,0,0c-0.1,0.1-0.1,0.1-0.2,0.2
					c-0.2,0.1-0.4,0.3-0.5,0.4c-0.3,0.2-0.6,0.4-0.9,0.6c-0.2,0.1-0.3,0.2-0.5,0.3c-0.2,0.1-0.3,0.2-0.5,0.3c0,0-0.1,0-0.1,0.1
					c0,0,0,0,0,0c-0.1,0-0.2,0.1-0.3,0.2c-0.3,0.2-0.6,0.3-0.9,0.5c-0.3,0.2-0.6,0.3-0.9,0.4c-0.2,0.1-0.4,0.2-0.7,0.3
					c-0.3,0.1-0.7,0.3-1,0.4c-0.3,0.1-0.7,0.2-1,0.3c0,0,0,0,0,0c-0.4,0.1-0.7,0.2-1.1,0.3c-0.3,0.1-0.6,0.2-0.9,0.2
					c-0.1,0-0.1,0-0.2,0c0,0,0,0-0.1,0c-0.3,0.1-0.6,0.1-0.9,0.1c-0.2,0-0.3,0.1-0.5,0.1c0,0,0,0-0.1,0h0c-0.3,0-0.6,0.1-0.9,0.1
					c-0.3,0-0.7,0.1-1,0.1c-0.4,0-0.8,0-1.1,0H80.3c-2.9,0-4.8-2.9-3.7-5.5c0.6-1.5,2.1-2.5,3.7-2.5h86c0.4,0,0.7,0,1.1,0
					c0.4,0,0.7,0,1.1-0.1c0.4,0,0.7-0.1,1.1-0.1c0.3,0,0.6-0.1,0.9-0.2c0.2,0,0.3-0.1,0.4-0.1c0.2,0,0.4-0.1,0.7-0.2
					c0.3-0.1,0.5-0.1,0.8-0.2c0.2,0,0.3-0.1,0.5-0.1c0,0,0,0,0.1,0c0.2-0.1,0.5-0.2,0.7-0.2c0,0,0.1,0,0.1,0
					c0.2-0.1,0.5-0.2,0.7-0.3c0.2-0.1,0.4-0.2,0.6-0.2l0,0c0,0,0.1,0,0.1,0c0,0,0.1,0,0.1,0c0,0,0.1,0,0.1,0
					c0.2-0.1,0.4-0.2,0.6-0.3c0.3-0.1,0.6-0.3,0.9-0.4c1.2-0.6,2.3-1.4,3.3-2.2c0.2-0.2,0.4-0.3,0.6-0.5c0,0,0,0,0,0l0,0
					c0,0,0.1,0,0.1-0.1c0,0,0,0,0,0c0,0,0,0,0,0c0.1,0,0.1-0.1,0.2-0.1c0,0,0,0,0.1,0c0,0,0,0,0,0c0,0,0.1-0.1,0.1-0.1
					c0.6-0.4,1.1-0.9,1.6-1.5l12.7-12.7l14.8-14.8c0.1-0.1,0.2-0.1,0.3-0.2c0.1-0.1,0.2-0.1,0.4-0.2c0.1,0,0.2-0.1,0.3-0.1
					c0,0,0.1,0,0.2,0c0.1,0,0.1,0,0.2,0c0.1,0,0.1,0,0.2,0c0,0,0,0,0,0c0.1,0,0.2,0,0.2,0c0.1,0,0.2,0,0.4,0c1.5,0,2.9,0.8,3.6,2.3
					C216.4,163.7,216.5,164.3,216.5,164.9z"/>
				<path d="M182.9,189c-0.5,0.5-1.1,1-1.6,1.5c0.2-0.2,0.4-0.4,0.6-0.6l5.6-5.6l8-8l14.3-14.3c0.2-0.2,0.4-0.4,0.7-0.5l-14.8,14.8
					L182.9,189z"/>
				<path d="M213.6,169.4l-6.9,6.9l-8,8l-13.3,13.3c-0.2,0.2-0.4,0.4-0.6,0.5c-0.1,0.1-0.3,0.3-0.4,0.4c-0.2,0.1-0.3,0.3-0.5,0.4
					l0,0c-0.1,0.1-0.2,0.1-0.2,0.2c0.2-0.2,0.5-0.5,0.7-0.7l14.2-14.2l8-8l6.2-6.2C213.1,169.9,213.3,169.6,213.6,169.4z"/>
				<path fill="#FFFFFF" d="M165.2,196.4h1.1c0.4,0,0.7,0,1.1,0c0.4,0,0.7,0,1.1-0.1c0.4,0,0.7-0.1,1.1-0.1c0.3,0,0.6-0.1,0.9-0.2
					c0.2,0,0.3-0.1,0.4-0.1c0.2,0,0.4-0.1,0.7-0.2c0.3-0.1,0.5-0.1,0.8-0.2c0.2,0,0.3-0.1,0.5-0.1c0,0,0,0,0.1,0
					c0.2-0.1,0.5-0.2,0.7-0.2c0,0,0.1,0,0.1,0c0.2-0.1,0.5-0.2,0.7-0.3c0.2-0.1,0.4-0.2,0.6-0.2l0,0c0,0,0.1,0,0.1,0
					c0,0,0.1,0,0.1,0c0,0,0.1,0,0.1,0c0.2-0.1,0.4-0.2,0.6-0.3c0.3-0.1,0.6-0.3,0.9-0.4c1.2-0.6,2.3-1.4,3.3-2.2
					c0.2-0.2,0.4-0.3,0.6-0.5C176.3,194.5,170.9,196.4,165.2,196.4z M208.3,160.6l-15.7,15.7l-8,8l-4.2,4.2
					c-0.2,0.2-0.5,0.5-0.7,0.7c0.1-0.1,0.2-0.1,0.2-0.2l0,0c0.2-0.1,0.3-0.3,0.5-0.4c0.1-0.1,0.3-0.2,0.4-0.4
					c0.2-0.2,0.4-0.4,0.6-0.5l3.3-3.3l24.4-24.4C208.9,160.1,208.6,160.4,208.3,160.6z M214.7,171.1c-0.1,0-0.1,0.1-0.2,0.1
					c-0.1,0.1-0.2,0.2-0.3,0.3l-12.8,12.8l-15.6,15.6c-0.2,0.2-0.4,0.4-0.6,0.6c0.6-0.4,1.1-0.9,1.6-1.5l14.7-14.7l8-8l5.3-5.3
					C214.9,171,214.8,171.1,214.7,171.1z M182.7,200c-0.3,0.2-0.6,0.4-0.9,0.6c-0.2,0.1-0.3,0.2-0.5,0.3c-0.2,0.1-0.3,0.2-0.5,0.3
					c0,0-0.1,0-0.1,0.1c0,0,0,0,0,0c-0.1,0-0.2,0.1-0.3,0.2c-0.3,0.2-0.6,0.3-0.9,0.5c-0.3,0.2-0.6,0.3-0.9,0.4
					c-0.2,0.1-0.4,0.2-0.7,0.3c-0.3,0.1-0.7,0.3-1,0.4c-0.3,0.1-0.7,0.2-1,0.3c0,0,0,0,0,0c-0.4,0.1-0.7,0.2-1.1,0.3
					c-0.3,0.1-0.6,0.2-0.9,0.2c-0.1,0-0.1,0-0.2,0c0,0,0,0-0.1,0c-0.3,0.1-0.6,0.1-0.9,0.1c-0.2,0-0.3,0.1-0.5,0.1c0,0,0,0-0.1,0h0
					c-0.3,0-0.6,0.1-0.9,0.1c-0.3,0-0.7,0.1-1,0.1c-0.4,0-0.8,0-1.1,0h1.1c4.8,0,9.3-1.7,12.9-4.8
					C183.1,199.7,182.9,199.8,182.7,200z"/>
			</g>
			<g>
				<path d="M221.1,174.4c0,0.1,0,0.3,0,0.4c0,0.1,0,0.2-0.1,0.3c0,0.1,0,0.2-0.1,0.3c0,0,0,0,0,0c0,0.2-0.1,0.3-0.2,0.4
					c0,0,0,0,0,0c-0.1,0.1-0.1,0.3-0.2,0.4c-0.1,0.1-0.2,0.3-0.2,0.4c0,0,0,0,0,0c0,0,0,0-0.1,0.1c-0.1,0.1-0.2,0.3-0.3,0.4
					l-1.7,1.7c0,0,0,0,0,0c-0.3,0.2-0.6,0.5-0.9,0.7l-4.7,4.7l-24.2,24.2c-0.2,0.2-0.5,0.5-0.7,0.7c0,0-0.1,0.1-0.1,0.1
					c0,0,0,0-0.1,0.1c0,0,0,0,0,0s0,0,0,0c0,0,0,0,0,0c-0.1,0.1-0.1,0.1-0.2,0.2c-0.2,0.1-0.4,0.3-0.5,0.4c-0.3,0.2-0.6,0.4-0.9,0.6
					c-0.2,0.1-0.3,0.2-0.5,0.3c-0.2,0.1-0.3,0.2-0.5,0.3c0,0-0.1,0-0.1,0.1c0,0,0,0,0,0c-0.1,0-0.2,0.1-0.3,0.2
					c-0.3,0.2-0.6,0.3-0.9,0.5c-0.3,0.2-0.6,0.3-0.9,0.4c-0.2,0.1-0.4,0.2-0.7,0.3c-0.3,0.1-0.7,0.3-1,0.4c-0.3,0.1-0.7,0.2-1,0.3
					c0,0,0,0,0,0c-0.4,0.1-0.7,0.2-1.1,0.3c-0.3,0.1-0.6,0.2-0.9,0.2c-0.1,0-0.1,0-0.2,0c0,0,0,0-0.1,0c-0.3,0.1-0.6,0.1-0.9,0.1
					c-0.2,0-0.3,0.1-0.5,0.1c0,0,0,0-0.1,0h0c-0.3,0-0.6,0.1-0.9,0.1c-0.3,0-0.7,0.1-1,0.1c-0.4,0-0.8,0-1.1,0H76.1
					c-2.9,0-4.8-2.9-3.7-5.5c0.3-0.7,0.8-1.4,1.5-1.8s1.4-0.7,2.2-0.7h94.2c0.4,0,0.7,0,1.1,0c0.4,0,0.7,0,1.1-0.1
					c0.4,0,0.7-0.1,1.1-0.1c0.3,0,0.6-0.1,0.9-0.2c0.2,0,0.3-0.1,0.4-0.1c0.2,0,0.4-0.1,0.7-0.2c0.3-0.1,0.5-0.1,0.8-0.2
					c0.2,0,0.3-0.1,0.5-0.1c0,0,0,0,0.1,0c0.2-0.1,0.5-0.2,0.7-0.2c0,0,0.1,0,0.1,0c0.2-0.1,0.5-0.2,0.7-0.3
					c0.2-0.1,0.4-0.2,0.6-0.2l0,0c0,0,0.1,0,0.1,0c0,0,0.1,0,0.1,0c0,0,0.1,0,0.1,0c0.2-0.1,0.4-0.2,0.6-0.3
					c0.3-0.1,0.6-0.3,0.9-0.4c1.2-0.6,2.3-1.4,3.3-2.2c0.2-0.2,0.4-0.3,0.6-0.5c0,0,0,0,0,0l0,0c0,0,0.1,0,0.1-0.1c0,0,0,0,0,0
					c0,0,0,0,0,0c0.1,0,0.1-0.1,0.2-0.1c0,0,0,0,0.1,0c0,0,0,0,0,0c0,0,0.1-0.1,0.1-0.1c0.6-0.4,1.1-0.9,1.6-1.5l14.7-14.7l8-8
					l5.3-5.3c0,0,0,0,0,0c0,0,0,0,0,0c0.1-0.1,0.3-0.2,0.4-0.2c0.2-0.1,0.3-0.2,0.5-0.2c0.1,0,0.1,0,0.2,0c0.1,0,0.2-0.1,0.4-0.1h0
					c0.2,0,0.3,0,0.5,0c0.7,0,1.5,0.2,2.1,0.6c0.3,0.2,0.6,0.4,0.9,0.7c0.2,0.3,0.5,0.6,0.6,1C220.9,173.2,221.1,173.8,221.1,174.4z
					"/>
				<path d="M201.6,184.3L186.9,199c-0.5,0.5-1.1,1-1.6,1.5c0.2-0.2,0.4-0.4,0.6-0.6l15.6-15.6l12.8-12.8c0.1-0.1,0.2-0.2,0.3-0.3
					c0.1,0,0.1-0.1,0.2-0.1c0.1-0.1,0.1-0.1,0.2-0.2l-5.3,5.3L201.6,184.3z"/>
				<path d="M218.2,178.9l-5.4,5.4l-23.3,23.3c-0.2,0.2-0.4,0.4-0.6,0.5c-0.1,0.1-0.3,0.3-0.4,0.4c-0.2,0.1-0.3,0.3-0.5,0.4l0,0
					c-0.1,0.1-0.2,0.1-0.2,0.2c0.2-0.2,0.5-0.5,0.7-0.7l24.2-24.2l4.7-4.7C217.6,179.4,217.8,179.1,218.2,178.9z"/>
				<path fill="#FFFFFF" d="M169.2,206.4h1.1c0.4,0,0.7,0,1.1,0c0.4,0,0.7,0,1.1-0.1c0.4,0,0.7-0.1,1.1-0.1c0.3,0,0.6-0.1,0.9-0.2
					c0.2,0,0.3-0.1,0.4-0.1c0.2,0,0.4-0.1,0.7-0.2c0.3-0.1,0.5-0.1,0.8-0.2c0.2,0,0.3-0.1,0.5-0.1c0,0,0,0,0.1,0
					c0.2-0.1,0.5-0.2,0.7-0.2c0,0,0.1,0,0.1,0c0.2-0.1,0.5-0.2,0.7-0.3c0.2-0.1,0.4-0.2,0.6-0.2l0,0c0,0,0.1,0,0.1,0
					c0,0,0.1,0,0.1,0c0,0,0.1,0,0.1,0c0.2-0.1,0.4-0.2,0.6-0.3c0.3-0.1,0.6-0.3,0.9-0.4c1.2-0.6,2.3-1.4,3.3-2.2
					c0.2-0.2,0.4-0.3,0.6-0.5C180.3,204.5,174.9,206.4,169.2,206.4z M186.7,210c-0.3,0.2-0.6,0.4-0.9,0.6c-0.2,0.1-0.3,0.2-0.5,0.3
					c-0.2,0.1-0.3,0.2-0.5,0.3c0,0-0.1,0-0.1,0.1c0,0,0,0,0,0c-0.1,0-0.2,0.1-0.3,0.2c-0.3,0.2-0.6,0.3-0.9,0.5
					c-0.3,0.2-0.6,0.3-0.9,0.4c-0.2,0.1-0.4,0.2-0.7,0.3c-0.3,0.1-0.7,0.3-1,0.4c-0.3,0.1-0.7,0.2-1,0.3c0,0,0,0,0,0
					c-0.4,0.1-0.7,0.2-1.1,0.3c-0.3,0.1-0.6,0.2-0.9,0.2c-0.1,0-0.1,0-0.2,0c0,0,0,0-0.1,0c-0.3,0.1-0.6,0.1-0.9,0.1
					c-0.2,0-0.3,0.1-0.5,0.1c0,0,0,0-0.1,0h0c-0.3,0-0.6,0.1-0.9,0.1c-0.3,0-0.7,0.1-1,0.1c-0.4,0-0.8,0-1.1,0h1.1
					c4.8,0,9.3-1.7,12.9-4.8C187.1,209.7,186.9,209.8,186.7,210z M218.7,181.1l-3.2,3.2l-25.6,25.6c-0.2,0.2-0.4,0.4-0.6,0.6
					c0.6-0.4,1.1-0.9,1.6-1.5l28.5-28.5C219.1,180.7,218.9,180.9,218.7,181.1z M212.8,170.1l-6.2,6.2l-8,8l-14.2,14.2
					c-0.2,0.2-0.5,0.5-0.7,0.7c0.1-0.1,0.2-0.1,0.2-0.2l0,0c0.2-0.1,0.3-0.3,0.5-0.4c0.1-0.1,0.3-0.2,0.4-0.4
					c0.2-0.2,0.4-0.4,0.6-0.5l13.3-13.3l8-8l6.9-6.9C213.3,169.6,213.1,169.9,212.8,170.1z"/>
			</g>
			<g>
				<path d="M225.5,183.9c0,0.1,0,0.3,0,0.4c0,0.1,0,0.2-0.1,0.4c0,0.1,0,0.3-0.1,0.4c-0.1,0.2-0.2,0.5-0.3,0.7
					c-0.1,0.1-0.1,0.2-0.2,0.3c-0.1,0.1-0.2,0.2-0.2,0.3c-0.1,0.1-0.2,0.2-0.3,0.3l-1.7,1.7c-0.3,0.2-0.6,0.4-0.8,0.7l-29.4,29.4
					c-0.2,0.2-0.5,0.5-0.7,0.7c0,0-0.1,0.1-0.1,0.1c0,0,0,0-0.1,0.1c0,0,0,0,0,0s0,0,0,0c0,0,0,0,0,0c-0.1,0.1-0.1,0.1-0.2,0.2
					c-0.2,0.1-0.4,0.3-0.5,0.4c-0.3,0.2-0.6,0.4-0.9,0.6c-0.2,0.1-0.3,0.2-0.5,0.3c-0.2,0.1-0.3,0.2-0.5,0.3c0,0-0.1,0-0.1,0.1
					c0,0,0,0,0,0c-0.1,0-0.2,0.1-0.3,0.2c-0.3,0.2-0.6,0.3-0.9,0.5c-0.3,0.2-0.6,0.3-0.9,0.4c-0.2,0.1-0.4,0.2-0.7,0.3
					c-0.3,0.1-0.7,0.3-1,0.4c-0.3,0.1-0.7,0.2-1,0.3c0,0,0,0,0,0c-0.4,0.1-0.7,0.2-1.1,0.3c-0.3,0.1-0.6,0.2-0.9,0.2
					c-0.1,0-0.1,0-0.2,0c0,0,0,0-0.1,0c-0.3,0.1-0.6,0.1-0.9,0.1c-0.2,0-0.3,0.1-0.5,0.1c0,0,0,0-0.1,0h0c-0.3,0-0.6,0.1-0.9,0.1
					c-0.3,0-0.7,0.1-1,0.1c-0.4,0-0.8,0-1.1,0H71.8c-2.8,0-4.8-2.9-3.7-5.5c0.6-1.5,2.1-2.5,3.7-2.5h102.5c0.4,0,0.7,0,1.1,0
					c0.4,0,0.7,0,1.1-0.1c0.4,0,0.7-0.1,1.1-0.1c0.3,0,0.6-0.1,0.9-0.2c0.2,0,0.3-0.1,0.4-0.1c0.2,0,0.4-0.1,0.7-0.2
					c0.3-0.1,0.5-0.1,0.8-0.2c0.2,0,0.3-0.1,0.5-0.1c0,0,0,0,0.1,0c0.2-0.1,0.5-0.2,0.7-0.2c0,0,0.1,0,0.1,0
					c0.2-0.1,0.5-0.2,0.7-0.3c0.2-0.1,0.4-0.2,0.6-0.2l0,0c0,0,0.1,0,0.1,0c0,0,0.1,0,0.1,0c0,0,0.1,0,0.1,0
					c0.2-0.1,0.4-0.2,0.6-0.3c0.3-0.1,0.6-0.3,0.9-0.4c1.2-0.6,2.3-1.4,3.3-2.2c0.2-0.2,0.4-0.3,0.6-0.5c0,0,0,0,0,0l0,0
					c0,0,0.1,0,0.1-0.1c0,0,0,0,0,0c0,0,0,0,0,0c0.1,0,0.1-0.1,0.2-0.1c0,0,0,0,0.1,0c0,0,0,0,0,0c0,0,0.1-0.1,0.1-0.1
					c0.6-0.4,1.1-0.9,1.6-1.5l28.5-28.5c0,0,0,0,0,0c0,0,0.1,0,0.1,0c0.1-0.1,0.2-0.1,0.3-0.2c0.1,0,0.1-0.1,0.2-0.1
					c0.1,0,0.2-0.1,0.2-0.1c0.1,0,0.1-0.1,0.2-0.1c0.1,0,0.2,0,0.2-0.1c0.1,0,0.2,0,0.2,0c0,0,0.1,0,0.1,0c0.1,0,0.1,0,0.2,0
					c0.1,0,0.2,0,0.3,0c1.4,0,2.9,0.8,3.6,2.2C225.4,182.7,225.5,183.3,225.5,183.9z"/>
				<path d="M190.9,209c-0.5,0.5-1.1,1-1.6,1.5c0.2-0.2,0.4-0.4,0.6-0.6l25.6-25.6l3.2-3.2c0.2-0.2,0.5-0.4,0.7-0.5L190.9,209z"/>
				<path d="M222.7,188.4l-29.2,29.2c-0.2,0.2-0.4,0.4-0.6,0.5c-0.1,0.1-0.3,0.3-0.4,0.4c-0.2,0.1-0.3,0.3-0.5,0.4l0,0
					c-0.1,0.1-0.2,0.1-0.2,0.2c0.2-0.2,0.5-0.5,0.7-0.7l29.4-29.4C222.1,188.9,222.4,188.6,222.7,188.4z"/>
				<path fill="#FFFFFF" d="M217.3,179.7l-4.7,4.7l-24.2,24.2c-0.2,0.2-0.5,0.5-0.7,0.7c0.1-0.1,0.2-0.1,0.2-0.2l0,0
					c0.2-0.1,0.3-0.3,0.5-0.4c0.1-0.1,0.3-0.2,0.4-0.4c0.2-0.2,0.4-0.4,0.6-0.5l23.3-23.3l5.4-5.4
					C217.8,179.1,217.6,179.4,217.3,179.7z M223.8,190c-0.1,0-0.2,0.1-0.2,0.2c0,0,0,0,0,0c-0.1,0.1-0.2,0.2-0.3,0.3l-29.4,29.4
					c-0.2,0.2-0.4,0.4-0.6,0.6c0.6-0.4,1.1-0.9,1.6-1.5l29.1-29.1C223.9,190,223.9,190,223.8,190z M190.7,220
					c-0.3,0.2-0.6,0.4-0.9,0.6c-0.2,0.1-0.3,0.2-0.5,0.3c-0.2,0.1-0.3,0.2-0.5,0.3c0,0-0.1,0-0.1,0.1c0,0,0,0,0,0
					c-0.1,0-0.2,0.1-0.3,0.2c-0.3,0.2-0.6,0.3-0.9,0.5c-0.3,0.2-0.6,0.3-0.9,0.4c-0.2,0.1-0.4,0.2-0.7,0.3c-0.3,0.1-0.7,0.3-1,0.4
					c-0.3,0.1-0.7,0.2-1,0.3c0,0,0,0,0,0c-0.4,0.1-0.7,0.2-1.1,0.3c-0.3,0.1-0.6,0.2-0.9,0.2c-0.1,0-0.1,0-0.2,0c0,0,0,0-0.1,0
					c-0.3,0.1-0.6,0.1-0.9,0.1c-0.2,0-0.3,0.1-0.5,0.1c0,0,0,0-0.1,0h0c-0.3,0-0.6,0.1-0.9,0.1c-0.3,0-0.7,0.1-1,0.1
					c-0.4,0-0.8,0-1.1,0h1.1c4.8,0,9.3-1.7,12.9-4.8C191.1,219.7,190.9,219.8,190.7,220z M173.2,216.4h1.1c0.4,0,0.7,0,1.1,0
					c0.4,0,0.7,0,1.1-0.1c0.4,0,0.7-0.1,1.1-0.1c0.3,0,0.6-0.1,0.9-0.2c0.2,0,0.3-0.1,0.4-0.1c0.2,0,0.4-0.1,0.7-0.2
					c0.3-0.1,0.5-0.1,0.8-0.2c0.2,0,0.3-0.1,0.5-0.1c0,0,0,0,0.1,0c0.2-0.1,0.5-0.2,0.7-0.2c0,0,0.1,0,0.1,0
					c0.2-0.1,0.5-0.2,0.7-0.3c0.2-0.1,0.4-0.2,0.6-0.2l0,0c0,0,0.1,0,0.1,0c0,0,0.1,0,0.1,0c0,0,0.1,0,0.1,0
					c0.2-0.1,0.4-0.2,0.6-0.3c0.3-0.1,0.6-0.3,0.9-0.4c1.2-0.6,2.3-1.4,3.3-2.2c0.2-0.2,0.4-0.3,0.6-0.5
					C184.3,214.5,178.9,216.4,173.2,216.4z"/>
			</g>
			<g>
				<path d="M230.1,193.4c0,1-0.4,2.1-1.2,2.8l-31.4,31.4c-4.3,4.3-10.2,6.7-16.3,6.7H67.5c-2.8,0-4.8-2.8-3.7-5.5
					c0.3-0.8,0.8-1.4,1.5-1.8c0.6-0.5,1.4-0.7,2.2-0.7h110.8c0.4,0,0.7,0,1.1,0c0.4,0,0.7,0,1.1-0.1c0.4,0,0.7-0.1,1.1-0.1
					c0.3,0,0.6-0.1,0.9-0.2c0.2,0,0.3-0.1,0.4-0.1c0.2,0,0.4-0.1,0.7-0.2c0.3-0.1,0.5-0.1,0.8-0.2c0.2,0,0.3-0.1,0.5-0.1
					c0,0,0,0,0.1,0c0.2-0.1,0.5-0.2,0.7-0.2c0,0,0.1,0,0.1,0c0.2-0.1,0.5-0.2,0.7-0.3c0.2-0.1,0.4-0.2,0.6-0.2l0,0c0,0,0.1,0,0.1,0
					c0,0,0.1,0,0.1,0c0,0,0.1,0,0.1,0c0.2-0.1,0.4-0.2,0.6-0.3c0.3-0.1,0.6-0.3,0.9-0.4c1.2-0.6,2.3-1.4,3.3-2.2
					c0.2-0.2,0.4-0.3,0.6-0.5c0,0,0,0,0,0l0,0c0,0,0.1,0,0.1-0.1c0,0,0,0,0,0c0,0,0,0,0,0c0.1,0,0.1-0.1,0.2-0.1c0,0,0,0,0.1,0
					c0,0,0,0,0,0c0,0,0.1-0.1,0.1-0.1c0.2-0.2,0.4-0.4,0.6-0.6l29.4-29.4c0.1-0.1,0.2-0.2,0.3-0.3c0,0,0,0,0,0
					c0.1-0.1,0.1-0.1,0.2-0.2c0,0,0.1,0,0.1-0.1c0.1,0,0.1-0.1,0.2-0.1c0.1,0,0.1-0.1,0.2-0.1c0,0,0,0,0,0c0,0,0,0,0,0
					c0.1,0,0.1,0,0.2-0.1c0.1-0.1,0.3-0.1,0.4-0.2c0.1,0,0.2,0,0.2-0.1c0.1,0,0.1,0,0.2,0c0,0,0,0,0.1,0h0.1c0.2,0,0.3,0,0.5,0h0
					c0.2,0,0.4,0,0.5,0c0.1,0,0.3,0,0.5,0.1c0,0,0,0,0.1,0c0,0,0,0,0,0c0,0,0,0,0,0c0.2,0,0.3,0.1,0.5,0.2c0.2,0.1,0.3,0.2,0.5,0.3
					c0.2,0.1,0.3,0.2,0.5,0.3c0.1,0.1,0.3,0.2,0.4,0.4c0.1,0.1,0.2,0.3,0.4,0.5c0.1,0.2,0.2,0.3,0.3,0.5
					C229.9,192.2,230.1,192.8,230.1,193.4z"/>
				<path fill="#FFFFFF" d="M177.2,226.4h1.1c0.4,0,0.7,0,1.1,0c0.4,0,0.7,0,1.1-0.1c0.4,0,0.7-0.1,1.1-0.1c0.3,0,0.6-0.1,0.9-0.2
					c0.2,0,0.3-0.1,0.4-0.1c0.2,0,0.4-0.1,0.7-0.2c0.3-0.1,0.5-0.1,0.8-0.2c0.2,0,0.3-0.1,0.5-0.1c0,0,0,0,0.1,0
					c0.2-0.1,0.5-0.2,0.7-0.2c0,0,0.1,0,0.1,0c0.2-0.1,0.5-0.2,0.7-0.3c0.2-0.1,0.4-0.2,0.6-0.2l0,0c0,0,0.1,0,0.1,0
					c0,0,0.1,0,0.1,0c0,0,0.1,0,0.1,0c0.2-0.1,0.4-0.2,0.6-0.3c0.3-0.1,0.6-0.3,0.9-0.4c1.2-0.6,2.3-1.4,3.3-2.2
					c0.2-0.2,0.4-0.3,0.6-0.5C188.3,224.5,182.9,226.4,177.2,226.4z M221.8,189.1l-29.4,29.4c-0.2,0.2-0.5,0.5-0.7,0.7
					c0.1-0.1,0.2-0.1,0.2-0.2l0,0c0.2-0.1,0.3-0.3,0.5-0.4c0.1-0.1,0.3-0.2,0.4-0.4c0.2-0.2,0.4-0.4,0.6-0.5l29.2-29.2
					C222.4,188.6,222.1,188.9,221.8,189.1z"/>
			</g>
		</g>
		<path d="M187.1,18.4v-0.9h-65.5l-24.2,24l0.2,0.2v98.8h22.7l-0.2,0.1l10.3,23.9c4.5,3,17.1,3,21.7,0l10.3-23.9l-0.3-0.1h5.5l20-20
			V17.9L187.1,18.4z M179.6,102.8l-12,12v-10.5l12-12V102.8z M179.6,49.4l-12,12V49.6l12-12.1V49.4z M179.6,89.4l-12,12V90.9l12-12
			V89.4z M179.6,76.1l-12,12V77.6l12-12V76.1z M179.6,62.8l-12,12V64.2l12-12V62.8z M137.5,41.5l16-16h10.8l-16,16H137.5z
			 M123.9,41.5l16-16h10.8l-16,16H123.9z M124.9,25.5h12.2l-16,16h-12.4L124.9,25.5z M146,158.3c-1.3,0.3-3.1,0.4-4.8,0.4
			c-1.7,0-3.4-0.1-4.7-0.4l-7.7-17.8h25L146,158.3z M159.6,132.5h-54v-83h54V132.5z M151.2,41.5l16-16h12.9l-15.7,16H151.2z
			 M167.6,129.2v-11.6l12-12v11.6L167.6,129.2z"/>
	</g>
</g>
</svg>
