<?xml version="1.0" encoding="utf-8"?>
<!-- Generator: Adobe Illustrator 18.0.0, SVG Export Plug-In . SVG Version: 6.00 Build 0)  -->
<!DOCTYPE svg PUBLIC "-//W3C//DTD SVG 1.1//EN" "http://www.w3.org/Graphics/SVG/1.1/DTD/svg11.dtd">
<svg version="1.1" xmlns="http://www.w3.org/2000/svg" xmlns:xlink="http://www.w3.org/1999/xlink" x="0px" y="0px"
	 viewBox="0 0 300 300" enable-background="new 0 0 300 300" xml:space="preserve">
<g id="Layer_1" display="none">
</g>
<g id="Layer_2">
	<path d="M214.7,0h-7v0c0.4,0,0.8,0,1.3,0C210.9,0,212.8,0,214.7,0z"/>
	<g>
		<path d="M195.5,192.5l2.3,2.3C197.2,193.9,196.4,193.2,195.5,192.5z"/>
		<path d="M229,198.5c0,0,0-0.1,0-0.2c-0.1-7.6-7.9-14.1-22.5-19c-0.8-0.2-1.5-0.5-2.3-0.7c-0.6-0.2-1.2-0.3-1.8-0.5
			c-6.8-1.9-14.6-3.5-23-4.5c-0.5-0.1-0.9-0.1-1.4-0.2c-8.8-1.1-18.3-1.6-28.1-1.6c-11.9,0-23.4,0.8-33.8,2.4
			c-0.8,0.1-1.6,0.2-2.4,0.4c-5.4,0.9-10.5,2-15.2,3.3c-0.7,0.2-1.5,0.4-2.2,0.6c-0.2,0-0.4,0.1-0.5,0.1c-5,1.5-9.2,3.2-12.7,5.1
			c-0.6,0.3-1.2,0.7-1.8,1c-4.7,2.8-7.8,5.8-9.3,9.2c-0.3,0.7-0.5,1.4-0.7,2.1c-0.2,0.8-0.3,1.5-0.3,2.3h0
			c-0.1,1.8-1.4,43.3,24.1,70c13.5,14.1,32,21.2,54.9,21.2s41.4-7.1,54.9-21.2c20-20.8,23.5-50.7,24.1-63.6c0-1,0.1-1.9,0.1-2.7
			C229.1,200.1,229,199,229,198.5z M98.1,186.3c1.5-0.5,3.1-0.9,4.7-1.3l5.3,5.3c0.7-0.3,1.3-0.6,2-0.8l-5.1-5.1
			c4.9-1.1,10.1-2.1,15.7-2.8l4.4,4.4c0.8-0.1,1.7-0.2,2.5-0.3l-4.4-4.4c5.5-0.6,11.2-1.1,17.2-1.3l4.5,4.5c0.9,0,1.8,0,2.8,0
			l-4.6-4.6c2.2-0.1,4.5-0.1,6.8-0.1c4.1,0,8,0.1,11.8,0.3l5.1,5.1c1,0.1,2.1,0.2,3.1,0.3l-5.2-5.2c7.6,0.5,14.6,1.3,20.8,2.3
			l9.8,9.8l2.3,2.3l12.8,12.8c-2.4,1.1-5.2,2.1-8.6,3.2c-1.7,0.5-3.4,1-5.2,1.4l-5.3-5.3c-0.7,0.3-1.4,0.5-2,0.8l5,5
			c-4.9,1.1-10.1,2-15.7,2.7l-4.4-4.4c-0.8,0.1-1.7,0.2-2.5,0.3l4.4,4.4c-5.5,0.6-11.3,1.1-17.2,1.3l-4.5-4.5c-0.9,0-1.9,0-2.8,0
			l4.6,4.6c-2,0.1-4.1,0.1-6.2,0.1c-4.3,0-8.5-0.1-12.5-0.3l-5.1-5.1c-1-0.1-2.1-0.2-3.1-0.3l5.2,5.2c-7.7-0.5-14.7-1.3-20.9-2.4
			L89,189.7C91.5,188.5,94.5,187.4,98.1,186.3z M87.1,190.6l23,23C90.4,209.7,79,203.4,79,198.5C79,196.5,81.3,193.6,87.1,190.6z
			 M220,214.2c-0.1,0.8-0.2,1.6-0.4,2.5c-2.1,13.7-7.4,32.4-20.6,46.1c-12,12.4-28.5,18.7-49.1,18.7s-37.1-6.3-49.1-18.7
			c-15-15.6-19.8-37.7-21.3-51.5c3.4,2.2,7.7,4.2,12.9,6c0.8,0.3,1.5,0.5,2.4,0.8c0.3,0.1,0.6,0.2,0.9,0.3
			c14.5,4.4,33.8,6.8,54.2,6.8s39.7-2.4,54.2-6.8c4.8-1.4,8.9-3.1,12.3-4.8c0.6-0.3,1.2-0.7,1.8-1c0.7-0.4,1.4-0.8,2-1.2
			C220.3,212.2,220.1,213.2,220,214.2z M212.5,206.6l-23.4-23.4c15.3,2.9,25.8,7.4,29.9,11.5c1.3,1.3,2,2.6,2,3.8
			C221,200.5,218.6,203.6,212.5,206.6z"/>
		<path d="M197.8,194.8l-2.3-2.3c-5.3-4-15.7-6-25.4-7c-1-0.1-2.1-0.2-3.1-0.3c-7.5-0.6-14.1-0.7-16.9-0.7c-0.8,0-1.5,0-2.2,0
			c-0.9,0-1.8,0-2.8,0c-6.1,0.1-11.9,0.6-17.2,1.2c-0.8,0.1-1.7,0.2-2.5,0.3c-2.8,0.4-5.5,0.9-7.9,1.4c-2.3,0.5-4.8,1.1-7.1,2
			c-0.7,0.2-1.4,0.5-2,0.8c-4,1.8-7.2,4.3-7.2,8.2c0,8,14.7,11.4,28.2,12.9c1.1,0.1,2.1,0.2,3.1,0.3c7.8,0.7,14.7,0.8,17.6,0.8
			c0.5,0,1.1,0,1.6,0c0.9,0,1.9,0,2.8,0c6.1-0.1,12-0.5,17.3-1.2c0.8-0.1,1.7-0.2,2.5-0.3c3-0.4,5.9-0.9,8.5-1.5
			c2.1-0.5,4.4-1.1,6.7-1.8c0.7-0.2,1.4-0.5,2-0.8c4.2-1.8,7.6-4.4,7.6-8.4C199,197.1,198.6,195.9,197.8,194.8z M185.1,200.6
			c-0.7,0.2-1.4,0.4-2.2,0.6c-3.9,1-9.3,1.9-15.9,2.6c-0.8,0.1-1.7,0.1-2.6,0.2c-4.3,0.3-9.1,0.5-14.4,0.5c-1.2,0-2.4,0-3.6,0
			c-1,0-2,0-2.9-0.1c-8.2-0.3-15-1-20.4-1.9c-1.2-0.2-2.4-0.4-3.5-0.7c-5-1.1-8.4-2.3-10-3.3c0.9-0.6,2.5-1.3,4.7-2
			c0.7-0.2,1.4-0.4,2.2-0.6c3.9-1,9.2-2,15.8-2.6c0.8-0.1,1.7-0.2,2.6-0.2c4.4-0.4,9.4-0.6,15-0.6c1,0,2,0,2.9,0c1,0,1.9,0,2.9,0.1
			c8.1,0.2,14.9,0.9,20.3,1.8c1.2,0.2,2.4,0.4,3.5,0.6c5.5,1.1,9.1,2.4,10.7,3.5C189.3,199.1,187.6,199.9,185.1,200.6z"/>
		<path d="M229,198.3v0.2C229,198.5,229,198.4,229,198.3L229,198.3z"/>
		<path d="M150,153.5c-20.4,0-39.7-2.4-54.2-6.8C79.6,141.8,71,135,71,126.9l0-0.1c0-1.2,1-29,10.9-57.4
			c13.5-38.5,37-58.9,68.1-58.9s54.6,20.4,68.1,58.9c9.9,28.3,10.9,56.2,10.9,57.4l0,0.1c0,8.1-8.6,14.9-24.8,19.8
			C189.7,151.1,170.4,153.5,150,153.5z M79,126.9c0.1,7.6,27.8,18.6,71,18.6c19.7,0,38.1-2.3,51.9-6.5c14-4.2,19.1-9.2,19.1-12.1
			c-0.1-1.6-1.2-28.6-10.5-55.1c-12.4-35.4-32.8-53.3-60.5-53.3c-27.8,0-48.1,18-60.5,53.5C80.2,98.5,79.1,125.4,79,126.9z"/>
		<g>
			<rect x="71" y="139.2" width="2" height="4"/>
			<rect x="71" y="150" width="2" height="4"/>
			<rect x="71" y="160.8" width="2" height="4"/>
			<rect x="71" y="171.7" width="2" height="4"/>
			<rect x="71" y="182.5" width="2" height="4"/>
		</g>
		<g>
			<rect x="227" y="139.2" width="2" height="4"/>
			<rect x="227" y="150" width="2" height="4"/>
			<rect x="227" y="160.8" width="2" height="4"/>
			<rect x="227" y="171.7" width="2" height="4"/>
			<rect x="227" y="182.5" width="2" height="4"/>
		</g>
	</g>
</g>
</svg>
