<?xml version="1.0" encoding="utf-8"?>
<!-- Generator: Adobe Illustrator 18.0.0, SVG Export Plug-In . SVG Version: 6.00 Build 0)  -->
<!DOCTYPE svg PUBLIC "-//W3C//DTD SVG 1.1//EN" "http://www.w3.org/Graphics/SVG/1.1/DTD/svg11.dtd">
<svg version="1.1" xmlns="http://www.w3.org/2000/svg" xmlns:xlink="http://www.w3.org/1999/xlink" x="0px" y="0px"
	 viewBox="0 0 300 300" enable-background="new 0 0 300 300" xml:space="preserve">
<g id="Layer_1" display="none">
</g>
<g id="Layer_2">
	<g>
		<path d="M223.9,81.1h-169v100h169V81.1z M215.9,173.1h-153v-84h153V173.1z"/>
		<path d="M56.6,44.9L37.4,64.1v134h83.1v3.5h-20.3l-33.5,33.5v20h120.5l33.5-33.5v-20H164v-3.5h77.4l19.1-19.1v-134H56.6z
			 M252.6,165.1l-11.1,11.1v-7.5l11.1-11.1V165.1z M58.6,64.1l11.1-11.1h7.4L66.1,64.1H58.6z M80,52.9h7.4L76.3,64.1h-7.4L80,52.9z
			 M90.2,52.9h7.4L86.5,64.1h-7.4L90.2,52.9z M100.5,52.9h7.4L96.8,64.1h-7.4L100.5,52.9z M110.7,52.9h7.4L107,64.1h-7.4L110.7,52.9
			z M120.9,52.9h7.4l-11.1,11.1h-7.4L120.9,52.9z M131.2,52.9h7.4l-11.1,11.1H120L131.2,52.9z M141.4,52.9h7.4l-11.1,11.1h-7.4
			L141.4,52.9z M151.6,52.9h7.4l-11.1,11.1h-7.4L151.6,52.9z M161.9,52.9h7.4l-11.1,11.1h-7.4L161.9,52.9z M172.1,52.9h7.4
			l-11.1,11.1H161L172.1,52.9z M182.3,52.9h7.4l-11.1,11.1h-7.4L182.3,52.9z M192.6,52.9h7.4l-11.1,11.1h-7.4L192.6,52.9z
			 M202.8,52.9h7.4l-11.1,11.1h-7.4L202.8,52.9z M213,52.9h7.4l-11.1,11.1h-7.4L213,52.9z M223.3,52.9h7.4l-11.1,11.1h-7.4
			L223.3,52.9z M233.5,52.9h7.4l-11.1,11.1h-7.4L233.5,52.9z M243.7,52.9h7.4L240,64.1h-7.4L243.7,52.9z M252.6,154.8l-11.1,11.1
			v-7.5l11.1-11.1V154.8z M252.6,144.5l-11.1,11.1v-7.5l11.1-11.1V144.5z M252.6,134.1l-11.1,11.1v-7.5l11.1-11.1V134.1z
			 M252.6,123.8l-11.1,11.1v-7.5l11.1-11.1V123.8z M252.6,113.5l-11.1,11.1v-7.5l11.1-11.1V113.5z M252.6,103.2l-11.1,11.1v-7.5
			l11.1-11.1V103.2z M252.6,92.8L241.4,104v-7.5l11.1-11.1V92.8z M252.6,82.5l-11.1,11.1v-7.5L252.6,75V82.5z M252.6,72.2
			l-11.1,11.1v-7.5l11.1-11.1V72.2z M252.6,61.9L241.4,73v-7.5l11.1-11.1V61.9z M59.9,52.9h7.1L55.8,64.1h-7.1L59.9,52.9z
			 M180.2,247.1H74.7v-4h105.5V247.1z M215.7,218.6l-27.5,27.5v-6.3l27.5-27.5V218.6z M207,209.6l-25.5,25.5H78l25.5-25.5h17v14.3
			H164v-14.3H207z M128.5,215.9v-17.3H156v17.3H128.5z M233.4,190.1h-188v-118h188V190.1z M241.4,186.7v-7.7l11.1-11.1v7.7
			L241.4,186.7z"/>
	</g>
</g>
</svg>
