<?xml version="1.0" encoding="utf-8"?>
<!-- Generator: Adobe Illustrator 18.0.0, SVG Export Plug-In . SVG Version: 6.00 Build 0)  -->
<!DOCTYPE svg PUBLIC "-//W3C//DTD SVG 1.1//EN" "http://www.w3.org/Graphics/SVG/1.1/DTD/svg11.dtd">
<svg version="1.1" xmlns="http://www.w3.org/2000/svg" xmlns:xlink="http://www.w3.org/1999/xlink" x="0px" y="0px"
	 viewBox="0 0 300 300" enable-background="new 0 0 300 300" xml:space="preserve">
<g id="Layer_1" display="none">
</g>
<g id="Layer_2">
	<g>
		<path d="M30.8,238.5L30.8,238.5l3.7,0v0C33.3,238.5,32,238.5,30.8,238.5z"/>
		<path d="M45.7,238.5c-2.4,0-4.8,0-7.1,0H45.7z"/>
		<path fill="none" stroke="#000000" stroke-width="8" stroke-miterlimit="10" d="M214.5,243.5"/>
		<path d="M38.6,238.5h-7.8v0c1.2,0,2.4,0,3.7,0c0.4,0,0.9,0,1.3,0C36.7,238.5,37.6,238.5,38.6,238.5z"/>
		<polygon fill="none" stroke="#000000" stroke-width="4" stroke-miterlimit="10" points="43.8,87.8 43.8,76.8 58.3,91.3 		"/>
		<polygon fill="none" stroke="#000000" stroke-width="4" stroke-miterlimit="10" points="49.5,53.6 57.3,45.8 57.3,66.3 		"/>
		<polygon fill="none" stroke="#000000" stroke-width="4" stroke-miterlimit="10" points="236.5,50.2 247.3,48 236,65.1 		"/>
		<polygon fill="none" stroke="#000000" stroke-width="4" stroke-miterlimit="10" points="242.9,78.6 252.7,83.4 233.3,90 		"/>
		<path d="M166.8,130.5v-5c22-2.5,26.7-9.3,27.6-10.8l0.4-0.9V80.4c12.4-3.9,15.8-8.8,16.6-10.2l0.4-0.9V7.5h-8v9l-12.5,12.5
			l1.4,1.4l11.1-11.1v8.7l-12.5,12.5l1.4,1.4l11.1-11.1v8.7l-12.5,12.5l1.4,1.4l11.1-11.1v8.7l-12.5,12.5l1.4,1.4l11.1-11.1v13
			c-2.3,2.2-14.1,10.9-56,10.9c-41.8,0-53.5-8.5-56-10.9V7.5h-8v61.8l0.5,0.9c0.8,1.5,4.1,6.3,16.5,10.2v33.4l0.5,0.9
			c0.8,1.6,5.6,8.3,27.5,10.8v5h-45l-57.3,57.3v102.7h191.3l55.7-55.7V130.5H166.8z M218.8,232.6l22.8,22.8l-10,10l-12.8-12.8V232.6
			z M218.8,229.7v-19.9L253,244l-10,10L218.8,229.7z M218.8,207v-17.4l1.3-1.3l44.3,44.3l-10,10L218.8,207z M221.5,186.9l10-10
			l34.1,34.1v19.9L221.5,186.9z M232.9,175.5l10-10l22.7,22.7v19.9L232.9,175.5z M244.2,164.1l10-10l11.3,11.3v19.9L244.2,164.1z
			 M265.5,162.6l-9.9-9.9l9.9-9.9V162.6z M108.8,111.3V82.5c4.6,1,10.1,1.8,16.6,2.4v19.6h8v-19c4.4,0.2,9.2,0.4,14.4,0.4
			c5.1,0,9.7-0.1,14-0.3v19h8V84.9c6.7-0.6,12.3-1.4,17-2.4v28.8c-2.2,1.8-10.9,7.2-39,7.2S111,113.1,108.8,111.3z M166.8,175.5
			c0.7,0.9,1.6,1.7,2.4,2.5v38.8c-1.5-3.1-2.4-6.6-2.4-10.6V175.5z M148.6,150.5l10.3-10.3v9.4l-11.7,11.7l1.4,1.4l10.3-10.3v9.4
			l-11.7,11.7l1.4,1.4l10.3-10.3v9.4l-11.7,11.7l1.4,1.4l10.3-10.3v9.4l-11.7,11.7l1.4,1.4l10.3-10.3v9.4L147.2,210l1.4,1.4
			l10.3-10.3v11.9c-1.8,1.1-5.6,2.7-11.7,2.7c-5.9,0-9-1.9-10.3-2.9v-86.7c3.3,0.2,7,0.3,11,0.3c3.6,0,6.9-0.1,10-0.2l-10.7,10.7
			l1.4,1.4l10.3-10.3v9.4l-11.7,11.7L148.6,150.5z M130.8,218.2c2.1,2.1,7.1,5.6,16.4,5.6c7,0,11.9-1.8,14.9-3.4
			c3.7,7.6,10.5,13.7,20.1,18.1h-80.5C112.8,234.3,123,227.9,130.8,218.2z M171.3,220.2v-40.4c0.9,0.7,1.8,1.4,2.8,2.1v41.6
			C173,222.4,172.1,221.3,171.3,220.2z M176,225.3v-42.1c1,0.6,2.1,1.3,3.2,1.9v42.7C178.1,227,177,226.2,176,225.3z M181.3,229v-43
			c1.3,0.6,2.6,1.2,4,1.7v43.3C183.9,230.5,182.5,229.8,181.3,229z M98.5,231.1V187c1.6-0.5,3.2-1.1,4.8-1.8v43.9
			C101.7,229.8,100.1,230.5,98.5,231.1z M105.3,228.2v-43.8c1.5-0.7,3-1.4,4.5-2.1v43.5C108.3,226.6,106.8,227.4,105.3,228.2z
			 M111.8,224.5v-43.3c1.1-0.6,2.2-1.2,3.2-1.9v42.9C113.9,223,112.9,223.8,111.8,224.5z M117,220.7V178c1-0.7,2-1.4,3-2.1V218
			C119,218.9,118,219.8,117,220.7z M122,216v-41.7c0.8-0.7,1.7-1.4,2.5-2.2v41C123.7,214.1,122.9,215.1,122,216z M126.5,210.5v-40.3
			c0.8-0.8,1.6-1.6,2.3-2.5v39.2C128.1,208.1,127.3,209.3,126.5,210.5z M87.2,138.5h41.7v15.7c-18.2,30.5-59.5,31.7-89,31.6
			L87.2,138.5z M96.5,187.6v44.2c-1.6,0.6-3.3,1.1-5,1.6V189C93.2,188.6,94.9,188.1,96.5,187.6z M89.5,189.5v44.4c-2,0.5-4,1-6,1.4
			v-44.5C85.5,190.4,87.5,190,89.5,189.5z M81.5,191.2v44.5c-2.2,0.4-4.3,0.7-6.5,1v-44.6C77.2,191.9,79.3,191.6,81.5,191.2z
			 M73,192.4V237c-2.4,0.3-4.8,0.5-7.2,0.7v-44.7C68.2,192.9,70.6,192.7,73,192.4z M63.8,193.2v44.7c-2.4,0.2-4.9,0.3-7.2,0.4v-44.7
			C58.9,193.5,61.3,193.4,63.8,193.2z M54.5,193.7v44.7c-2.9,0.1-5.8,0.1-8.7,0.2v-44.7C48.7,193.8,51.6,193.7,54.5,193.7z
			 M30.8,238.5c1.2,0,2.4,0,3.7,0v-44.7h1.3c1.8,0,3.8,0,5.7,0c0.8,0,1.6,0,2.3,0v44.7c-1.8,0-3.5,0-5.2,0L30.8,238.5L30.8,238.5z
			 M210.5,282.5h-176v-35.9c0.4,0,0.8,0,1.3,0c1.8,0,3.8,0,5.7,0h169V282.5z M187.3,232v-43.5c0.1,0,0.1,0.1,0.2,0.1
			c1.6,0.6,3.2,1.1,4.8,1.6v43.7C190.6,233.3,188.9,232.7,187.3,232z M194.3,234.5v-43.7c2.4,0.6,4.6,1.1,6.8,1.5v43.9
			C198.9,235.7,196.6,235.1,194.3,234.5z M210.8,237.6c-2-0.2-4.7-0.5-7.8-1.1v-43.9c3.1,0.5,5.8,0.8,7.8,1V237.6z M166.8,154.1
			v-15.6h91.8l-47.1,47.1C200.9,184.7,167.1,179.6,166.8,154.1z M218.8,255.3l11.4,11.4l-11.4,11.4V255.3z"/>
	</g>
</g>
</svg>
