<?xml version="1.0" encoding="utf-8"?>
<!-- Generator: Adobe Illustrator 18.0.0, SVG Export Plug-In . SVG Version: 6.00 Build 0)  -->
<!DOCTYPE svg PUBLIC "-//W3C//DTD SVG 1.1//EN" "http://www.w3.org/Graphics/SVG/1.1/DTD/svg11.dtd">
<svg version="1.1" xmlns="http://www.w3.org/2000/svg" xmlns:xlink="http://www.w3.org/1999/xlink" x="0px" y="0px"
	 viewBox="0 0 300 300" enable-background="new 0 0 300 300" xml:space="preserve">
<g id="Layer_1" display="none">
</g>
<g id="Layer_2">
	<g>
		<path d="M85.7,181.2L3.6,263.4v24h214l78.8-78.8v-27.3H85.7z M209.6,279.4h-198v-8h198V279.4z M221.3,272.4l-3.7,3.7v-4.7l3.7-3.7
			V272.4z M227.4,266.3l-4.2,4.2v-4.7l4.2-4.2V266.3z M233.6,260.1l-4.2,4.2v-4.7l4.2-4.2V260.1z M239.8,253.9l-4.2,4.2v-4.7
			l4.2-4.2V253.9z M245.9,247.8l-4.2,4.2v-4.7l4.2-4.2V247.8z M252.1,241.6l-4.2,4.2v-4.7l4.2-4.2V241.6z M258.3,235.4l-4.2,4.2
			v-4.7l4.2-4.2V235.4z M264.4,229.3l-4.2,4.2v-4.7l4.2-4.2V229.3z M270.6,223.1l-4.2,4.2v-4.7l4.2-4.2V223.1z M276.8,216.9
			l-4.2,4.2v-4.7l4.2-4.2V216.9z M282.9,210.8l-4.2,4.2v-4.7l4.2-4.2V210.8z M288.4,205.3l-3.5,3.5v-4.7l3.5-3.5V205.3z
			 M214.3,263.4H14.9L89,189.2h199.4L214.3,263.4z"/>
		<polyline fill="none" stroke="#000000" stroke-width="4" stroke-miterlimit="10" points="116.3,279.4 116.3,263.4 149,230.7 		"/>
		<line fill="none" stroke="#000000" stroke-width="4" stroke-miterlimit="10" x1="153.1" y1="167.9" x2="153.1" y2="211.9"/>
		<line fill="none" stroke="#000000" stroke-width="4" stroke-miterlimit="10" x1="180.8" y1="226.9" x2="196.4" y2="226.9"/>
		<line fill="none" stroke="#000000" stroke-width="4" stroke-miterlimit="10" x1="177.2" y1="213" x2="190.7" y2="205.1"/>
		<line fill="none" stroke="#000000" stroke-width="4" stroke-miterlimit="10" x1="167.2" y1="202.8" x2="175" y2="189.2"/>
		<line fill="none" stroke="#000000" stroke-width="4" stroke-miterlimit="10" x1="122.4" y1="226.9" x2="106.7" y2="226.9"/>
		<line fill="none" stroke="#000000" stroke-width="4" stroke-miterlimit="10" x1="125.9" y1="213" x2="112.4" y2="205.1"/>
		<line fill="none" stroke="#000000" stroke-width="4" stroke-miterlimit="10" x1="135.9" y1="202.8" x2="128.1" y2="189.2"/>
		<path fill="none" stroke="#000000" stroke-width="4" stroke-miterlimit="10" d="M168.8,226.9c0-8.3-7.5-15-16.7-15
			s-16.7,6.7-16.7,15c0,3,7.5,4.8,16.7,4.8S168.8,228.9,168.8,226.9z"/>
		<path d="M194.7,34.7v0.2C194.7,34.8,194.7,34.7,194.7,34.7L194.7,34.7z"/>
		<path d="M194.7,34.7c0-0.1,0-0.1,0-0.2c-0.4-6.8-10.1-14.8-36.5-14.8c-2,0-4,0.1-6,0.2c-10.5,0.5-20.3,2.5-27.7,5.4
			c-10.9,4.4-13.1,9.6-13,13.4h0v97.5c0,5.7,8.1,9.7,18.2,12.1l11.7,21.2c4.5,3,17.1,3,21.7,0l11.6-20.9c10.6-2.4,20-6.5,20-12.4
			V34.9C194.7,34.8,194.7,34.7,194.7,34.7z M186.7,34.9L186.7,34.9c0,1.2-2.2,3.2-6.6,5.1l-11.8-11.8
			C180.8,29.6,186.6,33.3,186.7,34.9z M165.2,27.9l12.9,12.9c-2.5,1-5.7,1.9-9.3,2.7l-15.7-15.7c1.7-0.1,3.4-0.1,5.1-0.1
			C160.7,27.7,163,27.8,165.2,27.9z M140.9,45.3l-12.9-12.9c2.5-1,5.7-1.9,9.3-2.7l15.7,15.7c-1.7,0.1-3.4,0.1-5.1,0.1
			C145.5,45.6,143.1,45.5,140.9,45.3z M155.7,45.3l-16-16c3.2-0.6,6.7-1.1,10.7-1.3l16,16C163.2,44.6,159.7,45,155.7,45.3z
			 M126.1,33.3l11.7,11.7c-12.4-1.4-18.2-5.1-18.3-6.7C119.4,37.3,121.7,35.3,126.1,33.3z M157.4,163.2c-1.4,0.3-3.3,0.5-5.2,0.5
			c-1.9,0-3.8-0.2-5.1-0.5l-7.3-13.2c4.8,0.6,9.6,0.9,13.9,0.9c3.2,0,6.9-0.2,10.8-0.7L157.4,163.2z M153.8,142.9
			c-18.9,0-32.1-5-34.3-7.4v-87c5.8,3,14.9,5.1,28.5,5.1c2,0,4,0,6-0.2c10.5-0.5,20.3-2.5,27.7-5.4c1.9-0.8,3.6-1.6,5-2.4v0.1
			l-13.5,13.5l1.4,1.4l12.1-12.1v8.7l-13.5,13.5l1.4,1.4L186.7,60v8.7l-13.5,13.5l1.4,1.4l12.1-12.1v8.7l-13.5,13.5l1.4,1.4
			l12.1-12.1v8.7l-13.5,13.5l1.4,1.4l12.1-12.1v8.7l-13.5,13.5l1.4,1.4l12.1-12.1v8.7l-13.5,13.5l1.4,1.4l12.1-12.1v17.8
			C184.2,137.8,171,142.9,153.8,142.9z"/>
	</g>
</g>
</svg>
