<?xml version="1.0" encoding="utf-8"?>
<!-- Generator: Adobe Illustrator 18.0.0, SVG Export Plug-In . SVG Version: 6.00 Build 0)  -->
<!DOCTYPE svg PUBLIC "-//W3C//DTD SVG 1.1//EN" "http://www.w3.org/Graphics/SVG/1.1/DTD/svg11.dtd">
<svg version="1.1" xmlns="http://www.w3.org/2000/svg" xmlns:xlink="http://www.w3.org/1999/xlink" x="0px" y="0px"
	 viewBox="0 0 300 300" enable-background="new 0 0 300 300" xml:space="preserve">
<g id="Layer_1" display="none">
</g>
<g id="Layer_2">
	<g>
		<path d="M144.6,124.1L132.7,145l-6.8,12h13.8H150L118.4,187l7-12.8l6.4-11.8h-13.5h-6.6l21.6-38.3H144.6 M158.3,116.1h-29.7
			L98,170.4h20.3L98,207.7l5.3,4.7l66.7-63.5h-30.3L158.3,116.1L158.3,116.1z"/>
		<path d="M164,59.2l-30-22L23.7,236.7l30,22h223.5L164,59.2z M74.8,236.7l19.1,14H76.7l-19.1-14H74.8z M78.2,236.7h17.2l19.1,14
			H97.3L78.2,236.7z M98.7,236.7h17.2l19.1,14h-17.2L98.7,236.7z M119.3,236.7h17.2l19.1,14h-17.2L119.3,236.7z M139.9,236.7h17.2
			l19.1,14H159L139.9,236.7z M160.4,236.7h17.2l19.1,14h-17.2L160.4,236.7z M181,236.7h17.2l19.1,14h-17.2L181,236.7z M201.6,236.7
			h17.2l19.1,14h-17.2L201.6,236.7z M222.1,236.7H239l19.1,14h-16.9L222.1,236.7z M243.3,230l-7.9-13.9l14.3,10.5l7.9,13.9
			L243.3,230z M175.9,96.4l-14.3-10.5l-7.8-13.7l14.3,10.4L175.9,96.4z M178.3,100.6l7.8,13.7l-14.2-10.4L164,90.2L178.3,100.6z
			 M188.5,118.6l7.8,13.7L182,121.9l-7.8-13.7L188.5,118.6z M198.7,136.6l7.8,13.7l-14.3-10.4l-7.8-13.7L198.7,136.6z M208.9,154.6
			l7.8,13.7l-14.3-10.5l-7.8-13.7L208.9,154.6z M219.1,172.6l7.8,13.7l-14.2-10.5l-7.8-13.7L219.1,172.6z M229.3,190.6l7.8,13.7
			l-14.3-10.5l-7.8-13.7L229.3,190.6z M239.5,208.6l7.8,13.7L233,211.8l-7.8-13.7L239.5,208.6z M157.9,64.7l7.8,13.7L151.4,68
			l-7.8-13.7L157.9,64.7z M134.1,53.6l99.3,175.1H37.2L134.1,53.6z M37.2,236.7h17l19.1,14h-17L37.2,236.7z"/>
	</g>
</g>
</svg>
