<?xml version="1.0" encoding="utf-8"?>
<!-- Generator: Adobe Illustrator 18.0.0, SVG Export Plug-In . SVG Version: 6.00 Build 0)  -->
<!DOCTYPE svg PUBLIC "-//W3C//DTD SVG 1.1//EN" "http://www.w3.org/Graphics/SVG/1.1/DTD/svg11.dtd">
<svg version="1.1" xmlns="http://www.w3.org/2000/svg" xmlns:xlink="http://www.w3.org/1999/xlink" x="0px" y="0px"
	 viewBox="0 0 300 300" enable-background="new 0 0 300 300" xml:space="preserve">
<g id="Layer_1" display="none">
</g>
<g id="Layer_2">
	<g>
		<g>
			<path d="M142.3,97.6V78.1l-35.5-35.5h-17l-32.2,5.8l26,26l-3.8,3.8l-18-18H45.3l-7.1,32.1l34.1,34.1h24.8l121.2,121.2h17
				l28.5-28.5L142.3,97.6z M236.7,229.2h5.7l-4.1,4.1h-5.7L236.7,229.2z M238.7,227.2l4.1-4.1h5.7l-4.1,4.1H238.7z M115.2,62.3h-5.7
				l-4.9-4.9h5.7L115.2,62.3z M117.2,64.3l4.9,4.9h-5.7l-4.9-4.9H117.2z M124.1,71.2l4.9,4.9h-5.7l-4.9-4.9H124.1z M125.3,90.6h9
				v4.5h-9V90.6z M136.5,103.1l5.1,5.1h-5.7l-5.1-5.1H136.5z M143.6,110.1l5.1,5.1H143l-5.1-5.1H143.6z M150.7,117.3l5.1,5.1h-5.7
				l-5.1-5.1H150.7z M157.8,124.4l5.1,5.1h-5.7l-5.1-5.1H157.8z M165,131.5l5.1,5.1h-5.7l-5.1-5.1H165z M172.1,138.7l5.1,5.1h-5.7
				l-5.1-5.1H172.1z M179.3,145.8l5.1,5.1h-5.7l-5.1-5.1H179.3z M186.4,153l5.1,5.1h-5.7l-5.1-5.1H186.4z M193.6,160.1l5.1,5.1H193
				l-5.1-5.1H193.6z M200.7,167.3l5.1,5.1h-5.7l-5.1-5.1H200.7z M207.9,174.4l5.1,5.1h-5.7l-5.1-5.1H207.9z M215,181.6l5.1,5.1h-5.7
				l-5.1-5.1H215z M222.1,188.7l5.1,5.1h-5.7l-5.1-5.1H222.1z M229.3,195.9l5.1,5.1h-5.7l-5.1-5.1H229.3z M236.4,203l5.1,5.1h-5.7
				l-5.1-5.1H236.4z M243.6,210.1l4.9,4.9h-5.7l-4.9-4.9H243.6z M134.3,88.6h-9v-4.5h9V88.6z M103.5,50.6l4.8,4.8h-5.7l-4.8-4.8
				H103.5z M74.2,83.7l-2.6,2.6l-5-5h5.2L74.2,83.7z M69.8,79.3h-5.2l-4.6-4.6h5.2L69.8,79.3z M58.5,68.1l4.6,4.6h-5.2l-4.6-4.6
				H58.5z M102.7,120.7l-2.3-2.3h-3.3H75.6L46.9,89.6L50,76L65.9,92l5.7,5.7l5.7-5.7l12-12l5.7-5.7l-5.7-5.7L74.1,53.5l13-2.3
				l30.2,30.2v16.2v3.3l2.3,2.3l115.8,115.8l-17.2,17.2L102.7,120.7z M232,239.6h-5.7l4.3-4.3h5.7L232,239.6z"/>
			<circle cx="219.3" cy="219.1" r="4"/>
		</g>
		<g>
			<path d="M172.1,127.4l51.8-51.8l6,6l-6.1,0v2l6.3,0l-5,5l-8.3,0v2l6.3,0l-5,5l-8.3,0v2l6.3,0l-5,5l-8.3,0v2l6.3,0l-5,4.9l-8.3,0
				v2h6.3l-4.9,4.9l-8.3,0v2l6.3,0l-5,5l-8.3,0v2l6.3,0l-4.9,4.9l-8.3,0v0.3l1.7,1.7l4.6,0l-2.3,2.3l5.7,5.7l76.7-76.7L243.2,45
				l-76.7,76.7L172.1,127.4z M243.2,56.3l7.1,7.1l-13.6,13.6l-7.1-7.1L243.2,56.3z"/>
			<path d="M153.5,182.7l-4.6,4.6l-6.9,0v2l4.9,0l-5,5H135v2l4.9,0l-5,4.9h-6.9v2l4.9,0l-5,5l-6.9,0v2l4.9,0l-4.9,4.9l-6.9,0v2
				l4.9,0l-5,5l-6.9,0v2l4.9,0l-4.9,4.9l-6.9,0v2l4.9,0l-5,5l-6.9,0v2l4.9,0l-11.1,11.1c-1.7-0.3-4.7-1.2-8.2-3.1l46.5-46.5
				c1.6-1.6,1.6-4.1,0-5.7c-1.6-1.6-4.1-1.6-5.7,0l-47.6,47.6c-1.2-1-2.5-2.1-3.7-3.4c-1.3-1.3-2.4-2.5-3.4-3.7l47.6-47.6
				c1.6-1.6,1.6-4.1,0-5.7s-4.1-1.6-5.7,0l-46.5,46.5c-1.9-3.6-2.7-6.5-3.1-8.2l66.4-66.4l-5.7-5.7l-69,69l0.1,1.8
				c0,0.5,0.9,12.9,13.5,25.6c12.7,12.7,25.1,13.5,25.6,13.5l1.8,0.1l69-69L153.5,182.7z"/>
		</g>
	</g>
</g>
</svg>
