<?xml version="1.0" encoding="utf-8"?>
<!-- Generator: Adobe Illustrator 18.0.0, SVG Export Plug-In . SVG Version: 6.00 Build 0)  -->
<!DOCTYPE svg PUBLIC "-//W3C//DTD SVG 1.1//EN" "http://www.w3.org/Graphics/SVG/1.1/DTD/svg11.dtd">
<svg version="1.1" xmlns="http://www.w3.org/2000/svg" xmlns:xlink="http://www.w3.org/1999/xlink" x="0px" y="0px"
	 viewBox="0 0 300 300" enable-background="new 0 0 300 300" xml:space="preserve">
<g id="Layer_1" display="none">
</g>
<g id="Layer_2">
	<path d="M203.2,99l-1.2-1.2V57H54v148h40.8l1.2,1.2V247h148V99H203.2z M62,197V65h132v132H62z M104,239v-10.7l10.7,10.7H104z
		 M117.5,239L104,225.5v-11.3l24.8,24.8H117.5z M131.6,239L104,211.4V205h4.9l34,34H131.6z M145.7,239l-34-34H123l34,34H145.7z
		 M159.8,239l-34-34h11.3l34,34H159.8z M173.9,239l-34-34h11.3l34,34H173.9z M188,239l-34-34h11.3l34,34H188z M202.1,239l-34-34
		h11.3l34,34H202.1z M216.3,239l-34-34h11.3l34,34H216.3z M236,239h-5.6l-34-34h5.6v-5.6l34,34V239z M236,230.5l-34-34v-11.3l34,34
		V230.5z M236,216.4l-34-34v-11.3l34,34V216.4z M236,202.3l-34-34V157l34,34V202.3z M236,188.2l-34-34v-11.3l34,34V188.2z
		 M236,174.1l-34-34v-11.3l34,34V174.1z M236,160l-34-34v-11.3l34,34V160z M236,145.9l-34-34V107h6.4l27.6,27.6V145.9z M236,131.8
		L211.2,107h11.3l13.5,13.5V131.8z M236,117.7L225.3,107H236V117.7z"/>
</g>
</svg>
