<?xml version="1.0" encoding="utf-8"?>
<!-- Generator: Adobe Illustrator 18.0.0, SVG Export Plug-In . SVG Version: 6.00 Build 0)  -->
<!DOCTYPE svg PUBLIC "-//W3C//DTD SVG 1.1//EN" "http://www.w3.org/Graphics/SVG/1.1/DTD/svg11.dtd">
<svg version="1.1" xmlns="http://www.w3.org/2000/svg" xmlns:xlink="http://www.w3.org/1999/xlink" x="0px" y="0px"
	 viewBox="0 0 300 300" enable-background="new 0 0 300 300" xml:space="preserve">
<g id="Layer_1" display="none">
</g>
<g id="Layer_2">
	<g>
		<path d="M130.9,114.1c9.9,0,18-8.1,18-18s-8.1-18-18-18s-18,8.1-18,18S120.9,114.1,130.9,114.1z M130.9,86.1c5.5,0,10,4.5,10,10
			c0,5.5-4.5,10-10,10c-5.5,0-10-4.5-10-10C120.9,90.6,125.3,86.1,130.9,86.1z"/>
		<path d="M130.9,231.4c-9.9,0-18,8.1-18,18s8.1,18,18,18s18-8.1,18-18S140.8,231.4,130.9,231.4z M130.9,259.4c-5.5,0-10-4.5-10-10
			s4.5-10,10-10c5.5,0,10,4.5,10,10S136.4,259.4,130.9,259.4z"/>
		<path d="M130.9,197.6c14.1,0,25.5-11.4,25.5-25.5s-11.4-25.5-25.5-25.5c-14.1,0-25.5,11.4-25.5,25.5S116.8,197.6,130.9,197.6z
			 M130.9,189.6c-5.7,0-10.7-2.7-13.9-6.9h27.8C141.5,186.9,136.5,189.6,130.9,189.6z M146.1,180.8h-30.4c-1.3-2.2-2-4.7-2.2-7.4
			h34.9C148.1,176,147.3,178.6,146.1,180.8z M130.9,154.6c5.9,0,11,2.9,14.2,7.3h-28.4C119.8,157.5,125,154.6,130.9,154.6z
			 M115.4,164h30.9c1.2,2.2,1.9,4.7,2,7.4h-34.9C113.5,168.7,114.2,166.2,115.4,164z"/>
		<path d="M219.9,66.5V12.6h-87.4L86.1,58.9v228.4h87.4l46.3-46.3v-47.4v-8H211V75.4L219.9,66.5z M212.9,63.5l-20.7-17.5l9.5-9.5
			l11.2,9.5V63.5z M212.9,43.3l-9.7-8.3l9.7-9.7V43.3z M168.1,280.4h-75v-216h75V280.4z M170.4,56.4H98.6l36.8-36.8h71.9L170.4,56.4
			z M191.9,84.6V86l-15.8-13.4V62.1l3.8-3.8l20.7,17.6L191.9,84.6z M203,84.1v101.6v0.5l-4,4V88.1L203,84.1z M176.1,174.2v-18.2
			l15.8,13.4v17.9L176.1,174.2z M191.9,189.9v18.9l-15.8-13v-18.9L191.9,189.9z M176.1,153.3v-17.5l15.8,13.4v17.5L176.1,153.3z
			 M176.1,133.1v-17.5l15.8,13.4v17.5L176.1,133.1z M176.1,113V95.4l15.8,13.4v17.5L176.1,113z M176.1,92.8V75.2l15.8,13.4v17.5
			L176.1,92.8z M176.1,274.9v-18.1l9.8,8.3L176.1,274.9z M187.3,263.7l-11.2-9.5v-17.5l20.7,17.6L187.3,263.7z M198.3,252.8
			L176.1,234v-17.5l31.6,26.8L198.3,252.8z M212.9,238.2l-3.7,3.7l-33.1-28.1v-15.5l15.8,13v12.2l6.7-6.7l14.2,11.7V238.2z
			 M212.9,226l-12.8-10.6l10.3-10.3l2.5,2.1V226z M212.9,204.6l-1.1-0.9l1.1-1.1V204.6z M211.9,193.7l-12.9,12.9v-5.1l7.8-7.8h4.2
			H211.9z M202.1,74.5l-20.7-17.6l9.5-9.5L211.6,65L202.1,74.5z"/>
	</g>
</g>
</svg>
