<?xml version="1.0" encoding="utf-8"?>
<!-- Generator: Adobe Illustrator 18.1.1, SVG Export Plug-In . SVG Version: 6.00 Build 0)  -->
<svg version="1.1" xmlns="http://www.w3.org/2000/svg" xmlns:xlink="http://www.w3.org/1999/xlink" x="0px" y="0px"
	 viewBox="0 0 595.3 595.3" enable-background="new 0 0 595.3 595.3" xml:space="preserve">
<g id="Layer_3">
</g>
<g id="Layer_2">
	<g>
		<path fill="#FFFFFF" d="M185.8,352.9c6.8,0,13.1,0,19.9,0c-3-11.4-6-22.2-9.2-34.3C192.6,330.8,189.3,341.6,185.8,352.9z"/>
		<path fill="#FFFFFF" d="M297.6,29.2c-148.3,0-268.5,120.2-268.5,268.5s120.2,268.5,268.5,268.5s268.5-120.2,268.5-268.5
			S445.9,29.2,297.6,29.2z M383.2,198.4c2.9-0.6,5.9-0.7,8.9-1c27.8,0,46,21.2,43.5,50.6c-2.7,31.1-30.6,48.9-59.7,37.8
			c-17.6-6.7-25-20.9-26.7-38.8C346.8,222.9,360.6,203.1,383.2,198.4z M139.2,199.8c8.2,0,16.1,0,24.7,0c7,21.9,14,44,21.5,67.3
			c8.1-23.1,15.7-45,23.5-67.2c8.2,0,16.2,0,24.7,0c7.6,23.8,15.2,47.7,22.8,71.6c0.3,0,0.7-0.1,1-0.1c0-23.7,0-47.5,0-71.5
			c6.8,0,12.8,0,19.5,0c0,23.3,0,46.3,0,69.9c7.8,0,15,0,22.8,0l-4.4,16.8c-18.8,0-37.4,0-56.2,0c-1.6-5.6-3.1-11.1-4.8-17
			c-9.5,0-18.9,0-28.9,0c-1.8,5.5-3.6,11.1-5.5,17c-10,0-20,0-30.5,0c-1.5-5.4-3.2-11.1-4.8-17c-9.6,0-19,0-28.8,0
			c-1.8,5.6-3.7,11.3-5.6,17.1c-7,0-13.7,0-21.2,0C119.1,257.6,129.1,228.8,139.2,199.8z M130.3,387.4c-6.9,0-13.3,0-20,0
			c0-29.4,0-58.6,0-88.5c21.6,0,42.9,0,64.8,0c-1.7,5.7-3.3,11-5.1,16.9c-13.2,0-26.3,0-39.6,0c0,6.8,0,13,0,19.8
			c11.1,0,21.8,0,33.5,0c-1.8,5.8-3.3,10.9-4.9,16.4c-9.5,0-18.8,0-28.6,0C130.3,363.9,130.3,375.4,130.3,387.4z M285.1,386.9
			c-5,0.7-9.9,0.9-14.9,0.9c-18.1,0-36.3,0-55,0c-1.7-5.9-3.3-11.7-5-17.7c-9.8,0-19.4,0-29.5,0c-1.9,5.7-3.8,11.5-5.7,17.4
			c-7,0-13.8,0-21.6,0c10.4-29.7,20.6-59.1,30.9-88.6c8.3,0,16.4,0,25.2,0c8.1,25.3,16.2,50.9,24.4,76.4c0.4-0.1,0.7-0.1,1.1-0.2
			c0-25.3,0-51.1,0-76.3l44.5,0c8.4,0.3,16.1,3,21.2,10.4c6.6,9.6,4.5,21.9-5,28.6c-0.9,0.6-1.8,1.3-3.2,2.2
			c7.1,4.1,12.3,9,13.8,17.1C308.9,371.9,299.8,384.7,285.1,386.9z M289.7,216.1c0-5.6,0-10.7,0-16.2c20.7,0,41.2,0,61.9,0
			c0.7,5.2,0.4,10.3,0.2,16c-6.9,0-13.6,0-20.9,0c0,23.8,0,47,0,70.5c-6.8,0-13,0-19.8,0c0-23.1,0-46.3,0-70.4
			C303.5,216.1,296.7,216.1,289.7,216.1z M346.9,387.5c-11.5,0-22.6,0-33.9,0c0-29.5,0-58.7,0-88.4c6.4,0,12.7,0,19.6,0
			c0,23.6,0,47.2,0,71.5c6.8,0,12.7,0,19.5,0L346.9,387.5z M484.7,386.9c-5,0.7-9.9,0.9-14.9,0.9c-18.1,0-36.3,0-55,0
			c-1.7-5.9-3.3-11.7-5-17.7c-9.8,0-19.4,0-29.5,0c-1.9,5.7-3.8,11.5-5.7,17.4c-7,0-13.8,0-21.6,0c10.4-29.7,20.6-59.1,30.9-88.6
			c8.3,0,16.4,0,25.2,0c8.1,25.3,16.2,50.9,24.4,76.4c0.4-0.1,0.7-0.1,1.1-0.2c0-25.3,0-51.1,0-76.3l44.5,0
			c8.4,0.3,16.1,3,21.2,10.4c6.6,9.6,4.5,21.9-5,28.6c-0.9,0.6-1.8,1.3-3.2,2.2c7.1,4.1,12.3,9,13.8,17.1
			C508.5,371.9,499.4,384.7,484.7,386.9z"/>
		<path fill="#FFFFFF" d="M276.6,332.8c4.9-0.2,7.7-3.7,7.8-8.2c0-4.7-2.4-8.1-6.9-8.4c-7.5-0.5-15.1-0.1-22.9-0.1
			c0,5.7,0,11,0,16.8C262.4,332.9,269.5,333.2,276.6,332.8z"/>
		<path fill="#FFFFFF" d="M151.6,220.8c-0.3,0-0.6,0-1,0c-3.3,10.6-6.6,21.2-9.9,32.1c6.8,0,12.8,0,19.5,0
			C157.3,241.8,154.4,231.3,151.6,220.8z"/>
		<path fill="#FFFFFF" d="M221.4,221.3c-0.4,0-0.8,0-1.3,0c-3.2,10.4-6.4,20.7-9.7,31.5c6.8,0,12.9,0,19.5,0
			C227,242,224.2,231.6,221.4,221.3z"/>
		<path fill="#FFFFFF" d="M392.6,272.1c10.4,0,17.7-5.6,20.8-16c1.3-4.2,1.6-8.5,1.5-12.8c0-4.2-0.2-8.3-1.3-12.4
			c-2.8-10.2-10.7-16.5-21-16.8c-10.2-0.2-17.9,5.4-21.1,15.7c-2.8,8.8-2.7,17.7,0,26.5C374.8,266.8,382,272.1,392.6,272.1z"/>
		<path fill="#FFFFFF" d="M276.8,349.4c-7.2-0.6-14.5-0.1-22-0.1c0,7.1,0,14,0,21.4c7.6-0.2,14.9,0.7,22.1-0.5
			c6.3-1,9.2-4.5,9.1-10.5C286,353.8,283.1,349.9,276.8,349.4z"/>
		<path fill="#FFFFFF" d="M476.4,349.4c-7.2-0.6-14.5-0.1-22-0.1c0,7.1,0,14,0,21.4c7.6-0.2,14.9,0.7,22.1-0.5
			c6.3-1,9.2-4.5,9.1-10.5C485.6,353.8,482.7,349.9,476.4,349.4z"/>
		<path fill="#FFFFFF" d="M385.4,352.9c6.8,0,13.1,0,19.9,0c-3-11.4-6-22.2-9.2-34.3C392.2,330.8,388.9,341.6,385.4,352.9z"/>
		<path fill="#FFFFFF" d="M476.2,332.8c4.9-0.2,7.7-3.7,7.8-8.2c0-4.7-2.4-8.1-6.9-8.4c-7.5-0.5-15.1-0.1-22.9-0.1
			c0,5.7,0,11,0,16.8C462,332.9,469.1,333.2,476.2,332.8z"/>
	</g>
</g>
</svg>
