<?xml version="1.0" encoding="utf-8"?>
<!-- Generator: Adobe Illustrator 18.0.0, SVG Export Plug-In . SVG Version: 6.00 Build 0)  -->
<!DOCTYPE svg PUBLIC "-//W3C//DTD SVG 1.1//EN" "http://www.w3.org/Graphics/SVG/1.1/DTD/svg11.dtd">
<svg version="1.1" id="Layer_1" xmlns="http://www.w3.org/2000/svg" xmlns:xlink="http://www.w3.org/1999/xlink" x="0px" y="0px"
	 viewBox="180 -20 600 600" enable-background="new 180 -20 600 600" xml:space="preserve">
<rect x="517.7" y="289.8" width="34.4" height="34.4"/>
<polygon points="553.5,224.9 553.5,172 516.6,172 516.6,224.9 524.3,277.7 544.5,277.7 "/>
<path d="M606.3,365l-2.2,7.9c-0.4,1.5-0.7,2.9-0.9,3.9l-0.2-0.7c-0.4-1.5-0.4-1.5-0.9-3.1l-2.6-8.1H594l5.7,14.7
	c0.7,1.5,0.7,1.5,0.7,2.2c0,1.5-0.9,2.2-2.6,2.2h-1.5v3.9h3.1c3.9,0,4.8-0.7,6.4-5.5l6.1-17.5L606.3,365L606.3,365z M591.4,365.2
	h-3.1v-5.5h-5v5.5h-2.4v3.7h2.4v7.9c0,2.6,0.2,3.7,1.1,4.6c0.7,0.9,2,1.1,4.2,1.1h3.1v-3.9h-1.8c-1.1,0-1.3-0.2-1.3-3.1v-6.8h3.1
	v-3.5H591.4z M577.1,358.2h-5v4.2h5V358.2z M577.1,365h-5v17.5h5V365z M568.1,370.2c-0.4-3.7-3.3-5.7-7.7-5.7
	c-4.6,0-7.5,2.2-7.5,5.7c0,2.9,1.5,4.2,5.3,5l3.3,0.7c1.3,0.2,2,0.9,2,1.5c0,1.1-1.1,1.8-2.6,1.8c-2,0-3.1-0.9-3.5-2.4h-4.8
	c0.2,3.9,3.3,6.1,8.1,6.1s7.9-2.4,7.9-5.9c0-1.3-0.4-2.6-1.3-3.5c-0.7-0.9-1.8-1.3-3.9-1.8l-3.3-0.7c-1.5-0.4-2.2-0.7-2.2-1.3
	c0-0.9,0.9-1.5,2.4-1.5c1.8,0,2.9,0.7,3.1,2L568.1,370.2L568.1,370.2z M539.4,365v17.5h5v-4.8c0-3.5,0.2-5,0.7-6.1
	c0.7-1.3,2-2.2,3.7-2.2c0.4,0,0.7,0,1.3,0v-4.8c-3.7,0-5,0.7-6.1,3.5l0.2-3.1L539.4,365L539.4,365z M523.2,371.5
	c0.4-2,1.8-3.3,3.7-3.3c2,0,3.3,1.1,3.5,3.3H523.2z M535.7,375.1c0-2.4-0.2-3.9-0.9-5.3c-1.3-3.5-4.2-5.5-7.9-5.5
	c-5.3,0-9,3.7-9,9.2s3.5,9.2,9,9.2c4.2,0,7.5-2.2,8.3-5.5H530c-0.7,1.1-1.8,1.5-3.1,1.5c-2.2,0-3.7-1.3-3.9-3.7H535.7z M510.3,382.3
	l5.9-17.5h-5.5l-1.8,6.8c-0.2,1.1-0.7,3.1-1.1,5c-0.7-2.2-1.1-3.7-1.3-5l-2-6.8h-5.5l6.4,17.5H510.3z M495.8,358.2h-5v4.2h5V358.2z
	 M495.8,365h-5v17.5h5V365z M469.9,365v17.5h5v-9.9c0-1.5,0.2-2.2,0.7-2.9c0.4-0.7,1.3-0.9,2.2-0.9s1.8,0.4,2.2,1.1s0.4,1.3,0.4,3.1
	v9.4h5v-11.4c0-4.2-2.4-6.6-6.1-6.6c-1.8,0-2.9,0.4-4.8,2.2V365H469.9z M459.6,358.2v16c0,1.5-0.2,2.4-0.9,3.1
	c-0.9,0.7-2,1.1-3.3,1.1s-2.4-0.4-3.3-1.1c-0.7-0.7-0.9-1.3-0.9-3.1v-16h-5.5v16.2c0,3.1,0.9,5,2.6,6.4c1.8,1.3,4.4,2,7,2
	c2.9,0,5.3-0.7,7-2s2.6-3.3,2.6-6.4v-16.2H459.6z M423.9,368.5c2.6,0,4.2,1.8,4.2,5.3c0,3.1-1.5,5-4.2,5s-4.2-2-4.2-5
	C419.9,370.4,421.5,368.5,423.9,368.5 M423.9,364.3c-5.5,0-9.2,3.9-9.2,9.2c0,5.5,3.9,9.2,9.2,9.2c5.5,0,9.2-3.7,9.2-9
	C433.3,368.3,429.6,364.3,423.9,364.3 M412.5,365.2h-3.3v-5.5h-5v5.5h-2.4v3.7h2.4v7.9c0,2.6,0.2,3.7,1.1,4.6c0.7,0.9,2,1.1,4.2,1.1
	h3.1v-3.9h-1.8c-1.1,0-1.3-0.2-1.3-3.1v-6.8h3.1V365.2z M398.4,358.2h-5v24.1h5V358.2z M384,376.8c-0.9,1.5-2,2.2-3.7,2.2
	c-1.5,0-2.6-0.7-2.6-1.8c0-1.1,0.9-1.8,2.6-2.2l1.8-0.4c0.9-0.2,1.3-0.2,2-0.4L384,376.8L384,376.8z M378,370.4
	c0.2-1.3,1.3-2.2,3.1-2.2s2.6,0.7,2.6,1.5c0,0.7-0.4,1.1-1.5,1.1l-2.9,0.4c-4.8,0.9-7,2.4-7,5.7c0,3.3,2.6,5.5,6.4,5.5
	c2.2,0,3.3-0.4,5-1.8c0.2,0.7,0.2,0.7,0.4,1.3h5.3c-0.7-0.9-0.7-1.1-0.7-3.1v-7.7c0-2.6-0.4-3.9-1.8-5c-1.3-1.3-3.5-1.8-6.1-1.8
	c-4.8,0-7.5,2-7.7,5.9L378,370.4L378,370.4z M362.3,373.1h-5.5l2.9-9.4L362.3,373.1z M363.6,377.5l1.3,4.8h6.1l-7.7-24.1h-6.8
	l-8.3,24.1h5.9l1.5-4.8H363.6z"/>
<path fill="#1D1D1B" d="M444.7,267.8h-37.4l18.7-54L444.7,267.8z M502.5,324.8l-53.6-151.5h-45.7l-53.6,151.5h38.1l9.3-26.8h58.3
	l9.3,26.8H502.5z"/>
</svg>
