<?xml version="1.0" encoding="utf-8"?>
<!-- Generator: Adobe Illustrator 18.0.0, SVG Export Plug-In . SVG Version: 6.00 Build 0)  -->
<!DOCTYPE svg PUBLIC "-//W3C//DTD SVG 1.1//EN" "http://www.w3.org/Graphics/SVG/1.1/DTD/svg11.dtd">
<svg version="1.1" id="Layer_1" xmlns="http://www.w3.org/2000/svg" xmlns:xlink="http://www.w3.org/1999/xlink" x="0px" y="0px"
	 viewBox="345 145 270 270" enable-background="new 345 145 270 270" xml:space="preserve">
<rect x="519" y="289.8" fill="#FFFFFF" width="34.4" height="34.4"/>
<polygon fill="#FFFFFF" points="554.8,224.9 554.8,172 517.9,172 517.9,224.9 525.6,277.7 545.8,277.7 "/>
<path fill="#FFFFFF" d="M607.6,365l-2.2,7.9c-0.4,1.5-0.7,2.9-0.9,3.9l-0.2-0.7c-0.4-1.5-0.4-1.5-0.9-3.1l-2.6-8.1h-5.5l5.7,14.7
	c0.7,1.5,0.7,1.5,0.7,2.2c0,1.5-0.9,2.2-2.6,2.2h-1.5v3.9h3.1c3.9,0,4.8-0.7,6.4-5.5l6.1-17.5L607.6,365L607.6,365z M592.7,365.2
	h-3.1v-5.5h-5v5.5h-2.4v3.7h2.4v7.9c0,2.6,0.2,3.7,1.1,4.6c0.7,0.9,2,1.1,4.2,1.1h3.1v-3.9h-1.8c-1.1,0-1.3-0.2-1.3-3.1v-6.8h3.1
	v-3.5H592.7z M578.4,358.2h-5v4.2h5V358.2z M578.4,365h-5v17.5h5V365z M569.5,370.2c-0.4-3.7-3.3-5.7-7.7-5.7
	c-4.6,0-7.5,2.2-7.5,5.7c0,2.9,1.5,4.2,5.3,5l3.3,0.7c1.3,0.2,2,0.9,2,1.5c0,1.1-1.1,1.8-2.6,1.8c-2,0-3.1-0.9-3.5-2.4h-4.8
	c0.2,3.9,3.3,6.1,8.1,6.1c4.8,0,7.9-2.4,7.9-5.9c0-1.3-0.4-2.6-1.3-3.5c-0.7-0.9-1.8-1.3-3.9-1.8l-3.3-0.7c-1.5-0.4-2.2-0.7-2.2-1.3
	c0-0.9,0.9-1.5,2.4-1.5c1.8,0,2.9,0.7,3.1,2L569.5,370.2L569.5,370.2z M540.7,365v17.5h5v-4.8c0-3.5,0.2-5,0.7-6.1
	c0.7-1.3,2-2.2,3.7-2.2c0.4,0,0.7,0,1.3,0v-4.8c-3.7,0-5,0.7-6.1,3.5l0.2-3.1L540.7,365L540.7,365z M524.5,371.5
	c0.4-2,1.8-3.3,3.7-3.3c2,0,3.3,1.1,3.5,3.3H524.5z M537,375.1c0-2.4-0.2-3.9-0.9-5.3c-1.3-3.5-4.2-5.5-7.9-5.5c-5.3,0-9,3.7-9,9.2
	s3.5,9.2,9,9.2c4.2,0,7.5-2.2,8.3-5.5h-5.3c-0.7,1.1-1.8,1.5-3.1,1.5c-2.2,0-3.7-1.3-3.9-3.7H537z M511.6,382.3l5.9-17.5H512
	l-1.8,6.8c-0.2,1.1-0.7,3.1-1.1,5c-0.7-2.2-1.1-3.7-1.3-5l-2-6.8h-5.5l6.4,17.5H511.6z M497.1,358.2h-5v4.2h5V358.2z M497.1,365h-5
	v17.5h5V365z M471.2,365v17.5h5v-9.9c0-1.5,0.2-2.2,0.7-2.9c0.4-0.7,1.3-0.9,2.2-0.9s1.8,0.4,2.2,1.1c0.4,0.7,0.4,1.3,0.4,3.1v9.4h5
	v-11.4c0-4.2-2.4-6.6-6.1-6.6c-1.8,0-2.9,0.4-4.8,2.2V365H471.2z M460.9,358.2v16c0,1.5-0.2,2.4-0.9,3.1c-0.9,0.7-2,1.1-3.3,1.1
	s-2.4-0.4-3.3-1.1c-0.7-0.7-0.9-1.3-0.9-3.1v-16h-5.5v16.2c0,3.1,0.9,5,2.6,6.4c1.8,1.3,4.4,2,7,2c2.9,0,5.3-0.7,7-2
	c1.8-1.3,2.6-3.3,2.6-6.4v-16.2H460.9z M425.2,368.5c2.6,0,4.2,1.8,4.2,5.3c0,3.1-1.5,5-4.2,5c-2.6,0-4.2-2-4.2-5
	C421.2,370.4,422.8,368.5,425.2,368.5 M425.2,364.3c-5.5,0-9.2,3.9-9.2,9.2c0,5.5,3.9,9.2,9.2,9.2c5.5,0,9.2-3.7,9.2-9
	C434.6,368.3,430.9,364.3,425.2,364.3 M413.8,365.2h-3.3v-5.5h-5v5.5H403v3.7h2.4v7.9c0,2.6,0.2,3.7,1.1,4.6c0.7,0.9,2,1.1,4.2,1.1
	h3.1v-3.9H412c-1.1,0-1.3-0.2-1.3-3.1v-6.8h3.1V365.2z M399.7,358.2h-5v24.1h5V358.2z M385.3,376.8c-0.9,1.5-2,2.2-3.7,2.2
	c-1.5,0-2.6-0.7-2.6-1.8c0-1.1,0.9-1.8,2.6-2.2l1.8-0.4c0.9-0.2,1.3-0.2,2-0.4V376.8L385.3,376.8z M379.4,370.4
	c0.2-1.3,1.3-2.2,3.1-2.2s2.6,0.7,2.6,1.5c0,0.7-0.4,1.1-1.5,1.1l-2.9,0.4c-4.8,0.9-7,2.4-7,5.7c0,3.3,2.6,5.5,6.4,5.5
	c2.2,0,3.3-0.4,5-1.8c0.2,0.7,0.2,0.7,0.4,1.3h5.3c-0.7-0.9-0.7-1.1-0.7-3.1v-7.7c0-2.6-0.4-3.9-1.8-5c-1.3-1.3-3.5-1.8-6.1-1.8
	c-4.8,0-7.5,2-7.7,5.9L379.4,370.4L379.4,370.4z M363.6,373.1h-5.5l2.9-9.4L363.6,373.1z M364.9,377.5l1.3,4.8h6.1l-7.7-24.1h-6.8
	l-8.3,24.1h5.9l1.5-4.8H364.9z"/>
<path fill="#FFFFFF" d="M446,267.8h-37.4l18.7-54L446,267.8z M503.8,324.8l-53.6-151.5h-45.7l-53.6,151.5h38.1l9.3-26.8h58.3
	l9.3,26.8H503.8z"/>
</svg>
