<?xml version="1.0" encoding="utf-8"?>
<!-- Generator: Adobe Illustrator 18.0.0, SVG Export Plug-In . SVG Version: 6.00 Build 0)  -->
<!DOCTYPE svg PUBLIC "-//W3C//DTD SVG 1.1//EN" "http://www.w3.org/Graphics/SVG/1.1/DTD/svg11.dtd">
<svg version="1.1" id="Layer_1" xmlns="http://www.w3.org/2000/svg" xmlns:xlink="http://www.w3.org/1999/xlink" x="0px" y="0px"
	 viewBox="450 210 380 380" enable-background="new 450 210 380 380" xml:space="preserve">
<path fill="#FFFFFF" d="M590.5,355.6h-53.6l26.9-77.4L590.5,355.6z M673.5,437.7l-77.1-217.4h-65.7l-77.1,217.4h54.8l13.5-38.5h83.6
	l13.5,38.5H673.5z"/>
<rect x="693.9" y="388.2" fill="#FFFFFF" width="49.2" height="49.2"/>
<polygon fill="#FFFFFF" points="744.9,295.5 744.9,220 692.3,220 692.3,295.5 703.3,371 732.1,371 "/>
<path fill="#FFFFFF" d="M779.4,547.3l-3.1,11.3c-0.6,2.2-0.9,4.1-1.3,5.6l-0.3-0.9c-0.6-2.2-0.6-2.2-1.3-4.4l-3.8-11.6h-7.8l8.1,21
	c0.9,2.2,0.9,2.2,0.9,3.1c0,2.2-1.3,3.1-3.8,3.1h-2.2v5.6h4.4c5.6,0,6.9-0.9,9.1-7.8l8.8-25.1L779.4,547.3L779.4,547.3z
	 M742.8,547.3v25.1h7.2v-6.9c0-5,0.3-7.2,0.9-8.8c0.9-1.9,2.8-3.1,5.3-3.1c0.6,0,0.9,0,1.9,0v-6.9c-5.3,0-7.2,0.9-8.8,5l0.3-4.4
	L742.8,547.3L742.8,547.3z M724.3,552.3c3.8,0,6,2.5,6,7.5c0,4.4-2.2,7.2-6,7.2s-6-2.8-6-7.2C718.3,555.1,720.5,552.3,724.3,552.3
	 M724.3,546.7c-7.8,0-13.2,5.6-13.2,13.2c0,7.8,5.6,13.2,13.2,13.2c7.8,0,13.2-5.3,13.2-12.8C737.7,552,732.1,546.7,724.3,546.7
	 M706.7,547.6h-4.4v-7.8h-7.2v7.8h-3.4v5.3h3.4v11.3c0,3.8,0.3,5.3,1.6,6.6c0.9,1.3,2.8,1.6,6,1.6h4.4v-5.6h-2.5
	c-1.6,0-1.9-0.3-1.9-4.4v-9.7h4.4v-5L706.7,547.6L706.7,547.6z M687.3,556.4c-0.3-6-5-9.7-11.6-9.7c-7.8,0-12.5,5-12.5,13.2
	c0,8.1,4.7,13.2,12.5,13.2c6.6,0,11-3.4,11.9-10l-7.2-0.3c-0.6,2.8-1.9,4.4-4.7,4.4c-3.4,0-5.3-2.5-5.3-7.2s1.9-7.2,5.3-7.2
	c2.5,0,4.1,1.3,4.7,3.8L687.3,556.4L687.3,556.4z M651,564.2c-1.3,2.2-2.8,3.1-5.3,3.1c-2.2,0-3.8-0.9-3.8-2.5s1.3-2.5,3.8-3.1
	l2.5-0.6c1.3-0.3,1.9-0.3,2.8-0.6V564.2z M642.5,555.1c0.3-1.9,1.9-3.1,4.4-3.1s3.8,0.9,3.8,2.2c0,0.9-0.6,1.6-2.2,1.6l-4.1,0.6
	c-6.9,1.3-10,3.4-10,8.1s3.8,7.8,9.1,7.8c3.1,0,4.7-0.6,7.2-2.5c0.3,0.9,0.3,0.9,0.6,1.9h7.5c-0.9-1.3-0.9-1.6-0.9-4.4v-11.6
	c0-3.8-0.6-5.6-2.5-7.2c-1.9-1.9-5-2.5-8.8-2.5c-6.9,0-10.6,2.8-11,8.5h6.9V555.1z M632.5,537.9h-25.4v34.5h7.8v-13.8h15.3v-6.3
	h-15.3v-7.8h17.5v-6.6H632.5z M581.4,564.2c-1.3,2.2-2.8,3.1-5.3,3.1c-2.2,0-3.8-0.9-3.8-2.5s1.3-2.5,3.8-3.1l2.5-0.6
	c1.3-0.3,1.9-0.3,2.8-0.6V564.2L581.4,564.2z M573,555.1c0.3-1.9,1.9-3.1,4.4-3.1s3.8,0.9,3.8,2.2c0,0.9-0.6,1.6-2.2,1.6l-4.1,0.6
	c-6.9,1.3-10,3.4-10,8.1s3.8,7.8,9.1,7.8c3.1,0,4.7-0.6,7.2-2.5c0.3,0.9,0.3,0.9,0.6,1.9h7.5c-0.9-1.3-0.9-1.6-0.9-4.4v-11.6
	c0-3.8-0.6-5.6-2.5-7.2c-1.9-1.9-5-2.5-8.8-2.5c-6.9,0-10.6,2.8-11,8.5h6.9V555.1z M559.5,537.9h-7.2v6h7.2V537.9z M559.5,547.3
	h-7.2v25.1h7.2V547.3z M532.9,552.6c3.1,0,5.3,2.8,5.3,7.2s-2.2,7.2-5.3,7.2s-5.3-2.8-5.3-7.2C527.6,555.5,529.8,552.6,532.9,552.6
	 M545.4,537.9h-7.2v11.3c-1.9-1.9-3.8-2.5-6.3-2.5c-6.6,0-11.3,5.3-11.3,13.2c0,7.8,4.4,13.2,11,13.2c3.1,0,5-0.9,6.9-3.4v2.8h6.9
	L545.4,537.9L545.4,537.9z M498.7,556.7c0.6-2.8,2.5-4.7,5.3-4.7s4.7,1.6,5,4.7H498.7z M516.3,562c0-3.4-0.3-5.6-1.3-7.5
	c-1.9-5-6-7.8-11.3-7.8c-7.5,0-12.8,5.3-12.8,13.2c0,7.8,5,13.2,12.8,13.2c6,0,10.6-3.1,11.9-7.8h-7.5c-0.9,1.6-2.5,2.2-4.4,2.2
	c-3.1,0-5.3-1.9-5.6-5.3h18.2V562z M473.1,572.4l4.7-18.5c0.3-0.6,0.3-0.9,0.6-1.6c0-0.3,0.6-1.9,0.9-4.1c0,1.3,0,1.9,0,2.8v3.4v18
	h7.2v-34.5h-11l-4.4,17.9c0,0.6-0.3,1.6-0.6,2.2c-0.3,0.6-0.3,1.6-0.6,2.2l-0.6,2.2l-0.3,0.9c-0.3-2.2-0.9-5-1.6-7.8l-4.4-18.2h-11
	v34.5h7.2v-17.9v-3.5c0-0.6,0-1.3,0-2.8c0.3,0.9,0.3,1.3,0.6,2.2c0.3,0.9,0.3,1.3,0.9,3.4l4.7,18.5h7.5v0.7H473.1z"/>
<path fill="#FFFFFF" d="M820.4,495.6l-3.1,11.3c-0.6,2.2-0.9,4.1-1.3,5.6l-0.3-0.9c-0.6-2.2-0.6-2.2-1.3-4.4l-3.8-11.6h-7.8l8.1,21
	c0.9,2.2,0.9,2.2,0.9,3.1c0,2.2-1.3,3.1-3.8,3.1h-2.2v5.6h4.4c5.6,0,6.9-0.9,9.1-7.8l8.8-25.1L820.4,495.6L820.4,495.6z
	 M799.1,495.9h-4.4v-7.8h-7.2v7.8h-3.4v5.3h3.4v11.3c0,3.8,0.3,5.3,1.6,6.6c0.9,1.3,2.8,1.6,6,1.6h4.4V515H797
	c-1.6,0-1.9-0.3-1.9-4.4V501h4.4v-5L799.1,495.9L799.1,495.9z M778.8,485.9h-7.2v6h7.2V485.9z M778.8,495.6h-7.2v25.1h7.2V495.6z
	 M765.9,503.1c-0.6-5.3-4.7-8.1-11-8.1c-6.6,0-10.6,3.1-10.6,8.1c0,4.1,2.2,6,7.5,7.2l4.7,0.9c1.9,0.3,2.8,1.3,2.8,2.2
	c0,1.6-1.6,2.5-3.8,2.5c-2.8,0-4.4-1.3-5-3.4h-6.8c0.3,5.6,4.7,8.8,11.6,8.8s11.3-3.4,11.3-8.5c0-1.9-0.6-3.8-1.9-5
	c-0.9-1.3-2.5-1.9-5.6-2.5l-4.7-0.9c-2.2-0.6-3.1-0.9-3.1-1.9c0-1.3,1.3-2.2,3.4-2.2c2.5,0,4.1,0.9,4.4,2.8L765.9,503.1L765.9,503.1
	z M724.9,495.6v25.1h7.2v-6.9c0-5,0.3-7.2,0.9-8.8c0.9-1.9,2.8-3.1,5.3-3.1c0.6,0,0.9,0,1.9,0V495c-5.3,0-7.2,0.9-8.8,5l0.3-4.4
	H724.9L724.9,495.6z M701.7,505c0.6-2.8,2.5-4.7,5.3-4.7s4.7,1.6,5,4.7H701.7z M719.6,510c0-3.4-0.3-5.6-1.3-7.5
	c-1.9-5-6-7.8-11.3-7.8c-7.5,0-12.8,5.3-12.8,13.2c0,7.9,5,13.2,12.8,13.2c6,0,10.6-3.1,11.9-7.8h-7.5c-0.9,1.6-2.5,2.2-4.4,2.2
	c-3.1,0-5.3-1.9-5.6-5.3h18.2V510z M683.2,520.4l8.5-25.1h-7.8l-2.5,9.7c-0.3,1.6-0.9,4.4-1.6,7.2c-0.9-3.1-1.6-5.3-1.9-7.2
	l-2.8-9.7h-7.8l9.1,25.1H683.2z M662.6,485.9h-7.2v6h7.2V485.9z M662.6,495.6h-7.2v25.1h7.2V495.6z M625.6,495.6v25.1h7.2v-14.1
	c0-2.2,0.3-3.1,0.9-4.1c0.6-0.9,1.9-1.3,3.1-1.3s2.5,0.6,3.1,1.6c0.6,0.9,0.6,1.9,0.6,4.4v13.5h7.2v-16.3c0-6-3.4-9.4-8.8-9.4
	c-2.5,0-4.1,0.6-6.9,3.1v-2.5H625.6z M610.9,485.9v22.9c0,2.2-0.3,3.4-1.3,4.4c-1.3,0.9-2.8,1.6-4.7,1.6s-3.4-0.6-4.7-1.6
	c-0.9-0.9-1.3-1.9-1.3-4.4v-22.9h-7.8v23.2c0,4.4,1.3,7.2,3.8,9.1s6.3,2.8,10,2.8c4.1,0,7.5-0.9,10-2.8c2.5-1.9,3.8-4.7,3.8-9.1
	v-23.2H610.9L610.9,485.9z M559.8,500.6c3.8,0,6,2.5,6,7.5c0,4.4-2.2,7.2-6,7.2s-6-2.8-6-7.2C554.2,503.5,556.4,500.6,559.8,500.6
	 M559.8,494.7c-7.8,0-13.2,5.6-13.2,13.2c0,7.8,5.6,13.2,13.2,13.2c7.8,0,13.2-5.3,13.2-12.8C573.3,500.3,568,494.7,559.8,494.7
	 M543.5,495.9h-4.7v-7.8h-7.2v7.8h-3.4v5.3h3.4v11.3c0,3.8,0.3,5.3,1.6,6.6c0.9,1.3,2.8,1.6,6,1.6h4.4V515h-2.5
	c-1.6,0-1.9-0.3-1.9-4.4V501h4.4L543.5,495.9L543.5,495.9z M523.5,485.9h-7.2v34.5h7.2V485.9z M502.8,512.5
	c-1.3,2.2-2.8,3.1-5.3,3.1c-2.2,0-3.8-0.9-3.8-2.5s1.3-2.5,3.8-3.1l2.5-0.6c1.3-0.3,1.9-0.3,2.8-0.6V512.5L502.8,512.5z
	 M494.4,503.5c0.3-1.9,1.9-3.1,4.4-3.1s3.8,0.9,3.8,2.2c0,0.9-0.6,1.6-2.2,1.6l-4.1,0.6c-6.9,1.3-10,3.4-10,8.1
	c0,4.7,3.8,7.8,9.1,7.8c3.1,0,4.7-0.6,7.2-2.5c0.3,0.9,0.3,0.9,0.6,1.9h7.5c-0.9-1.3-0.9-1.6-0.9-4.4v-11c0-3.8-0.6-5.6-2.5-7.2
	c-1.9-1.9-5-2.5-8.8-2.5c-6.9,0-10.6,2.8-11,8.5L494.4,503.5L494.4,503.5z M471.8,507.2H464l4.1-13.5L471.8,507.2z M473.7,513.5
	l1.9,6.9h8.8l-11-34.5h-9.7l-11.9,34.5h8.5l2.2-6.9H473.7z"/>
</svg>
