<?xml version="1.0" encoding="utf-8"?>
<!-- Generator: Adobe Illustrator 18.0.0, SVG Export Plug-In . SVG Version: 6.00 Build 0)  -->
<!DOCTYPE svg PUBLIC "-//W3C//DTD SVG 1.1//EN" "http://www.w3.org/Graphics/SVG/1.1/DTD/svg11.dtd">
<svg version="1.1" id="Layer_1" xmlns="http://www.w3.org/2000/svg" xmlns:xlink="http://www.w3.org/1999/xlink" x="0px" y="0px"
	 viewBox="0 0 260.4 255.4" enable-background="new 0 0 260.4 255.4" xml:space="preserve">
<path d="M114.5,113.4H97.4l8.6-24.7L114.5,113.4z M141,139.6l-24.6-69.4h-21l-24.6,69.4h17.5l4.3-12.3h26.7l4.3,12.3H141z"/>
<rect x="147.5" y="123.8" width="15.7" height="15.7"/>
<polygon points="163.8,94.2 163.8,70.1 147,70.1 147,94.2 150.5,118.3 159.7,118.3 "/>
<path d="M174.8,174.6l-1,3.6c-0.2,0.7-0.3,1.3-0.4,1.8l-0.1-0.3c-0.2-0.7-0.2-0.7-0.4-1.4l-1.2-3.7h-2.5l2.6,6.7
	c0.3,0.7,0.3,0.7,0.3,1c0,0.7-0.4,1-1.2,1h-0.7v1.8h1.4c1.8,0,2.2-0.3,2.9-2.5l2.8-8H174.8z M163.1,174.6v8h2.3v-2.2
	c0-1.6,0.1-2.3,0.3-2.8c0.3-0.6,0.9-1,1.7-1c0.2,0,0.3,0,0.6,0v-2.2c-1.7,0-2.3,0.3-2.8,1.6l0.1-1.4H163.1z M157.2,176.2
	c1.2,0,1.9,0.8,1.9,2.4c0,1.4-0.7,2.3-1.9,2.3c-1.2,0-1.9-0.9-1.9-2.3C155.3,177.1,156,176.2,157.2,176.2 M157.2,174.4
	c-2.5,0-4.2,1.8-4.2,4.2c0,2.5,1.8,4.2,4.2,4.2c2.5,0,4.2-1.7,4.2-4.1C161.5,176.1,159.7,174.4,157.2,174.4 M151.6,174.7h-1.4v-2.5
	h-2.3v2.5h-1.1v1.7h1.1v3.6c0,1.2,0.1,1.7,0.5,2.1c0.3,0.4,0.9,0.5,1.9,0.5h1.4v-1.8h-0.8c-0.5,0-0.6-0.1-0.6-1.4v-3.1h1.4V174.7z
	 M145.4,177.5c-0.1-1.9-1.6-3.1-3.7-3.1c-2.5,0-4,1.6-4,4.2c0,2.6,1.5,4.2,4,4.2c2.1,0,3.5-1.1,3.8-3.2l-2.3-0.1
	c-0.2,0.9-0.6,1.4-1.5,1.4c-1.1,0-1.7-0.8-1.7-2.3c0-1.5,0.6-2.3,1.7-2.3c0.8,0,1.3,0.4,1.5,1.2H145.4z M133.8,180
	c-0.4,0.7-0.9,1-1.7,1c-0.7,0-1.2-0.3-1.2-0.8c0-0.5,0.4-0.8,1.2-1l0.8-0.2c0.4-0.1,0.6-0.1,0.9-0.2V180z M131.1,177.1
	c0.1-0.6,0.6-1,1.4-1c0.8,0,1.2,0.3,1.2,0.7c0,0.3-0.2,0.5-0.7,0.5l-1.3,0.2c-2.2,0.4-3.2,1.1-3.2,2.6c0,1.5,1.2,2.5,2.9,2.5
	c1,0,1.5-0.2,2.3-0.8c0.1,0.3,0.1,0.3,0.2,0.6h2.4c-0.3-0.4-0.3-0.5-0.3-1.4v-3.7c0-1.2-0.2-1.8-0.8-2.3c-0.6-0.6-1.6-0.8-2.8-0.8
	c-2.2,0-3.4,0.9-3.5,2.7H131.1z M127.9,171.6h-8.1v11h2.5v-4.4h4.9v-2h-4.9v-2.5h5.6V171.6z M111.6,180c-0.4,0.7-0.9,1-1.7,1
	c-0.7,0-1.2-0.3-1.2-0.8c0-0.5,0.4-0.8,1.2-1l0.8-0.2c0.4-0.1,0.6-0.1,0.9-0.2V180z M108.9,177.1c0.1-0.6,0.6-1,1.4-1
	c0.8,0,1.2,0.3,1.2,0.7c0,0.3-0.2,0.5-0.7,0.5l-1.3,0.2c-2.2,0.4-3.2,1.1-3.2,2.6c0,1.5,1.2,2.5,2.9,2.5c1,0,1.5-0.2,2.3-0.8
	c0.1,0.3,0.1,0.3,0.2,0.6h2.4c-0.3-0.4-0.3-0.5-0.3-1.4v-3.7c0-1.2-0.2-1.8-0.8-2.3c-0.6-0.6-1.6-0.8-2.8-0.8
	c-2.2,0-3.4,0.9-3.5,2.7H108.9z M104.6,171.6h-2.3v1.9h2.3V171.6z M104.6,174.6h-2.3v8h2.3V174.6z M96.1,176.3c1,0,1.7,0.9,1.7,2.3
	c0,1.4-0.7,2.3-1.7,2.3s-1.7-0.9-1.7-2.3S95.1,176.3,96.1,176.3 M100.1,171.6h-2.3v3.6c-0.6-0.6-1.2-0.8-2-0.8
	c-2.1,0-3.6,1.7-3.6,4.2c0,2.5,1.4,4.2,3.5,4.2c1,0,1.6-0.3,2.2-1.1v0.9h2.2V171.6z M85.2,177.6c0.2-0.9,0.8-1.5,1.7-1.5
	c0.9,0,1.5,0.5,1.6,1.5H85.2z M90.8,179.3c0-1.1-0.1-1.8-0.4-2.4c-0.6-1.6-1.9-2.5-3.6-2.5c-2.4,0-4.1,1.7-4.1,4.2
	c0,2.5,1.6,4.2,4.1,4.2c1.9,0,3.4-1,3.8-2.5h-2.4c-0.3,0.5-0.8,0.7-1.4,0.7c-1,0-1.7-0.6-1.8-1.7H90.8z M77,182.6l1.5-5.9
	c0.1-0.2,0.1-0.3,0.2-0.5c0-0.1,0.2-0.6,0.3-1.3c0,0.4,0,0.6,0,0.9l0,1.1v5.7h2.3v-11h-3.5l-1.4,5.7c0,0.2-0.1,0.5-0.2,0.7
	c-0.1,0.2-0.1,0.5-0.2,0.7l-0.2,0.7l-0.1,0.3c-0.1-0.7-0.3-1.6-0.5-2.5l-1.4-5.8h-3.5v11h2.3v-5.7l0-1.1c0-0.2,0-0.4,0-0.9
	c0.1,0.3,0.1,0.4,0.2,0.7c0.1,0.3,0.1,0.4,0.3,1.1l1.5,5.9H77z"/>
<path d="M187.9,158.1l-1,3.6c-0.2,0.7-0.3,1.3-0.4,1.8l-0.1-0.3c-0.2-0.7-0.2-0.7-0.4-1.4l-1.2-3.7h-2.5l2.6,6.7
	c0.3,0.7,0.3,0.7,0.3,1c0,0.7-0.4,1-1.2,1h-0.7v1.8h1.4c1.8,0,2.2-0.3,2.9-2.5l2.8-8H187.9z M181.1,158.2h-1.4v-2.5h-2.3v2.5h-1.1
	v1.7h1.1v3.6c0,1.2,0.1,1.7,0.5,2.1c0.3,0.4,0.9,0.5,1.9,0.5h1.4v-1.8h-0.8c-0.5,0-0.6-0.1-0.6-1.4v-3.1h1.4V158.2z M174.6,155h-2.3
	v1.9h2.3V155z M174.6,158.1h-2.3v8h2.3V158.1z M170.5,160.5c-0.2-1.7-1.5-2.6-3.5-2.6c-2.1,0-3.4,1-3.4,2.6c0,1.3,0.7,1.9,2.4,2.3
	l1.5,0.3c0.6,0.1,0.9,0.4,0.9,0.7c0,0.5-0.5,0.8-1.2,0.8c-0.9,0-1.4-0.4-1.6-1.1h-2.2c0.1,1.8,1.5,2.8,3.7,2.8s3.6-1.1,3.6-2.7
	c0-0.6-0.2-1.2-0.6-1.6c-0.3-0.4-0.8-0.6-1.8-0.8l-1.5-0.3c-0.7-0.2-1-0.3-1-0.6c0-0.4,0.4-0.7,1.1-0.7c0.8,0,1.3,0.3,1.4,0.9H170.5
	z M157.4,158.1v8h2.3v-2.2c0-1.6,0.1-2.3,0.3-2.8c0.3-0.6,0.9-1,1.7-1c0.2,0,0.3,0,0.6,0v-2.2c-1.7,0-2.3,0.3-2.8,1.6l0.1-1.4H157.4
	z M150,161.1c0.2-0.9,0.8-1.5,1.7-1.5c0.9,0,1.5,0.5,1.6,1.5H150z M155.7,162.7c0-1.1-0.1-1.8-0.4-2.4c-0.6-1.6-1.9-2.5-3.6-2.5
	c-2.4,0-4.1,1.7-4.1,4.2c0,2.5,1.6,4.2,4.1,4.2c1.9,0,3.4-1,3.8-2.5h-2.4c-0.3,0.5-0.8,0.7-1.4,0.7c-1,0-1.7-0.6-1.8-1.7H155.7z
	 M144.1,166l2.7-8h-2.5l-0.8,3.1c-0.1,0.5-0.3,1.4-0.5,2.3c-0.3-1-0.5-1.7-0.6-2.3l-0.9-3.1H139l2.9,8H144.1z M137.5,155h-2.3v1.9
	h2.3V155z M137.5,158.1h-2.3v8h2.3V158.1z M125.7,158.1v8h2.3v-4.5c0-0.7,0.1-1,0.3-1.3c0.2-0.3,0.6-0.4,1-0.4c0.4,0,0.8,0.2,1,0.5
	c0.2,0.3,0.2,0.6,0.2,1.4v4.3h2.3v-5.2c0-1.9-1.1-3-2.8-3c-0.8,0-1.3,0.2-2.2,1v-0.8H125.7z M121,155v7.3c0,0.7-0.1,1.1-0.4,1.4
	c-0.4,0.3-0.9,0.5-1.5,0.5c-0.6,0-1.1-0.2-1.5-0.5c-0.3-0.3-0.4-0.6-0.4-1.4V155h-2.5v7.4c0,1.4,0.4,2.3,1.2,2.9
	c0.8,0.6,2,0.9,3.2,0.9c1.3,0,2.4-0.3,3.2-0.9c0.8-0.6,1.2-1.5,1.2-2.9V155H121z M104.7,159.7c1.2,0,1.9,0.8,1.9,2.4
	c0,1.4-0.7,2.3-1.9,2.3c-1.2,0-1.9-0.9-1.9-2.3C102.9,160.6,103.6,159.7,104.7,159.7 M104.7,157.8c-2.5,0-4.2,1.8-4.2,4.2
	c0,2.5,1.8,4.2,4.2,4.2c2.5,0,4.2-1.7,4.2-4.1C109,159.6,107.3,157.8,104.7,157.8 M99.5,158.2H98v-2.5h-2.3v2.5h-1.1v1.7h1.1v3.6
	c0,1.2,0.1,1.7,0.5,2.1c0.3,0.4,0.9,0.5,1.9,0.5h1.4v-1.8h-0.8c-0.5,0-0.6-0.1-0.6-1.4v-3.1h1.4V158.2z M93.1,155h-2.3v11h2.3V155z
	 M86.5,163.5c-0.4,0.7-0.9,1-1.7,1c-0.7,0-1.2-0.3-1.2-0.8c0-0.5,0.4-0.8,1.2-1l0.8-0.2c0.4-0.1,0.6-0.1,0.9-0.2V163.5z M83.8,160.6
	c0.1-0.6,0.6-1,1.4-1c0.8,0,1.2,0.3,1.2,0.7c0,0.3-0.2,0.5-0.7,0.5l-1.3,0.2c-2.2,0.4-3.2,1.1-3.2,2.6c0,1.5,1.2,2.5,2.9,2.5
	c1,0,1.5-0.2,2.3-0.8c0.1,0.3,0.1,0.3,0.2,0.6h2.4c-0.3-0.4-0.3-0.5-0.3-1.4V161c0-1.2-0.2-1.8-0.8-2.3c-0.6-0.6-1.6-0.8-2.8-0.8
	c-2.2,0-3.4,0.9-3.5,2.7H83.8z M76.6,161.8h-2.5l1.3-4.3L76.6,161.8z M77.2,163.8l0.6,2.2h2.8l-3.5-11H74l-3.8,11h2.7l0.7-2.2H77.2z
	"/>
</svg>
