<?xml version="1.0" encoding="utf-8"?>
<!-- Generator: Adobe Illustrator 18.0.0, SVG Export Plug-In . SVG Version: 6.00 Build 0)  -->
<!DOCTYPE svg PUBLIC "-//W3C//DTD SVG 1.1//EN" "http://www.w3.org/Graphics/SVG/1.1/DTD/svg11.dtd">
<svg version="1.1" id="Layer_1" xmlns="http://www.w3.org/2000/svg" xmlns:xlink="http://www.w3.org/1999/xlink" x="0px" y="0px"
	 viewBox="-10 90.4 720 720" enable-background="new -10 90.4 720 720" xml:space="preserve">
<g>
	<path fill="#231F20" d="M0,342.1c0-171.1,70.3-241.7,241.7-241.7h216.6c171.1,0,241.7,70.3,241.7,241.7c0,0,0,216.6,0,216.6
		c0,171.1-70.3,241.7-241.7,241.7c0,0-216.6,0-216.6,0C70.6,800.4,0,730.1,0,558.8C0,558.8,0,342.1,0,342.1z M458.3,736.6
		c68.6,0,114.4-12.4,139.9-38c25.5-25.5,37.9-71.3,37.9-139.8V342.1c0-68.6-12.4-114.4-38-139.9c-25.5-25.5-71.3-37.9-139.8-37.9
		H241.7c-68.6,0-114.4,12.4-139.9,38c-25.5,25.5-37.9,71.3-37.9,139.8v216.6c0,68.6,12.4,114.4,38,139.9
		c25.5,25.5,71.3,37.9,139.8,37.9H458.3z"/>
	<path fill="#231F20" d="M530,450.4c0,99.4-80.6,180-180,180s-180-80.6-180-180s80.6-180,180-180S530,351.1,530,450.4z M350,333.8
		c-64.4,0-116.7,52.2-116.7,116.7S285.6,567.1,350,567.1s116.7-52.2,116.7-116.7S414.4,333.8,350,333.8z"/>
	<circle fill="#231F20" cx="537.5" cy="263.7" r="41.7"/>
</g>
</svg>
