<?xml version="1.0" encoding="utf-8"?>
<!-- Generator: Adobe Illustrator 18.0.0, SVG Export Plug-In . SVG Version: 6.00 Build 0)  -->
<!DOCTYPE svg PUBLIC "-//W3C//DTD SVG 1.1//EN" "http://www.w3.org/Graphics/SVG/1.1/DTD/svg11.dtd">
<svg version="1.1" id="Layer_1" xmlns="http://www.w3.org/2000/svg" xmlns:xlink="http://www.w3.org/1999/xlink" x="0px" y="0px"
	 viewBox="-10 90.4 720 720" enable-background="new -10 90.4 720 720" xml:space="preserve">
<path fill="#231F20" d="M700,233.3c-25.7,11.4-53.4,19.2-82.5,22.6c29.7-17.8,52.4-45.9,63.2-79.5c-27.8,16.5-58.5,28.4-91.2,34.9
	c-26.2-27.9-63.5-45.4-104.8-45.4C405.3,166,341,230.3,341,309.6c0,11.3,1.3,22.2,3.7,32.7c-119.4-6-225.2-63.2-296-150
	c-12.4,21.2-19.4,45.9-19.4,72.2c0,49.8,25.4,93.8,63.9,119.5c-23.5-0.8-45.7-7.2-65-18c0,0.6,0,1.2,0,1.8
	c0,69.6,49.5,127.6,115.2,140.8c-12.1,3.3-24.7,5-37.8,5c-9.3,0-18.3-0.9-27-2.6c18.3,57.1,71.3,98.6,134.2,99.7
	c-49.2,38.5-111.1,61.5-178.4,61.5c-11.6,0-23-0.7-34.3-2c63.6,40.8,139,64.5,220.1,64.5c264.2,0,408.6-218.8,408.6-408.6
	c0-6.2-0.1-12.4-0.4-18.6C656.4,287.4,680.8,262.1,700,233.3z"/>
</svg>
