<?xml version="1.0" encoding="utf-8"?>
<!-- Generator: Adobe Illustrator 18.0.0, SVG Export Plug-In . SVG Version: 6.00 Build 0)  -->
<!DOCTYPE svg PUBLIC "-//W3C//DTD SVG 1.1//EN" "http://www.w3.org/Graphics/SVG/1.1/DTD/svg11.dtd">
<svg version="1.1" id="Layer_1" xmlns="http://www.w3.org/2000/svg" xmlns:xlink="http://www.w3.org/1999/xlink" x="0px" y="0px"
	 viewBox="-10 90.4 720 720" enable-background="new -10 90.4 720 720" xml:space="preserve">
<g>
	<path fill="#231F20" d="M350,109.3C156.8,109.3,0.2,265.9,0.2,459.1c0,154.6,100.2,285.7,239.2,331.9c17.5,3.2,23.9-7.6,23.9-16.8
		c0-8.3-0.3-35.9-0.5-65.1C165.5,730.2,145,667.8,145,667.8c-15.9-40.4-38.8-51.2-38.8-51.2c-31.7-21.7,2.4-21.3,2.4-21.3
		c35.1,2.5,53.6,36.1,53.6,36.1c31.2,53.5,81.8,38,101.8,29.1c3.1-22.6,12.2-38,22.2-46.8c-77.7-8.8-159.4-38.8-159.4-172.9
		c0-38.2,13.7-69.4,36-93.9c-3.6-8.8-15.6-44.4,3.4-92.6c0,0,29.4-9.4,96.2,35.9c27.9-7.8,57.8-11.6,87.6-11.8
		c29.7,0.1,59.7,4,87.6,11.8c66.8-45.3,96.1-35.9,96.1-35.9c19,48.2,7.1,83.8,3.4,92.6c22.4,24.5,36,55.7,36,93.9
		c0,134.4-81.8,163.9-159.7,172.6c12.5,10.9,23.7,32.1,23.7,64.8c0,46.8-0.4,84.5-0.4,96c0,9.3,6.3,20.2,24,16.8
		c138.9-46.3,239-177.4,239-331.9C699.8,265.9,543.2,109.3,350,109.3z"/>
</g>
</svg>
