<?xml version="1.0" encoding="utf-8"?>
<!-- Generator: Adobe Illustrator 18.0.0, SVG Export Plug-In . SVG Version: 6.00 Build 0)  -->
<!DOCTYPE svg PUBLIC "-//W3C//DTD SVG 1.1//EN" "http://www.w3.org/Graphics/SVG/1.1/DTD/svg11.dtd">
<svg version="1.1" id="Layer_1" xmlns="http://www.w3.org/2000/svg" xmlns:xlink="http://www.w3.org/1999/xlink" x="0px" y="0px"
	 viewBox="-10 90.4 720 720" enable-background="new -10 90.4 720 720" xml:space="preserve">
<g id="Layer_2">
	<g id="BwJ2Dd.tif_1_">
		<g>
			<path d="M184.7,758.6c-9.3-5.4-18.8-10.5-27.7-16.4c-9-5.9-17.6-12.3-26-19.1c-7.7-6.1-14.9-12.8-22.1-19.4
				c-10.8-9.8-20.4-20.8-29.7-32c-9.1-11-17.6-22.6-25-34.7c-6.3-10.2-12.4-20.7-17.8-31.4c-9.6-19.3-17.3-39.2-23-60
				c-4.3-15.9-8.2-32-9.9-48.5c-1.2-11.9-2-23.8-2.8-35.7c-0.4-5.3-0.7-10.5-0.5-15.7c0.5-10.2,1.1-20.5,2.3-30.7
				c1.3-11.6,3.1-23,5-34.5c1-5.6,2.4-11.1,3.9-16.6c3.4-11.6,6.6-23.4,10.9-34.8c4.6-12.2,10.2-23.9,15.5-35.8
				c1.1-2.4,2.5-4.6,3.9-7.2c8,4.7,15.8,9.4,23.5,14c0.2,0.1,0.3,0.4,0.4,0.4c5.7,1.1,6.3,4.8,6.3,9.8
				c-0.2,98.7-0.1,197.5-0.2,296.2c0,3.6,1,5.6,4.3,7.4c12.9,7.2,25.5,14.7,38.2,22.1c11.1,6.5,22.4,12.8,33.5,19.3
				c3,1.8,6,3.5,9.1,5.4c0-21,0-41.6-0.1-62.1c0-1.4-0.7-3.1-1.7-4.2c-11.3-14.6-20.6-30.3-27.4-47.4c-0.9-2.2-0.6-4.9-1.7-6.9
				c-2.9-5.5-4.8-11.3-5.9-17.3c-1.3-7.5-2.3-15.1-3.2-22.6c-0.5-4.1-0.9-8.2-0.7-12.3c0.6-17.1,4.2-33.3,13.8-47.8
				c3.9-5.8,8.7-10.8,14.4-14.7c6.4-4.4,13.3-7.5,20.9-9.2c9.7-2.1,19.3-1.8,28.9,0.3c9.8,2.1,18.9,5.9,27.8,10.6
				c14.9,7.9,27.3,18.6,38.5,30.9c5.5,6,10.5,12.6,15.1,19.3c7.3,10.6,13.3,22,18.2,34c5.1,12.4,8.9,25.1,10.9,38.4
				c2.5,17.9,2.3,35.6-3.7,53c-6,17.2-16.5,30.7-33.5,38.3c-0.8,0.4-1.5,1.8-1.5,2.9c-0.2,4.7-0.1,9.4-0.1,14.1
				c0,20.8,0,41.8,0,62.6c0,2.5,0.5,3.9,3,5.2c7.9,4.2,15.5,9,23.3,13.5c8.9,5.2,17.9,10.2,26.9,15.4c5.9,3.4,11.7,6.7,17.6,10.2
				c0.8,0.4,1.5,1.8,1.5,2.6c0.1,10.2,0,20.3,0.1,30.5c0,2.1-0.9,2.6-2.7,2.5c-6.6-0.5-13.1-1.1-19.7-1.7c-6.5-0.6-13-1.1-19.3-2.3
				c-9.6-1.7-19.3-3.5-28.7-5.8c-10.6-2.5-21-5.7-31.6-8.6c0.3-1.1,0.4-1.8,0.5-2.5c-0.1-0.1-0.3-0.2-0.4-0.2
				c-0.4,0.6-0.9,1.1-1.5,2.1c-6.8-2.8-13.8-5.4-20.7-8.4c-8.8-3.9-17.5-8.1-26.2-12.1C186.8,760.3,185.8,759.3,184.7,758.6
				L184.7,758.6z"/>
			<path d="M569.8,434c5.6-3.2,11-6.1,16.5-9.3c10.7-6,21.3-12.1,31.9-18.2c2.2-1.2,4.3-2.8,6.6-3.7c2.7-1.1,2.9-2.8,2.9-5.3
				c-0.1-30.3,0-60.5-0.1-90.8c0-2.1,0.5-3.4,2.4-4.5c9.2-5.2,18.3-10.5,27.5-15.8c0.4-0.2,0.7-0.3,1-0.4
				c49.7,88.8,60.8,217.2,0.4,329.2c-69.5,129-196.4,183.2-296.9,184.9c-0.1-0.9-0.2-1.8-0.2-2.6c0-10.2-0.1-20.3,0.1-30.5
				c0-1.1,1-2.7,1.9-3.2c13.9-8.1,27.8-16.1,41.8-24.2c15.1-8.7,30.1-17.4,45.2-26.2c12.6-7.3,25.3-14.5,38-21.9
				c15.5-8.9,30.9-17.9,46.4-26.9c14.9-8.6,29.8-17.2,44.7-25.7c15.1-8.7,30.1-17.4,45.3-26.1c1.9-1.1,2.6-2.4,2.6-4.6
				c-0.1-33.3-0.1-66.7-0.1-100c0-0.9,0-1.7,0-3.1c-3.8,2.1-7.3,4-10.7,6c-11.3,6.6-22.7,13.1-34,19.8c-1,0.6-1.9,1.8-2.3,2.9
				c-7.9,25-20.7,47.3-37.9,66.9c-13,14.8-28.3,27-46.3,35.5c-11.8,5.5-24.2,8.9-37.4,8.8c-25.3-0.4-44.8-14.4-54.6-37.3
				c-6.9-16.1-8.4-32.9-6.9-50.1c1.8-22.3,8.6-43.3,19-63c13.7-25.9,32-47.9,56.8-64c13.9-9,29-15.5,45.7-16.7
				c17.1-1.2,32.7,2.7,45.6,14.9c0.9,0.9,1.8,1.6,2.7,2.5C568.3,432,568.9,433,569.8,434z"/>
			<path d="M219.8,266.5c-7.3-4.2-14.6-8.5-22-12.7c-9-5.3-18-10.3-27-15.7c-2.8-1.7-4.8-1.8-7.8,0c-12.3,7.4-24.9,14.5-37.5,21.7
				c-13,7.4-25.9,15-39,22.5c-1.4,0.8-2.5,1.7-4.4,0.6c-9.7-5.7-19.4-11.3-29.6-17.2c15.9-25.8,34.8-48.9,56.7-69.5
				c53.1-49.8,115.5-81,187.7-91.7C446.5,82.3,578.8,156,646.6,265.9c-3.2,1.8-6.2,3.7-9.4,5.5c-6.2,3.6-12.5,7.1-18.7,10.9
				c-2.2,1.3-3.9,1.2-6.1,0c-21.2-12.3-42.5-24.6-63.6-36.9c-24-13.8-48-27.7-72-41.6c-21.3-12.5-42.8-24.9-64.2-37.3
				c-19.9-11.5-39.7-22.9-59.5-34.5c-2.1-1.2-3.9-1.4-6.1,0c-19.9,11.6-39.8,23.2-59.8,34.7c-9.1,5.3-18.2,10.4-27.3,15.7
				c-0.5,0.4-1.1,0.7-1.9,1.3c5.1,2.9,9.8,5.6,14.5,8.3c7.8,4.5,15.6,8.9,23.5,13.3c1.4,0.8,3.4,1.1,4.9,0.7
				c18-3.9,36.3-5.3,54.8-3.9c18.6,1.3,36.5,5.3,53.6,12.6c17.7,7.5,33.3,18,44.8,33.7c16.4,22.2,16.8,48.2,1.1,71
				c-8.1,11.9-19,20.8-31.4,28c-20.6,11.8-42.9,17.9-66.4,19.8c-20.7,1.7-41.2,0.3-61.4-5.1c-18.9-5.1-36.6-13-51.7-25.6
				c-12.5-10.4-22-23-25.6-39.3c-2.2-9.3-1.8-18.6,0.7-27.8c0.2-0.6,0.4-1.2,0.5-1.9C219.9,267.1,219.8,266.9,219.8,266.5z"/>
			<path d="M184.7,758.6L184.7,758.6C184.6,758.5,184.7,758.6,184.7,758.6z"/>
		</g>
	</g>
</g>
</svg>
