<?xml version="1.0" encoding="utf-8"?>
<!-- Generator: Adobe Illustrator 18.0.0, SVG Export Plug-In . SVG Version: 6.00 Build 0)  -->
<!DOCTYPE svg PUBLIC "-//W3C//DTD SVG 1.1//EN" "http://www.w3.org/Graphics/SVG/1.1/DTD/svg11.dtd">
<svg version="1.1" id="Layer_1" xmlns="http://www.w3.org/2000/svg" xmlns:xlink="http://www.w3.org/1999/xlink" x="0px" y="0px"
	 viewBox="-10 90.4 720 720" enable-background="new -10 90.4 720 720" xml:space="preserve">
<g>
	<path d="M350,100.4c-193.3,0-350,156.7-350,350C0,593.8,86.2,716.9,209.5,771c-1-24.5-0.2-53.8,6.1-80.4
		c6.7-28.4,45-190.7,45-190.7s-11.2-22.3-11.2-55.4c0-51.9,30.1-90.6,67.5-90.6c31.8,0,47.2,23.9,47.2,52.5
		c0,32-20.4,79.9-30.9,124.2c-8.8,37.1,18.6,67.4,55.2,67.4c66.3,0,111-85.2,111-186.1c0-76.7-51.7-134.1-145.6-134.1
		c-106.2,0-172.3,79.2-172.3,167.6c0,30.5,9,52,23.1,68.7c6.5,7.6,7.4,10.7,5,19.5c-1.7,6.4-5.5,22-7.1,28.1
		c-2.3,8.9-9.5,12.1-17.5,8.8c-48.9-20-71.7-73.5-71.7-133.7c0-99.4,83.8-218.6,250.1-218.6c133.6,0,221.6,96.7,221.6,200.5
		c0,137.3-76.3,239.9-188.8,239.9c-37.8,0-73.3-20.4-85.5-43.6c0,0-20.3,80.6-24.6,96.2c-7.4,27-22,54-35.2,75
		c31.5,9.3,64.7,14.4,99.2,14.4c193.3,0,350-156.7,350-350C700,257.1,543.3,100.4,350,100.4z"/>
</g>
</svg>
