<?xml version="1.0" encoding="utf-8"?>
<!-- Generator: Adobe Illustrator 18.0.0, SVG Export Plug-In . SVG Version: 6.00 Build 0)  -->
<!DOCTYPE svg PUBLIC "-//W3C//DTD SVG 1.1//EN" "http://www.w3.org/Graphics/SVG/1.1/DTD/svg11.dtd">
<svg version="1.1" id="Layer_1" xmlns="http://www.w3.org/2000/svg" xmlns:xlink="http://www.w3.org/1999/xlink" x="0px" y="0px"
	 viewBox="-10 90.4 720 720" enable-background="new -10 90.4 720 720" xml:space="preserve">
<path fill="#231F20" d="M620,100.4H80c-44.2,0-80,35.8-80,80v540c0,44.2,35.8,80,80,80h270.6c0,0,0-161.6,0-295.7h-58.4V400.3h58.4
	v-67.6c0-48.4,23-124,124-124l91,0.4v101.4c0,0-55.3,0-66.1,0c-10.8,0-26.1,5.4-26.1,28.4v61.4h93.7l-10.7,104.5h-82.9
	c0,132.5,0,295.7,0,295.7H620c44.2,0,80-35.8,80-80v-540C700,136.3,664.2,100.4,620,100.4z"/>
</svg>
